999
dxflib 2.2.0.0
  0
SECTION
  2
HEADER
  9
$ACADVER
  1
AC1015
  9
$HANDSEED
  5
FFFF
  9
$DIMASZ
 40
2.5
  9
$PLIMMIN
 10
0.0
 20
0.0
  9
$DIMEXE
 40
1.25
  9
$DIMGAP
 40
0.625
  9
$PLIMMAX
 10
210.0
 20
297.0
  9
$INSUNITS
 70
4
  9
$DIMSTYLE
  2
Standard
  9
$MEASUREMENT
 70
1
  9
$CLAYER
  8
outer_shell
  9
$DIMEXO
 40
0.625
  9
$DIMTXT
 40
2.5
  9
$CLAYER
  8
outer_shell
  0
ENDSEC
  0
SECTION
  2
TABLES
  0
TABLE
  2
VPORT
  5
8
100
AcDbSymbolTable
 70
1
  0
VPORT
  5
30
100
AcDbSymbolTableRecord
100
AcDbViewportTableRecord
  2
*Active
 70
0
 10
0.0
 20
0.0
 11
1.0
 21
1.0
 12
286.3055555555554861
 22
148.5
 13
0.0
 23
0.0
 14
10.0
 24
10.0
 15
10.0
 25
10.0
 16
0.0
 26
0.0
 36
1.0
 17
0.0
 27
0.0
 37
0.0
 40
297.0
 41
1.92798353909465
 42
50.0
 43
0.0
 44
0.0
 50
0.0
 51
0.0
 71
0
 72
100
 73
1
 74
3
 75
1
 76
1
 77
0
 78
0
281
0
 65
1
110
0.0
120
0.0
130
0.0
111
1.0
121
0.0
131
0.0
112
0.0
122
1.0
132
0.0
 79
0
146
0.0
  0
ENDTAB
  0
TABLE
  2
LTYPE
  5
5
100
AcDbSymbolTable
 70
21
  0
LTYPE
  5
14
100
AcDbSymbolTableRecord
100
AcDbLinetypeTableRecord
  2
ByBlock
 70
0
  3

 72
65
 73
0
 40
0.0
  0
LTYPE
  5
15
100
AcDbSymbolTableRecord
100
AcDbLinetypeTableRecord
  2
ByLayer
 70
0
  3

 72
65
 73
0
 40
0.0
  0
LTYPE
  5
16
100
AcDbSymbolTableRecord
100
AcDbLinetypeTableRecord
  2
CONTINUOUS
 70
0
  3
Solid line
 72
65
 73
0
 40
0.0
  0
LTYPE
  5
31
100
AcDbSymbolTableRecord
100
AcDbLinetypeTableRecord
  2
DOT
 70
0
  3
Dot . . . . . . . . . . . . . . . . . . . . . .
 72
65
 73
2
 40
6.3499999999999996
 49
0.0
 74
0
 49
-6.3499999999999996
 74
0
  0
LTYPE
  5
32
100
AcDbSymbolTableRecord
100
AcDbLinetypeTableRecord
  2
DOT2
 70
0
  3
Dot (.5x) .....................................
 72
65
 73
2
 40
3.1749999999999998
 49
0.0
 74
0
 49
-3.1749999999999998
 74
0
  0
LTYPE
  5
33
100
AcDbSymbolTableRecord
100
AcDbLinetypeTableRecord
  2
DOTX2
 70
0
  3
Dot (2x) .  .  .  .  .  .  .  .  .  .  .  .  .
 72
65
 73
2
 40
12.6999999999999993
 49
0.0
 74
0
 49
-12.6999999999999993
 74
0
  0
LTYPE
  5
34
100
AcDbSymbolTableRecord
100
AcDbLinetypeTableRecord
  2
DASHED
 70
0
  3
Dashed __ __ __ __ __ __ __ __ __ __ __ __ __ _
 72
65
 73
2
 40
19.0500000000000007
 49
12.6999999999999993
 74
0
 49
-6.3499999999999996
 74
0
  0
LTYPE
  5
35
100
AcDbSymbolTableRecord
100
AcDbLinetypeTableRecord
  2
DASHED2
 70
0
  3
Dashed (.5x) _ _ _ _ _ _ _ _ _ _ _ _ _ _ _ _ _
 72
65
 73
2
 40
9.5250000000000004
 49
6.3499999999999996
 74
0
 49
-3.1749999999999998
 74
0
  0
LTYPE
  5
36
100
AcDbSymbolTableRecord
100
AcDbLinetypeTableRecord
  2
DASHEDX2
 70
0
  3
Dashed (2x) ____  ____  ____  ____  ____  ___
 72
65
 73
2
 40
38.1000000000000014
 49
25.3999999999999986
 74
0
 49
-12.6999999999999993
 74
0
  0
LTYPE
  5
37
100
AcDbSymbolTableRecord
100
AcDbLinetypeTableRecord
  2
DASHDOT
 70
0
  3
Dash dot __ . __ . __ . __ . __ . __ . __ . __
 72
65
 73
4
 40
25.3999999999999986
 49
12.6999999999999993
 74
0
 49
-6.3499999999999996
 74
0
 49
0.0
 74
0
 49
-6.3499999999999996
 74
0
  0
LTYPE
  5
38
100
AcDbSymbolTableRecord
100
AcDbLinetypeTableRecord
  2
DASHDOT2
 70
0
  3
Dash dot (.5x) _._._._._._._._._._._._._._._.
 72
65
 73
4
 40
12.6999999999999993
 49
6.3499999999999996
 74
0
 49
-3.1749999999999998
 74
0
 49
0.0
 74
0
 49
-3.1749999999999998
 74
0
  0
LTYPE
  5
39
100
AcDbSymbolTableRecord
100
AcDbLinetypeTableRecord
  2
DASHDOTX2
 70
0
  3
Dash dot (2x) ____  .  ____  .  ____  .  ___
 72
65
 73
4
 40
50.7999999999999972
 49
25.3999999999999986
 74
0
 49
-12.6999999999999993
 74
0
 49
0.0
 74
0
 49
-12.6999999999999993
 74
0
  0
LTYPE
  5
3A
100
AcDbSymbolTableRecord
100
AcDbLinetypeTableRecord
  2
DIVIDE
 70
0
  3
Divide ____ . . ____ . . ____ . . ____ . . ____
 72
65
 73
6
 40
31.75
 49
12.6999999999999993
 74
0
 49
-6.3499999999999996
 74
0
 49
0.0
 74
0
 49
-6.3499999999999996
 74
0
 49
0.0
 74
0
 49
-6.3499999999999996
 74
0
  0
LTYPE
  5
3B
100
AcDbSymbolTableRecord
100
AcDbLinetypeTableRecord
  2
DIVIDE2
 70
0
  3
Divide (.5x) __..__..__..__..__..__..__..__.._
 72
65
 73
6
 40
15.875
 49
6.3499999999999996
 74
0
 49
-3.1749999999999998
 74
0
 49
0.0
 74
0
 49
-3.1749999999999998
 74
0
 49
0.0
 74
0
 49
-3.1749999999999998
 74
0
  0
LTYPE
  5
3C
100
AcDbSymbolTableRecord
100
AcDbLinetypeTableRecord
  2
DIVIDEX2
 70
0
  3
Divide (2x) ________  .  .  ________  .  .  _
 72
65
 73
6
 40
63.5
 49
25.3999999999999986
 74
0
 49
-12.6999999999999993
 74
0
 49
0.0
 74
0
 49
-12.6999999999999993
 74
0
 49
0.0
 74
0
 49
-12.6999999999999993
 74
0
  0
LTYPE
  5
3D
100
AcDbSymbolTableRecord
100
AcDbLinetypeTableRecord
  2
CENTER
 70
0
  3
Center ____ _ ____ _ ____ _ ____ _ ____ _ ____
 72
65
 73
4
 40
50.7999999999999972
 49
31.75
 74
0
 49
-6.3499999999999996
 74
0
 49
6.3499999999999996
 74
0
 49
-6.3499999999999996
 74
0
  0
LTYPE
  5
3E
100
AcDbSymbolTableRecord
100
AcDbLinetypeTableRecord
  2
CENTER2
 70
0
  3
Center (.5x) ___ _ ___ _ ___ _ ___ _ ___ _ ___
 72
65
 73
4
 40
28.5749999999999993
 49
19.0500000000000007
 74
0
 49
-3.1749999999999998
 74
0
 49
3.1749999999999998
 74
0
 49
-3.1749999999999998
 74
0
  0
LTYPE
  5
3F
100
AcDbSymbolTableRecord
100
AcDbLinetypeTableRecord
  2
CENTERX2
 70
0
  3
Center (2x) ________  __  ________  __  _____
 72
65
 73
4
 40
101.5999999999999943
 49
63.5
 74
0
 49
-12.6999999999999993
 74
0
 49
12.6999999999999993
 74
0
 49
-12.6999999999999993
 74
0
  0
LTYPE
  5
40
100
AcDbSymbolTableRecord
100
AcDbLinetypeTableRecord
  2
BORDER
 70
0
  3
Border __ __ . __ __ . __ __ . __ __ . __ __ .
 72
65
 73
6
 40
44.4500000000000028
 49
12.6999999999999993
 74
0
 49
-6.3499999999999996
 74
0
 49
12.6999999999999993
 74
0
 49
-6.3499999999999996
 74
0
 49
0.0
 74
0
 49
-6.3499999999999996
 74
0
  0
LTYPE
  5
41
100
AcDbSymbolTableRecord
100
AcDbLinetypeTableRecord
  2
BORDER2
 70
0
  3
Border (.5x) __.__.__.__.__.__.__.__.__.__.__.
 72
65
 73
6
 40
22.2250000000000014
 49
6.3499999999999996
 74
0
 49
-3.1749999999999998
 74
0
 49
6.3499999999999996
 74
0
 49
-3.1749999999999998
 74
0
 49
0.0
 74
0
 49
-3.1749999999999998
 74
0
  0
LTYPE
  5
42
100
AcDbSymbolTableRecord
100
AcDbLinetypeTableRecord
  2
BORDERX2
 70
0
  3
Border (2x) ____  ____  .  ____  ____  .  ___
 72
65
 73
6
 40
88.9000000000000057
 49
25.3999999999999986
 74
0
 49
-12.6999999999999993
 74
0
 49
25.3999999999999986
 74
0
 49
-12.6999999999999993
 74
0
 49
0.0
 74
0
 49
-12.6999999999999993
 74
0
  0
ENDTAB
  0
TABLE
  2
LAYER
  5
2
100
AcDbSymbolTable
 70
3
  0
LAYER
  5
10
100
AcDbSymbolTableRecord
100
AcDbLayerTableRecord
  2
0
 70
0
 62
7
420
16777215
  6
CONTINUOUS
390
F
  0
LAYER
  5
43
100
AcDbSymbolTableRecord
100
AcDbLayerTableRecord
  2
inner_shell
 70
0
 62
5
420
255
  6
CONTINUOUS
370
0
390
F
  0
LAYER
  5
44
100
AcDbSymbolTableRecord
100
AcDbLayerTableRecord
  2
outer_shell
 70
0
 62
8
420
8421504
  6
CONTINUOUS
370
0
390
F
  0
ENDTAB
  0
TABLE
  2
STYLE
  5
3
100
AcDbSymbolTable
 70
1
  0
STYLE
  5
11
100
AcDbSymbolTableRecord
100
AcDbTextStyleTableRecord
  2
Standard
 70
0
 40
0.0
 41
0.75
 50
0.0
 71
0
 42
2.5
  3
txt
  4

  0
ENDTAB
  0
TABLE
  2
VIEW
  5
6
100
AcDbSymbolTable
 70
0
  0
ENDTAB
  0
TABLE
  2
UCS
  5
7
100
AcDbSymbolTable
 70
0
  0
ENDTAB
  0
TABLE
  2
APPID
  5
9
100
AcDbSymbolTable
 70
1
  0
APPID
  5
12
100
AcDbSymbolTableRecord
100
AcDbRegAppTableRecord
  2
ACAD
 70
0
  0
ENDTAB
  0
TABLE
  2
DIMSTYLE
  5
A
100
AcDbSymbolTable
 70
1
100
AcDbDimStyleTable
 71
0
  0
DIMSTYLE
105
27
100
AcDbSymbolTableRecord
100
AcDbDimStyleTableRecord
  2
Standard
 41
2.5
 42
0.625
 43
3.75
 44
1.25
 70
0
 73
0
 74
0
 77
1
 78
8
140
2.5
141
2.5
143
0.03937007874016
147
0.625
171
3
172
1
271
2
272
2
274
3
278
44
283
0
284
8
340
11
  0
ENDTAB
  0
TABLE
  2
BLOCK_RECORD
  5
1
100
AcDbSymbolTable
 70
1
  0
BLOCK_RECORD
  5
1F
100
AcDbSymbolTableRecord
100
AcDbBlockTableRecord
  2
*Model_Space
340
22
  0
BLOCK_RECORD
  5
1B
100
AcDbSymbolTableRecord
100
AcDbBlockTableRecord
  2
*Paper_Space
340
1E
  0
BLOCK_RECORD
  5
23
100
AcDbSymbolTableRecord
100
AcDbBlockTableRecord
  2
*Paper_Space0
340
26
  0
ENDTAB
  0
ENDSEC
  0
SECTION
  2
BLOCKS
  0
BLOCK
  5
20
100
AcDbEntity
  8
0
100
AcDbBlockBegin
  2
*Model_Space
 70
0
 10
0.0
 20
0.0
 30
0.0
  3
*Model_Space
  1

  0
ENDBLK
  5
21
100
AcDbEntity
  8
0
100
AcDbBlockEnd
  0
BLOCK
  5
1C
100
AcDbEntity
 67
1
  8
0
100
AcDbBlockBegin
  2
*Paper_Space
 70
0
 10
0.0
 20
0.0
 30
0.0
  3
*Paper_Space
  1

  0
ENDBLK
  5
1D
100
AcDbEntity
 67
1
  8
0
100
AcDbBlockEnd
  0
BLOCK
  5
24
100
AcDbEntity
  8
0
100
AcDbBlockBegin
  2
*Paper_Space0
 70
0
 10
0.0
 20
0.0
 30
0.0
  3
*Paper_Space0
  1

  0
ENDBLK
  5
25
100
AcDbEntity
  8
0
100
AcDbBlockEnd
  0
ENDSEC
  0
SECTION
  2
ENTITIES
  0
LWPOLYLINE
  5
45
  8
inner_shell
 62
256
370
-1
  6
ByLayer
100
AcDbEntity
100
AcDbPolyline
 90
406
 70
0
 10
-0.2762808785230074
 20
0.1924854319096309
 10
-0.2855874258664537
 20
0.178524364217144
 10
-0.2942071371292588
 20
0.1640864186661478
 10
-0.3021166764150254
 20
0.1491949244448976
 10
-0.309292707827353
 20
0.1338732107416373
 10
-0.3157118954698427
 20
0.1181446067446172
 10
-0.3213509034460966
 20
0.1020324416420797
 10
-0.3261863958597128
 20
0.0855600446222879
 10
-0.3301950368142954
 20
0.0687507448734745
 10
-0.3333534904134429
 20
0.051627871583896
 10
-0.3356384207607562
 20
0.0342147539417981
 10
-0.3370264919598374
 20
0.0165347211354296
 10
-0.3374943681142863
 20
-0.0013888976469615
 10
-0.337293377214953
 20
-0.013148058029553
 10
-0.336694765259023
 20
-0.024806132161521
 10
-0.3357050733595999
 20
-0.0363565878581014
 10
-0.33433084262979
 20
-0.0477928929345393
 10
-0.3325786141826967
 20
-0.0591085152060625
 10
-0.3304549291314246
 20
-0.0702969224879195
 10
-0.3279663285890788
 20
-0.0813515825953393
 10
-0.3251193536687637
 20
-0.0922659633435668
 10
-0.3219205454835837
 20
-0.1030335325478325
 10
-0.3183764451466433
 20
-0.1136477580233821
 10
-0.3144935937710478
 20
-0.1241021075854519
 10
-0.3102785324699003
 20
-0.1343900490492772
 10
-0.3057378023563073
 20
-0.1445050502300958
 10
-0.3008779445433715
 20
-0.1544405789431488
 10
-0.2957055001441991
 20
-0.164190103003672
 10
-0.290227010271894
 20
-0.1737470902269026
 10
-0.2844490160395608
 20
-0.1831050084280811
 10
-0.2783780585603038
 20
-0.1922573254224434
 10
-0.2720206789472279
 20
-0.2011975090252297
 10
-0.2653834183134381
 20
-0.2099190270516748
 10
-0.2584728177720385
 20
-0.2184153473170203
 10
-0.2512954184361326
 20
-0.2266799376365022
 10
-0.2438577614188274
 20
-0.2347062658253576
 10
-0.2361663878332257
 20
-0.2424877996988264
 10
-0.2282278387924321
 20
-0.2500180070721443
 10
-0.2200486554095523
 20
-0.2572903557605519
 10
-0.2116353787976904
 20
-0.2642983135792856
 10
-0.2029945500699505
 20
-0.2710353483435864
 10
-0.1941327103394375
 20
-0.2774949278686867
 10
-0.1850564007192559
 20
-0.2836705199698284
 10
-0.1757721623225102
 20
-0.2895555924622487
 10
-0.3206943680034065
 20
-0.6397333506789321
 10
-0.323314764032867
 20
-0.6383859785577106
 10
-0.3259286253877783
 20
-0.6370277619653424
 10
-0.3285359386518402
 20
-0.6356587478905977
 10
-0.3311366904087497
 20
-0.6342789833222547
 10
-0.333730867242207
 20
-0.6328885152490817
 10
-0.3363184557359079
 20
-0.6314873906598526
 10
-0.3388994424735526
 20
-0.6300756565433431
 10
-0.3414738140388394
 20
-0.6286533598883233
 10
-0.3440415570154665
 20
-0.6272205476835605
 10
-0.3466026579871309
 20
-0.6257772669178391
 10
-0.3491571035375325
 20
-0.6243235645799253
 10
-0.3517048802503697
 20
-0.6228594876585928
 10
-0.3542459747093402
 20
-0.6213850831426104
 10
-0.3567803734981423
 20
-0.6199003980207558
 10
-0.3593080632004756
 20
-0.6184054792818039
 10
-0.3618290304000367
 20
-0.61690037391452
 10
-0.3643432616805252
 20
-0.6153851289076813
 10
-0.366850743625638
 20
-0.6138597912500616
 10
-0.3693514628190757
 20
-0.6123244079304314
 10
-0.3718454058445349
 20
-0.6107790259375621
 10
-0.3743325592857149
 20
-0.609223692260231
 10
-0.3768129097263133
 20
-0.6076584538872073
 10
-0.3792864437500298
 20
-0.6060833578072641
 10
-0.3817531479405614
 20
-0.6044984510091748
 10
-0.3842130088816068
 20
-0.6029037804817128
 10
-0.3866660131568645
 20
-0.601299393213649
 10
-0.3891121473500325
 20
-0.5996853361937615
 10
-0.3915513980448104
 20
-0.5980616564108135
 10
-0.3939837518248949
 20
-0.5964284008535844
 10
-0.3964091952739853
 20
-0.5947856165108463
 10
-0.3988277149757797
 20
-0.5931333503713732
 10
-0.604983267517509
 20
-0.7346000048483602
 10
-0.6697832679451891
 20
-0.6698000044206809
 10
-0.7346166148297817
 20
-0.6049777992684429
 10
-0.5912499209701754
 20
-0.396088900251982
 10
-0.5960497537857344
 20
-0.3886310358052021
 10
-0.6007583844461535
 20
-0.381109563593987
 10
-0.6053750028589651
 20
-0.3735252534301893
 10
-0.6098987989317008
 20
-0.3658788751256576
 10
-0.6143289625718913
 20
-0.3581711984922309
 10
-0.6186646836870688
 20
-0.3504029933417661
 10
-0.6229051521847649
 20
-0.3425750294860959
 10
-0.6270495579725114
 20
-0.334688076737078
 10
-0.6310970909578391
 20
-0.3267429049065545
 10
-0.635046941048281
 20
-0.3187402838063708
 10
-0.638898298151367
 20
-0.310680983248379
 10
-0.6426503521746296
 20
-0.3025657730444169
 10
-0.6463022930256004
 20
-0.2943954230063393
 10
-0.6498533106118108
 20
-0.2861707029459864
 10
-0.6533025948407934
 20
-0.2778923826752093
 10
-0.656649335620078
 20
-0.2695612320058514
 10
-0.6598927228571976
 20
-0.261178020749761
 10
-0.6630319464596834
 20
-0.252743518718783
 10
-0.6660661963350663
 20
-0.2442584957247649
 10
-0.6689946623908786
 20
-0.2357237215795542
 10
-0.671816534534652
 20
-0.2271399660949955
 10
-0.6745310026739183
 20
-0.218507999082935
 10
-0.6771372567162079
 20
-0.2098285903552218
 10
-0.6796344865690537
 20
-0.2011025097236987
 10
-0.6820218821399865
 20
-0.1923305270002146
 10
-0.6842986333365382
 20
-0.1835134119966155
 10
-0.6864639300662402
 20
-0.1746519345247479
 10
-0.6885169622366247
 20
-0.1657468643964588
 10
-0.6904569197552226
 20
-0.1567989714235918
 10
-0.6922829925295665
 20
-0.1478090254180005
 10
-0.6939943704671865
 20
-0.1387777961915235
 10
-0.9472277185952198
 20
-0.0916444494237509
 10
-0.9472277185952193
 20
0.000000000000001
 10
-0.9472388209574967
 20
0.0916777565105916
 10
-0.6892277168924202
 20
0.1396666544651078
 10
-0.6892277168924202
 20
0.1396666544651078
 10
-0.6872936271424117
 20
0.1482909861478401
 10
-0.6852552442016507
 20
0.1568753305435487
 10
-0.6831132349364503
 20
0.1654189648291634
 10
-0.680868266213122
 20
0.1739211661816031
 10
-0.6785210048979775
 20
0.1823812117778022
 10
-0.6760721178573277
 20
0.1907983787946809
 10
-0.6735222719574879
 20
0.19917194440917
 10
-0.6708721340647681
 20
0.2075011857981926
 10
-0.668122371045482
 20
0.2157853801386772
 10
-0.6652736497659384
 20
0.2240238046075491
 10
-0.6623266370924521
 20
0.232215736381731
 10
-0.6592819998913358
 20
0.2403604526381547
 10
-0.6561404050288988
 20
0.2484572305537459
 10
-0.6529025193714572
 20
0.2565053473054266
 10
-0.6495690097853195
 20
0.2645040800701275
 10
-0.6461405431367985
 20
0.272452706024773
 10
-0.6426177862922056
 20
0.2803505023462887
 10
-0.6390014061178558
 20
0.288196746211601
 10
-0.6352920694800618
 20
0.2959907147976392
 10
-0.6314904432451317
 20
0.3037316852813263
 10
-0.6275971942793798
 20
0.3114189348395878
 10
-0.6236129894491176
 20
0.3190517406493525
 10
-0.6195384956206564
 20
0.3266293798875477
 10
-0.6153743796603112
 20
0.3341511297310956
 10
-0.6111213084343927
 20
0.3416162673569282
 10
-0.606779948809211
 20
0.3490240699419649
 10
-0.6023509676510812
 20
0.3563738146631346
 10
-0.5978350318263141
 20
0.3636647786973677
 10
-0.5932328082012215
 20
0.3708962392215868
 10
-0.5885449636421153
 20
0.3780674734127163
 10
-0.583772165015311
 20
0.3851777584476854
 10
-0.7345943707351458
 20
0.6049888622606435
 10
-0.6697832679451891
 20
0.6697888626883224
 10
-0.6049721651552312
 20
0.7346222095729166
 10
-0.3822610613231328
 20
0.5817666573829674
 10
-0.3752320263306583
 20
0.5862504448455879
 10
-0.3681474801135582
 20
0.5906540200864218
 10
-0.3610080335972446
 20
0.5949766714864357
 10
-0.3538142977071226
 20
0.5992176874265934
 10
-0.3465668833686018
 20
0.6033763562878617
 10
-0.3392664015070931
 20
0.6074519664512031
 10
-0.3319134630480043
 20
0.6114438062975877
 10
-0.3245086789167443
 20
0.615351164207977
 10
-0.3170526600387225
 20
0.6191733285633396
 10
-0.3095460173393489
 20
0.6229095877446384
 10
-0.3019893617440297
 20
0.6265592301328372
 10
-0.2943833041781773
 20
0.630121544108907
 10
-0.2867284555671976
 20
0.6335958180538076
 10
-0.2790254268365037
 20
0.6369813403485077
 10
-0.2712748289115001
 20
0.6402773993739714
 10
-0.2634772727175974
 20
0.6434832835111661
 10
-0.2556333691802062
 20
0.6465982811410536
 10
-0.2477437292247347
 20
0.6496216806446018
 10
-0.2398089637765907
 20
0.6525527704027767
 10
-0.2318296837611845
 20
0.6553908387965415
 10
-0.2238065001039242
 20
0.6581351742068621
 10
-0.21574002373022
 20
0.6607850650147057
 10
-0.2076308655654799
 20
0.6633397996010347
 10
-0.1994796365351144
 20
0.6657986663468175
 10
-0.1912869475645302
 20
0.6681609536330205
 10
-0.1830534095791384
 20
0.6704259498406042
 10
-0.1747796335043458
 20
0.6725929433505379
 10
-0.1664662302655641
 20
0.674661222543785
 10
-0.1581138107882011
 20
0.6766300758013122
 10
-0.1497229859976658
 20
0.6784987915040841
 10
-0.1412943668193666
 20
0.6802666580330669
 10
-0.1413166109140006
 20
0.6802777603953456
 10
-0.0916610594051723
 20
0.9472222109760761
 10
0.0000056341132136
 20
0.9472222109760761
 10
0.0916722882615204
 20
0.9472222109760761
 10
0.1413389421326279
 20
0.6802777603953456
 10
0.1413056350457944
 20
0.6802666580330665
 10
0.149734284449096
 20
0.678498791504083
 10
0.1581252045479707
 20
0.6766300758013108
 10
0.1664777799369797
 20
0.6746612225437836
 10
0.1747913952106825
 20
0.6725929433505368
 10
0.183065434963641
 20
0.6704259498406042
 10
0.1912992837904162
 20
0.6681609536330191
 10
0.1994923262855698
 20
0.6657986663468184
 10
0.2076439470436629
 20
0.6633397996010347
 10
0.215753530659257
 20
0.6607850650147066
 10
0.2238204617269116
 20
0.6581351742068632
 10
0.2318441248411904
 20
0.6553908387965415
 10
0.239823904596652
 20
0.6525527704027764
 10
0.2477591855878596
 20
0.6496216806446015
 10
0.255649352409373
 20
0.6465982811410549
 10
0.2634937896557548
 20
0.6434832835111637
 10
0.2712918819215645
 20
0.6402773993739725
 10
0.2790430138013649
 20
0.6369813403485072
 10
0.2867465698897158
 20
0.6335958180538073
 10
0.2944019347811782
 20
0.6301215441089059
 10
0.3020084930703152
 20
0.6265592301328389
 10
0.3095656293516859
 20
0.6229095877446362
 10
0.3170727282198531
 20
0.6191733285633394
 10
0.324529174269378
 20
0.6153511642079753
 10
0.3319343520948204
 20
0.6114438062975871
 10
0.3392876462907408
 20
0.6074519664512044
 10
0.3465884414517017
 20
0.6033763562878617
 10
0.3538361221722654
 20
0.5992176874265933
 10
0.3610300730469921
 20
0.5949766714864354
 10
0.3681696786704419
 20
0.590654020086423
 10
0.3752543236371773
 20
0.5862504448455873
 10
0.3822833925417594
 20
0.5817666573829668
 10
0.6049833940115785
 20
0.7346222095729167
 10
0.6698056385338945
 20
0.6697888626883224
 10
0.7346167413238515
 20
0.6049888622606435
 10
0.5837833938716588
 20
0.3851777584476858
 10
0.5885572363229432
 20
0.3780674734127145
 10
0.59324605738714
 20
0.3708962392215847
 10
0.5978491924419178
 20
0.3636647786973674
 10
0.6023659768649435
 20
0.3563738146631338
 10
0.6067957460338842
 20
0.3490240699419654
 10
0.6111378353264083
 20
0.341616267356926
 10
0.6153915801201822
 20
0.3341511297310975
 10
0.6195563157928758
 20
0.3266293798875467
 10
0.623631377722153
 20
0.3190517406493537
 10
0.6276161012856815
 20
0.3114189348395908
 10
0.6315098218611318
 20
0.3037316852813255
 10
0.635311874826169
 20
0.2959907147976397
 10
0.6390215955584609
 20
0.288196746211602
 10
0.6426383194356751
 20
0.2803505023462883
 10
0.6461613818354779
 20
0.2724527060247725
 10
0.6495901181355385
 20
0.2645040800701267
 10
0.6529238637135237
 20
0.2565053473054277
 10
0.6561619539471013
 20
0.2484572305537431
 10
0.6593037242139368
 20
0.2403604526381547
 10
0.6623485098916989
 20
0.2322157363817325
 10
0.6652956463580563
 20
0.2240238046075472
 10
0.6681444689906753
 20
0.2157853801386771
 10
0.6708943131672216
 20
0.2075011857981923
 10
0.6735445142653644
 20
0.1991719444091692
 10
0.6760944076627714
 20
0.1907983787946823
 10
0.6785433287371094
 20
0.182381211777803
 10
0.6808906128660464
 20
0.1739211661816016
 10
0.6831355954272482
 20
0.1654189648291609
 10
0.6852776117983845
 20
0.1568753305435499
 10
0.6873159973571202
 20
0.14829098614784
 10
0.6892500874811248
 20
0.1396666544651073
 10
0.9472500891839249
 20
0.0916777565105913
 10
0.9472389474515687
 20
0.0000000000000004
 10
0.9472389474515681
 20
-0.0916444494237521
 10
0.6940056386936136
 20
-0.1387777961915242
 10
0.6922942906096439
 20
-0.1478090254180011
 10
0.690468310544165
 20
-0.1567989714235973
 10
0.6885285018814948
 20
-0.1657468643964598
 10
0.6864756680059516
 20
-0.1746519345247499
 10
0.6843106123018525
 20
-0.1835134119966158
 10
0.6820341381535153
 20
-0.1923305270002149
 10
0.6796470489452577
 20
-0.2011025097236981
 10
0.677150148061397
 20
-0.2098285903552208
 10
0.67454423888625
 20
-0.218507999082934
 10
0.671830124804136
 20
-0.2271399660949931
 10
0.6690086091993719
 20
-0.2357237215795549
 10
0.6660804954562742
 20
-0.2442584957247666
 10
0.6630465869591621
 20
-0.2527435187187832
 10
0.659907687092352
 20
-0.2611780207497608
 10
0.6566645992401622
 20
-0.2695612320058531
 10
0.6533181267869104
 20
-0.2778923826752082
 10
0.6498690731169132
 20
-0.2861707029459885
 10
0.646318241614489
 20
-0.2943954230063408
 10
0.642666435663955
 20
-0.3025657730444175
 10
0.6389144586496298
 20
-0.310680983248377
 10
0.6350631139558297
 20
-0.3187402838063735
 10
0.6311132049668728
 20
-0.3267429049065552
 10
0.627065535067076
 20
-0.3346880767370783
 10
0.6229209076407577
 20
-0.3425750294860965
 10
0.618680126072236
 20
-0.3504029933417646
 10
0.6143439937458268
 20
-0.3581711984922315
 10
0.6099133140458496
 20
-0.365878875125658
 10
0.6053888903566209
 20
-0.3735252534301928
 10
0.600771526062458
 20
-0.3811095635939883
 10
0.5960620245476795
 20
-0.3886310358052001
 10
0.5912611891966023
 20
-0.3960889002519825
 10
0.7346278436861294
 20
-0.6049777992684477
 10
0.6698056385338934
 20
-0.669800004420684
 10
0.6049944963738564
 20
-0.7346000048483611
 10
0.3988500855644848
 20
-0.5931333503713727
 10
0.3964315621755855
 20
-0.5947856165108455
 10
0.394006115285198
 20
-0.5964284008535882
 10
0.3915737583096233
 20
-0.598061656410815
 10
0.389134504665162
 20
-0.5996853361937604
 10
0.386688367768117
 20
-0.6012993932136511
 10
0.3842353610347909
 20
-0.6029037804817134
 10
0.3817754978814833
 20
-0.6044984510091769
 10
0.379308791724496
 20
-0.6060833578072639
 10
0.3768352559801308
 20
-0.6076584538872049
 10
0.3743549040646907
 20
-0.6092236922602297
 10
0.371867749394476
 20
-0.6107790259375636
 10
0.369373805385789
 20
-0.6123244079304307
 10
0.3668730854549305
 20
-0.6138597912500606
 10
0.3643656030182029
 20
-0.6153851289076813
 10
0.361851371491908
 20
-0.6169003739145226
 10
0.3593304042923466
 20
-0.6184054792818037
 10
0.3568027148358212
 20
-0.6199003980207587
 10
0.3542683165386324
 20
-0.6213850831426151
 10
0.3517272228170827
 20
-0.6228594876585919
 10
0.3491794470874739
 20
-0.6243235645799199
 10
0.3466250027661067
 20
-0.6257772669178364
 10
0.3440639032692832
 20
-0.6272205476835595
 10
0.341496162013305
 20
-0.6286533598883175
 10
0.3389217924144745
 20
-0.6300756565433447
 10
0.3363408078890915
 20
-0.6314873906598605
 10
0.3337532218534601
 20
-0.6328885152490851
 10
0.3311590477238798
 20
-0.6342789833222535
 10
0.3285582989166531
 20
-0.6356587478906001
 10
0.3259509888480823
 20
-0.6370277619653449
 10
0.3233371309344671
 20
-0.6383859785577036
 10
0.3207167385921116
 20
-0.6397333506789321
 10
0.1757944935411364
 20
-0.2895555924622488
 10
0.1850776919220907
 20
-0.2836705199698307
 10
0.1941530288379375
 20
-0.2774949278686872
 10
0.2030139609236634
 20
-0.2710353483435843
 10
0.2116539448142554
 20
-0.2642983135792885
 10
0.2200664371447
 20
-0.2572903557605519
 10
0.2282448945499833
 20
-0.2500180070721467
 10
0.2361827736650935
 20
-0.242487799698827
 10
0.2438735311250156
 20
-0.234706265825358
 10
0.2513106235647359
 20
-0.2266799376364999
 10
0.2584875076192431
 20
-0.2184153473170181
 10
0.2653976399235233
 20
-0.2099190270516766
 10
0.272034477112561
 20
-0.2011975090252287
 10
0.2783914758213448
 20
-0.1922573254224447
 10
0.2844620926848612
 20
-0.1831050084280816
 10
0.290239784338096
 20
-0.1737470902269036
 10
0.2957180074160367
 20
-0.1641901030036714
 10
0.3008902185536696
 20
-0.1544405789431491
 10
0.305749874385981
 20
-0.1445050502300972
 10
0.3102904315479578
 20
-0.1343900490492775
 10
0.3145053466745868
 20
-0.1241021075854535
 10
0.318388076400854
 20
-0.1136477580233847
 10
0.3219320773617472
 20
-0.1030335325478349
 10
0.3251308061922517
 20
-0.0922659633435661
 10
0.3279777195273548
 20
-0.0813515825953397
 10
0.3304662740020431
 20
-0.0702969224879185
 10
0.3325899262513032
 20
-0.0591085152060637
 10
0.3343421329101222
 20
-0.0477928929345393
 10
0.3357163506134863
 20
-0.0363565878581031
 10
0.3367060359963819
 20
-0.0248061321615207
 10
0.3373046456937946
 20
-0.0131480580295521
 10
0.3375056363407138
 20
-0.0013888976469617
 10
0.3370377936080803
 20
0.0165347211354282
 10
0.3356498182182029
 20
0.0342147539417967
 10
0.3333650393831183
 20
0.051627871583895
 10
0.330206786314862
 20
0.068750744873472
 10
0.3261983882254716
 20
0.085560044622287
 10
0.321363174326981
 20
0.1020324416420829
 10
0.315724473831429
 20
0.118144606744617
 10
0.3093056159508493
 20
0.133873210741637
 10
0.3021299298972787
 20
0.1491949244448983
 10
0.2942207448827541
 20
0.1640864186661505
 10
0.2856013901193112
 20
0.1785243642171422
 10
0.2762951948189853
 20
0.1924854319096325
 10
0.2663254881938137
 20
0.2059462925553653
 10
0.2557155994558318
 20
0.2188836169660973
 10
0.2444888578170768
 20
0.2312740759535787
 10
0.2326685924895835
 20
0.2430943403295618
 10
0.2202781326853886
 20
0.2543210809057972
 10
0.2073408076165287
 20
0.2649309684940351
 10
0.1938799464950381
 20
0.2749006739060325
 10
0.179918878532955
 20
0.2842068679535347
 10
0.1654809329423148
 20
0.2928262214482963
 10
0.1505894389351539
 20
0.3007354052020699
 10
0.1352677257235073
 20
0.3079110900266055
 10
0.1195391225194128
 20
0.3143299467336536
 10
0.103426958534904
 20
0.3199686461349712
 10
0.0869545629820199
 20
0.3248038590423045
 10
0.0701452650727955
 20
0.3288122562674047
 10
0.0530223940192663
 20
0.3319705086220283
 10
0.0356092790334686
 20
0.3342552869179239
 10
0.0179292493274402
 20
0.3356432619668432
 10
0.0000056341132139
 20
0.336111104580538
 10
-0.0179169784465545
 20
0.3356432619668437
 10
-0.0355961369572656
 20
0.3342552869179217
 10
-0.0530085055225235
 20
0.3319705086220294
 10
-0.0701307482459252
 20
0.3288122562674052
 10
-0.0869395292310745
 20
0.3248038590423045
 10
-0.1034115125815707
 20
0.319968646134969
 10
-0.1195233624010159
 20
0.314329946733655
 10
-0.1352517427930085
 20
0.3079110900266055
 10
-0.1505733178611523
 20
0.3007354052020713
 10
-0.1654647517090458
 20
0.2928262214482985
 10
-0.1799027084402912
 20
0.2842068679535347
 10
-0.1938638521584895
 20
0.2749006739060328
 10
-0.2073248469672406
 20
0.2649309684940368
 10
-0.2202623569701444
 20
0.2543210809057964
 10
-0.2326530462708046
 20
0.2430943403295624
 10
-0.2444735789728199
 20
0.2312740759535798
 10
-0.2557006191797918
 20
0.2188836169660971
 10
-0.2663108309953201
 20
0.2059462925553665
 10
-0.2762808785230074
 20
0.1924854319096309
  0
LWPOLYLINE
  5
46
  8
outer_shell
 62
256
370
-1
  6
ByLayer
100
AcDbEntity
100
AcDbPolyline
 90
1894
 70
0
 10
0.7752087148056893
 20
-0.5659315732662745
 10
0.7755867830140604
 20
-0.5664808647485673
 10
0.7759750241172891
 20
-0.5670450308971674
 10
0.7763725474775183
 20
-0.5676227782521474
 10
0.7767784624568971
 20
-0.5682128133535691
 10
0.7771918784175721
 20
-0.5688138427415109
 10
0.7776119047216877
 20
-0.5694245729560345
 10
0.7780376507313899
 20
-0.5700437105372115
 10
0.7784682258088251
 20
-0.5706699620251046
 10
0.7789027393161417
 20
-0.571302033959791
 10
0.779340300615484
 20
-0.5719386328813296
 10
0.7797800190689991
 20
-0.5725784653297982
 10
0.7802210040388323
 20
-0.5732202378452584
 10
0.7806623648871315
 20
-0.5738626569677782
 10
0.7811032109760402
 20
-0.5745044292374309
 10
0.7815426516677085
 20
-0.5751442611942856
 10
0.7819797963242791
 20
-0.5757808593784051
 10
0.7824137543079001
 20
-0.5764129303298612
 10
0.7828436349807174
 20
-0.5770391805887224
 10
0.7832685477048772
 20
-0.5776583166950569
 10
0.7836876018425253
 20
-0.578269045188931
 10
0.7840999067558084
 20
-0.5788700726104158
 10
0.7845045718068726
 20
-0.5794601054995782
 10
0.7849007063578654
 20
-0.580037850396488
 10
0.7852874197709293
 20
-0.5806020138412118
 10
0.7856638214082151
 20
-0.5811513023738214
 10
0.7860290206318674
 20
-0.5816844225343785
 10
0.7863821268040307
 20
-0.5822000808629627
 10
0.7867222492868539
 20
-0.5826969838996308
 10
0.8002889029197003
 20
-0.6024636769434765
 10
0.8006093162831937
 20
-0.6029587573745123
 10
0.8009039589769928
 20
-0.6034690105325994
 10
0.801172936182686
 20
-0.6039932369274259
 10
0.8014163530818548
 20
-0.604530237068674
 10
0.8016343148560854
 20
-0.6050788114660323
 10
0.80182692668696
 20
-0.6056377606291781
 10
0.8019942937560662
 20
-0.6062058850678078
 10
0.8021365212449871
 20
-0.606781985291592
 10
0.8022537143353097
 20
-0.6073648618102239
 10
0.8023459782086144
 20
-0.6079533151333864
 10
0.8024134180464881
 20
-0.6085461457707658
 10
0.8024561390305158
 20
-0.6091421542320429
 10
0.8024742463422823
 20
-0.6097401410269065
 10
0.8024678451633716
 20
-0.6103389066650384
 10
0.8024370406753669
 20
-0.6109372516561239
 10
0.802381938059856
 20
-0.6115339765098512
 10
0.8023026424984201
 20
-0.612127881735899
 10
0.8021992591726459
 20
-0.6127177678439566
 10
0.8020718932641185
 20
-0.6133024353437077
 10
0.8019206499544225
 20
-0.6138806847448279
 10
0.8017456344251396
 20
-0.6144513165570219
 10
0.801546951857858
 20
-0.615013131289956
 10
0.8013247074341608
 20
-0.6155649294533245
 10
0.801079006335632
 20
-0.6161055115568105
 10
0.8008099537438566
 20
-0.6166336781100971
 10
0.8005176548404211
 20
-0.6171482296228599
 10
0.8002022148069067
 20
-0.6176479666048029
 10
0.7998637388249006
 20
-0.6181316895655964
 10
0.7995023320759879
 20
-0.6185981990149275
 10
0.7991180997417504
 20
-0.6190462954624876
 10
0.7987111470037753
 20
-0.6194747794179554
 10
0.7817666980730447
 20
-0.6364081259864095
 10
0.7660555956071472
 20
-0.6521192284523086
 10
0.7169333511884524
 20
-0.7012303311386441
 10
0.7012222487225538
 20
-0.7169414336045441
 10
0.6521444531230496
 20
-0.7660192292040449
 10
0.6364333506571516
 20
-0.7817303316699447
 10
0.6194777993641429
 20
-0.7986747806006746
 10
0.619050321750238
 20
-0.7990807267433508
 10
0.6186030999392929
 20
-0.7994640821732091
 10
0.6181373401059888
 20
-0.7998247327644542
 10
0.6176542484250045
 20
-0.8001625643913047
 10
0.6171550310710184
 20
-0.8004774629279788
 10
0.6166408942187055
 20
-0.8007693142486852
 10
0.6161130440427485
 20
-0.8010380042276412
 10
0.6155726867178206
 20
-0.8012834187390603
 10
0.6150210284186063
 20
-0.801505443657154
 10
0.6144592753197795
 20
-0.8017039648561434
 10
0.6138886335960206
 20
-0.8018788682102361
 10
0.6133103094220048
 20
-0.8020300395936492
 10
0.6127255089724158
 20
-0.802157364880596
 10
0.612135438421928
 20
-0.8022607299452947
 10
0.6115413039452231
 20
-0.8023400206619525
 10
0.6109443117169755
 20
-0.8023951229047883
 10
0.6103456679118646
 20
-0.8024259225480194
 10
0.6097465787045715
 20
-0.8024323054658524
 10
0.6091482502697717
 20
-0.8024141575325061
 10
0.6085518887821464
 20
-0.8023713646221938
 10
0.6079587004163709
 20
-0.8023038126091314
 10
0.6073698913471232
 20
-0.8022113873675325
 10
0.6067866677490859
 20
-0.8020939747716086
 10
0.6062102357969346
 20
-0.8019514606955781
 10
0.6056418016653463
 20
-0.8017837310136511
 10
0.6050825715290024
 20
-0.8015906716000468
 10
0.6045337515625776
 20
-0.8013721683289764
 10
0.6039965479407543
 20
-0.8011281070746535
 10
0.603472166838209
 20
-0.8008583737112953
 10
0.60296181442962
 20
-0.8005628541131112
 10
0.6024666968896651
 20
-0.8002414341543207
 10
0.5827222479404537
 20
-0.7866969852460295
 10
0.5822253408440049
 20
-0.7863558233738284
 10
0.5817096764653996
 20
-0.7860017493738219
 10
0.581176546028525
 20
-0.7856356561278469
 10
0.5806272407572577
 20
-0.7852584365177321
 10
0.5800630518754805
 20
-0.7848709834253152
 10
0.5794852706070692
 20
-0.7844741897324297
 10
0.5788951881759147
 20
-0.7840689483209049
 10
0.5782940958058915
 20
-0.7836561520725788
 10
0.5776832847208833
 20
-0.7832366938692789
 10
0.5770640461447714
 20
-0.7828114665928441
 10
0.5764376713014358
 20
-0.7823813631251054
 10
0.5758054514147581
 20
-0.7819472763478977
 10
0.5751686777086218
 20
-0.7815100991430506
 10
0.574528641406905
 20
-0.7810707243924
 10
0.5738866337334904
 20
-0.78063004497778
 10
0.5732439459122607
 20
-0.7801889537810205
 10
0.5726018691670948
 20
-0.7797483436839593
 10
0.571961694721876
 20
-0.7793091075684262
 10
0.5713247138004848
 20
-0.7788721383162541
 10
0.5706922176268016
 20
-0.7784383288092791
 10
0.570065497424708
 20
-0.7780085719293319
 10
0.5694458444180869
 20
-0.777583760558249
 10
0.5688345498308175
 20
-0.7771647875778593
 10
0.5682329048867838
 20
-0.776752545869999
 10
0.5676422008098639
 20
-0.776347928316503
 10
0.5670637288239401
 20
-0.7759518277992002
 10
0.5664987801528946
 20
-0.7755651371999273
 10
0.5659486460206099
 20
-0.775188749400514
 10
0.5654146176509633
 20
-0.7748235572827982
 10
0.5648979862678393
 20
-0.7744704537286106
 10
0.5644000430951183
 20
-0.7741303316197831
 10
0.4071555932384064
 20
-0.6662192285453638
 10
0.4066581020451877
 20
-0.6658947133194573
 10
0.4061407077526338
 20
-0.6655900138441818
 10
0.4056047351491709
 20
-0.66530517488021
 10
0.4050515090232189
 20
-0.6650402411881848
 10
0.4044823541632036
 20
-0.6647952575287608
 10
0.4038985953575444
 20
-0.6645702686625927
 10
0.4033015573946698
 20
-0.664365319350337
 10
0.4026925650629984
 20
-0.6641804543526388
 10
0.4020729431509556
 20
-0.6640157184301335
 10
0.4014440164469642
 20
-0.6638711563434961
 10
0.4008071097394465
 20
-0.6637468128533787
 10
0.4001635478168268
 20
-0.6636427327204225
 10
0.3995146554675265
 20
-0.6635589607052906
 10
0.3988617574799711
 20
-0.6634955415686157
 10
0.3982061786425821
 20
-0.663452520071062
 10
0.3975492437437848
 20
-0.6634299409732725
 10
0.396892277571998
 20
-0.6634278490359138
 10
0.3962366049156479
 20
-0.6634462890196198
 10
0.3955835505631601
 20
-0.6634853056850655
 10
0.3949344393029519
 20
-0.6635449437928788
 10
0.3942905959234498
 20
-0.6636252481037268
 10
0.3936533452130785
 20
-0.6637262633782625
 10
0.3930240119602575
 20
-0.6638480343771217
 10
0.3924039209534132
 20
-0.6639906058609617
 10
0.3917943969809682
 20
-0.664154022590451
 10
0.3911967648313417
 20
-0.6643383293262153
 10
0.3906123492929624
 20
-0.6645435708289257
 10
0.3900424751542498
 20
-0.6647697918592373
 10
0.3894884672036282
 20
-0.6650170371777862
 10
0.3889516502295209
 20
-0.6652853515452251
 10
0.388433349020351
 20
-0.6655747797222168
 10
0.3557888999860011
 20
-0.6839525751190981
 10
0.3552578464314715
 20
-0.6842364608371321
 10
0.3547064667200671
 20
-0.6845306451287341
 10
0.3541361482971954
 20
-0.6848343962266241
 10
0.3535482786082643
 20
-0.6851469823635382
 10
0.3529442450986758
 20
-0.6854676717721951
 10
0.3523254352138394
 20
-0.6857957326853209
 10
0.3516932363991619
 20
-0.6861304333356394
 10
0.351049036100047
 20
-0.6864710419558814
 10
0.3503942217619046
 20
-0.6868168267787639
 10
0.3497301808301369
 20
-0.687167056037018
 10
0.3490583007501513
 20
-0.6875209979633673
 10
0.3483799689673566
 20
-0.6878779207905363
 10
0.3476965729271573
 20
-0.6882370927512508
 10
0.3470095000749595
 20
-0.6885977820782353
 10
0.3463201378561705
 20
-0.6889592570042169
 10
0.3456298737161955
 20
-0.6893207857619175
 10
0.3449400951004414
 20
-0.6896816365840643
 10
0.3442521894543146
 20
-0.690041077703385
 10
0.3435675442232217
 20
-0.6903983773525996
 10
0.3428875468525683
 20
-0.6907528037644358
 10
0.3422135847877613
 20
-0.6911036251716214
 10
0.3415470454742067
 20
-0.6914501098068785
 10
0.3408893163573092
 20
-0.6917915259029325
 10
0.3402417848824784
 20
-0.692127141692505
 10
0.3396058384951202
 20
-0.6924562254083304
 10
0.3389828646406386
 20
-0.6927780452831246
 10
0.3383742507644398
 20
-0.6930918695496182
 10
0.3377813843119328
 20
-0.6933969664405375
 10
0.3372056527285222
 20
-0.6936926041886021
 10
0.3366484434596142
 20
-0.6939780510265422
 10
0.3361111439506159
 20
-0.6942525751870778
 10
0.3023000413652577
 20
-0.7115636776635363
 10
0.3017694363859349
 20
-0.7118165636871709
 10
0.3012342016090192
 20
-0.7120378362496764
 10
0.3006953261378679
 20
-0.7122278623566842
 10
0.3001537990758394
 20
-0.7123870090138232
 10
0.2996106095262929
 20
-0.712515643226716
 10
0.2990667465925833
 20
-0.712614132000995
 10
0.2985231993780729
 20
-0.7126828423422797
 10
0.2979809569861169
 20
-0.7127221412562037
 10
0.2974410085200756
 20
-0.7127323957483952
 10
0.296904343083308
 20
-0.7127139728244758
 10
0.2963719497791678
 20
-0.7126672394900775
 10
0.2958448177110192
 20
-0.7125925627508235
 10
0.2953239359822183
 20
-0.7124903096123446
 10
0.2948102936961214
 20
-0.7123608470802645
 10
0.2943048799560902
 20
-0.7122045421602139
 10
0.2938086838654795
 20
-0.712021761857817
 10
0.2933226945276509
 20
-0.7118128731787017
 10
0.2928479010459599
 20
-0.7115782431284976
 10
0.2923852925237672
 20
-0.7113182387128295
 10
0.2919358580644293
 20
-0.711033226937324
 10
0.2915005867713047
 20
-0.7107235748076091
 10
0.2910804677477519
 20
-0.7103896493293124
 10
0.2906764900971323
 20
-0.710031817508062
 10
0.2902896429227984
 20
-0.7096504463494823
 10
0.2899209153281121
 20
-0.7092459028592043
 10
0.2895712964164325
 20
-0.7088185540428508
 10
0.2892417752911159
 20
-0.7083687669060522
 10
0.2889333410555199
 20
-0.7078969084544342
 10
0.2886469828130059
 20
-0.7074033456936245
 10
0.2883836896669295
 20
-0.7068884456292492
 10
0.2881444507206497
 20
-0.7063525752669388
 10
0.273633348262671
 20
-0.671252575035278
 10
0.2734019521437831
 20
-0.6706953414394119
 10
0.2731619249104897
 20
-0.6701170813589014
 10
0.2729138618120614
 20
-0.6695192448961266
 10
0.2726583580977645
 20
-0.6689032821534887
 10
0.2723960090168711
 20
-0.6682706432333675
 10
0.2721274098186497
 20
-0.6676227782381597
 10
0.2718531557523692
 20
-0.6669611372702515
 10
0.271573842067298
 20
-0.6662871704320329
 10
0.2712900640127081
 20
-0.6656023278258878
 10
0.2710024168378679
 20
-0.6649080595542157
 10
0.2707114957920434
 20
-0.664205815719404
 10
0.2704178961245104
 20
-0.6634970464238373
 10
0.2701222130845331
 20
-0.6627832017699061
 10
0.2698250419213817
 20
-0.6620657318599957
 10
0.2695269778843275
 20
-0.6613460867965143
 10
0.2692286162226381
 20
-0.6606257166818282
 10
0.2689305521855833
 20
-0.6599060716183457
 10
0.2686333810224324
 20
-0.6591886017084454
 10
0.2683376979824554
 20
-0.6584747570544958
 10
0.268044098314921
 20
-0.6577659877589314
 10
0.2677531772690974
 20
-0.657063743924124
 10
0.2674655300942564
 20
-0.6563694756524873
 10
0.2671817520396667
 20
-0.655684633046311
 10
0.266902438354596
 20
-0.6550106662080932
 10
0.2666281842883156
 20
-0.6543490252401837
 10
0.2663595850900939
 20
-0.6537011602449746
 10
0.2660972360091999
 20
-0.6530685213248583
 10
0.2658417322949042
 20
-0.6524525585822151
 10
0.2655936691964756
 20
-0.6518547221194452
 10
0.2653536419631813
 20
-0.6512764620389329
 10
0.265122245844294
 20
-0.650719228443064
 10
0.1287111425817758
 20
-0.3210636750862368
 10
0.1284797463439481
 20
-0.3205074816264226
 10
0.1282397187696968
 20
-0.3199301946004538
 10
0.1279916551320793
 20
-0.3193332663467666
 10
0.1277361507041503
 20
-0.3187181492038048
 10
0.1274738007589689
 20
-0.3180862955100063
 10
0.1272052005695874
 20
-0.3174391576038108
 10
0.1269309454090705
 20
-0.3167781878236586
 10
0.1266516305504703
 20
-0.3161048385079887
 10
0.1263678512668461
 20
-0.3154205619952424
 10
0.1260802028312536
 20
-0.3147268106238562
 10
0.1257892805167491
 20
-0.3140250367322757
 10
0.1254956795963906
 20
-0.3133166926589359
 10
0.1251999953432388
 20
-0.3126032307422772
 10
0.1249028230303456
 20
-0.3118861033207397
 10
0.1246047579307701
 20
-0.3111667627327627
 10
0.1243063953175713
 20
-0.3104466613167876
 10
0.1240083304638022
 20
-0.3097272514112527
 10
0.1237111586425232
 20
-0.3090099853546004
 10
0.12341547512679
 20
-0.3082963154852664
 10
0.1231218751896609
 20
-0.3075876941416912
 10
0.1228309541041925
 20
-0.3068855736623172
 10
0.1225433071434409
 20
-0.3061914063855815
 10
0.1222595295804645
 20
-0.3055066446499252
 10
0.1219802166883201
 20
-0.3048327407937887
 10
0.1217059637400647
 20
-0.3041711471556109
 10
0.121437366008756
 20
-0.3035233160738308
 10
0.1211750187674487
 20
-0.3028906998868905
 10
0.120919517289203
 20
-0.3022747509332269
 10
0.1206714568470739
 20
-0.3016769215512803
 10
0.1204314327141198
 20
-0.3010986640794922
 10
0.120200040163398
 20
-0.3005414308563018
 10
0.1105444495484902
 20
-0.2771858795210529
 10
0.1103321813952363
 20
-0.2766349055259055
 10
0.1101488859594543
 20
-0.2760752109029788
 10
0.1099941917713467
 20
-0.2755079257378066
 10
0.10986772736111
 20
-0.274934180115925
 10
0.1097691212589491
 20
-0.2743551041228681
 10
0.1096980019950654
 20
-0.2737718278441738
 10
0.10965399809966
 20
-0.2731854813653734
 10
0.1096367381029348
 20
-0.2725971947720032
 10
0.1096458505350917
 20
-0.2720080981495995
 10
0.1096809639263304
 20
-0.271419321583695
 10
0.109741706806854
 20
-0.2708319951598296
 10
0.1098277077068625
 20
-0.2702472489635315
 10
0.1099385951565592
 20
-0.2696662130803422
 10
0.1100739976861461
 20
-0.2690900175957919
 10
0.1102335438258233
 20
-0.2685197925954184
 10
0.1104168621057934
 20
-0.2679566681647554
 10
0.1106235810562557
 20
-0.2674017743893392
 10
0.1108533292074133
 20
-0.2668562413547043
 10
0.1111057350894689
 20
-0.2663211991463849
 10
0.1113804272326231
 20
-0.2657977778499167
 10
0.1116770341670761
 20
-0.2652871075508351
 10
0.111995184423031
 20
-0.264790318334676
 10
0.1123345065306881
 20
-0.2643085402869724
 10
0.1126946290202511
 20
-0.2638429034932606
 10
0.1130751804219198
 20
-0.2633945380390739
 10
0.1134757892658962
 20
-0.2629645740099498
 10
0.1138960840823818
 20
-0.2625541414914229
 10
0.1143356934015767
 20
-0.2621643705690282
 10
0.1147942457536856
 20
-0.2617963913282988
 10
0.1152713696689075
 20
-0.2614513338547731
 10
0.1157666936774456
 20
-0.2611303282339836
 10
0.1373222450008135
 20
-0.2479414305091408
 10
0.1377115797097108
 20
-0.2477015800401159
 10
0.1381093373821067
 20
-0.2474511289007864
 10
0.1385149921338681
 20
-0.2471905067616926
 10
0.1389280180808544
 20
-0.2469201432933759
 10
0.1393478893389367
 20
-0.2466404681663726
 10
0.1397740800239738
 20
-0.2463519110512251
 10
0.1402060642518348
 20
-0.2460549016184717
 10
0.1406433161383824
 20
-0.2457498695386519
 10
0.1410853097994814
 20
-0.2454372444823062
 10
0.1415315193509953
 20
-0.2451174561199719
 10
0.1419814189087875
 20
-0.244790934122194
 10
0.1424344825887272
 20
-0.244458108159507
 10
0.142890184506677
 20
-0.2441194079024517
 10
0.1433479987785005
 20
-0.2437752630215685
 10
0.1438073995200636
 20
-0.2434261031873953
 10
0.1442678608472305
 20
-0.2430723580704729
 10
0.1447288568758655
 20
-0.2427144573413419
 10
0.1451898617218334
 20
-0.2423528306705418
 10
0.1456503495009993
 20
-0.2419879077286088
 10
0.1461097943292288
 20
-0.2416201181860858
 10
0.1465676703223815
 20
-0.2412498917135127
 10
0.1470234515963275
 20
-0.2408776579814282
 10
0.1474766122669315
 20
-0.2405038466603699
 10
0.1479266264500543
 20
-0.2401288874208791
 10
0.1483729682615639
 20
-0.2397532099334958
 10
0.1488151118173232
 20
-0.2393772438687602
 10
0.1492525312331955
 20
-0.2390014188972116
 10
0.1496847006250482
 20
-0.2386261646893873
 10
0.1501110941087459
 20
-0.2382519109158287
 10
0.1505311858001516
 20
-0.2378790872470756
 10
0.1509444498151293
 20
-0.2375081233536671
 10
0.1583876513582844
 20
-0.232572129343889
 10
0.1656622289804562
 20
-0.2274083955961712
 10
0.1727630692945702
 20
-0.2220219952248943
 10
0.1796850589135474
 20
-0.2164180013444482
 10
0.186423084450315
 20
-0.2106014870692097
 10
0.1929720325177902
 20
-0.2045775255135689
 10
0.1993267897289036
 20
-0.1983511897919064
 10
0.2054822426965749
 20
-0.1919275530186048
 10
0.211433278033728
 20
-0.1853116883080476
 10
0.2171747823532896
 20
-0.1785086687746229
 10
0.2227016422681788
 20
-0.1715235675327104
 10
0.2280087443913232
 20
-0.1643614576966947
 10
0.2330909753356426
 20
-0.1570274123809594
 10
0.2379432217140647
 20
-0.1495265046998884
 10
0.2425603701395122
 20
-0.141863807767865
 10
0.2469373072249068
 20
-0.1340443946992721
 10
0.2510689195831731
 20
-0.126073338608494
 10
0.2549500938272337
 20
-0.1179557126099162
 10
0.2585757165700168
 20
-0.1096965898179208
 10
0.2619406744244407
 20
-0.1013010433468891
 10
0.2650398540034308
 20
-0.0927741463112105
 10
0.2678681419199114
 20
-0.0841209718252633
 10
0.2704204247868066
 20
-0.0753465930034337
 10
0.2726915892170376
 20
-0.0664560829601047
 10
0.2746765218235316
 20
-0.0574545148096602
 10
0.2763701092192099
 20
-0.0483469616664829
 10
0.2777672380169972
 20
-0.0391384966449591
 10
0.2788627948298148
 20
-0.0298341928594686
 10
0.2796516662705909
 20
-0.0204391234243991
 10
0.2801287389522452
 20
-0.0109583614541311
 10
0.2802888994877012
 20
-0.0013969800630504
 10
0.2799003836582087
 20
0.0134889347779847
 10
0.2787477513212264
 20
0.0281724751199662
 10
0.2768503752039938
 20
0.0426342704717102
 10
0.2742276280337501
 20
0.0568549503420246
 10
0.2708988825377331
 20
0.0708151442397229
 10
0.2668835114431831
 20
0.0844954816736116
 10
0.2622008874773445
 20
0.0978765921525035
 10
0.2568703833674482
 20
0.110939105185208
 10
0.2509113718407427
 20
0.1236636502805395
 10
0.2443432256244619
 20
0.1360308569473049
 10
0.2371853174458465
 20
0.1480213546943145
 10
0.2294570200321368
 20
0.1596157730303819
 10
0.2211777061105717
 20
0.1707947414643169
 10
0.2123667484083926
 20
0.1815388895049292
 10
0.2030435196528362
 20
0.1918288466610289
 10
0.1932273925711444
 20
0.2016452424414283
 10
0.1829377398905561
 20
0.2109687063549382
 10
0.17219393433831
 20
0.2197798679103682
 10
0.1610153486416462
 20
0.2280593566165287
 10
0.1494213555278075
 20
0.2357878019822319
 10
0.1374313277240281
 20
0.2429458335162875
 10
0.1250646379575514
 20
0.2495140807275055
 10
0.1123406589556158
 20
0.2554731731246969
 10
0.0992787634454594
 20
0.2608037402166748
 10
0.0858983241543251
 20
0.2654864115122458
 10
0.0722187138094508
 20
0.2695018165202243
 10
0.0582593051380733
 20
0.2728305847494179
 10
0.0440394708674361
 20
0.2754533457086398
 10
0.0295785837247788
 20
0.2773507289066988
 10
0.0148960164373387
 20
0.2785033638524069
 10
0.0000111417323561
 20
0.2788918800545729
 10
-0.0148747732289383
 20
0.2785033638524047
 10
-0.0295583139211315
 20
0.2773507289066965
 10
-0.0440201098371726
 20
0.2754533457086387
 10
-0.0582407904700185
 20
0.2728305847494179
 10
-0.0722009853126173
 20
0.2695018165202243
 10
-0.0858813238579252
 20
0.2654864115122469
 10
-0.0992624355988892
 20
0.2608037402166748
 10
-0.1123249500284662
 20
0.255473173124698
 10
-0.1250494966396042
 20
0.2495140807275066
 10
-0.1374167049252589
 20
0.2429458335162886
 10
-0.1494072043783824
 20
0.2357878019822319
 10
-0.161001624491924
 20
0.2280593566165287
 10
-0.1721805947588394
 20
0.2197798679103694
 10
-0.1829247446720773
 20
0.2109687063549382
 10
-0.1932147037245914
 20
0.2016452424414289
 10
-0.2030311014093344
 20
0.1918288466610291
 10
-0.2123545672192571
 20
0.1815388895049292
 10
-0.221165730647313
 20
0.1707947414643172
 10
-0.2294452211864536
 20
0.1596157730303825
 10
-0.2371736683296315
 20
0.1480213546943159
 10
-0.2443317015698001
 20
0.136030856947304
 10
-0.2508999503999072
 20
0.1236636502805392
 10
-0.2568590443129086
 20
0.1109391051852094
 10
-0.2621896128017557
 20
0.0978765921525018
 10
-0.2668722853594006
 20
0.0844954816736113
 10
-0.2708876914787957
 20
0.0708151442397229
 10
-0.274216460652892
 20
0.0568549503420263
 10
-0.276839222374644
 20
0.0426342704717121
 10
-0.2787366061370017
 20
0.0281724751199676
 10
-0.2798892414329179
 20
0.0134889347779849
 10
-0.2802777577553456
 20
-0.0013969800630501
 10
-0.2801175631875216
 20
-0.0109583614541314
 10
-0.2796403914060217
 20
-0.0204391234243991
 10
-0.2788513602938131
 20
-0.0298341928594697
 10
-0.2777555877338606
 20
-0.0391384966449586
 10
-0.2763581916091272
 20
-0.0483469616664829
 10
-0.2746642898025786
 20
-0.0574545148096607
 10
-0.2726790001971791
 20
-0.0664560829601044
 10
-0.2704074406758949
 20
-0.0753465930034334
 10
-0.2678547291216877
 20
-0.0841209718252619
 10
-0.2650259834175233
 20
-0.0927741463112082
 10
-0.2619263214463687
 20
-0.10130104334689
 10
-0.2585608610911877
 20
-0.1096965898179191
 10
-0.2549347202349413
 20
-0.1179557126099151
 10
-0.2510530167605987
 20
-0.126073338608494
 10
-0.2469208685511219
 20
-0.1340443946992718
 10
-0.2425433934894757
 20
-0.1418638077678633
 10
-0.2379257094586266
 20
-0.1495265046998878
 10
-0.2330729343415365
 20
-0.1570274123809594
 10
-0.2279901860211722
 20
-0.1643614576966944
 10
-0.2226825823804972
 20
-0.1715235675327101
 10
-0.2171552413024785
 20
-0.1785086687746232
 10
-0.2114132806700768
 20
-0.1853116883080498
 10
-0.2054618183662605
 20
-0.1919275530186045
 10
-0.1993059722739913
 20
-0.1983511897919058
 10
-0.1929508602762355
 20
-0.2045775255135686
 10
-0.1864016002559572
 20
-0.2106014870692097
 10
-0.1796633100961221
 20
-0.2164180013444476
 10
-0.1727411076796934
 20
-0.222021995224894
 10
-0.165640110889637
 20
-0.2274083955961686
 10
-0.1583654376089162
 20
-0.2325721293438879
 10
-0.150922205720497
 20
-0.2375081233536668
 10
-0.1505099781544657
 20
-0.2378790872470764
 10
-0.1500908560763068
 20
-0.2382519109158281
 10
-0.1496653676062052
 20
-0.2386261646893859
 10
-0.1492340408643469
 20
-0.2390014188972105
 10
-0.1487974039709165
 20
-0.2393772438687591
 10
-0.1483559850461029
 20
-0.2397532099334981
 10
-0.1479103122100878
 20
-0.2401288874208791
 10
-0.1474609135830594
 20
-0.2405038466603696
 10
-0.147008317285202
 20
-0.2408776579814269
 10
-0.1465530514367019
 20
-0.2412498917135115
 10
-0.1460956441577457
 20
-0.2416201181860866
 10
-0.1456366235685175
 20
-0.2419879077286094
 10
-0.1451765177892014
 20
-0.2423528306705404
 10
-0.1447158549399871
 20
-0.2427144573413428
 10
-0.1442551631410569
 20
-0.2430723580704737
 10
-0.1437949705125974
 20
-0.2434261031873939
 10
-0.1433358051747953
 20
-0.2437752630215673
 10
-0.1428781952478357
 20
-0.2441194079024525
 10
-0.1424226688519033
 20
-0.2444581081595067
 10
-0.1419697541071842
 20
-0.244790934122194
 10
-0.1415199791338648
 20
-0.2451174561199738
 10
-0.1410738720521298
 20
-0.245437244482307
 10
-0.1406319609821649
 20
-0.2457498695386519
 10
-0.1401947740441561
 20
-0.2460549016184714
 10
-0.13976283935829
 20
-0.246351911051224
 10
-0.1393366850447496
 20
-0.2466404681663715
 10
-0.1389168392237243
 20
-0.2469201432933745
 10
-0.1385038300153958
 20
-0.2471905067616915
 10
-0.1380981855399514
 20
-0.247451128900785
 10
-0.1377004339175785
 20
-0.2477015800401145
 10
-0.1373111032684589
 20
-0.2479414305091408
 10
-0.115766654307369
 20
-0.2611303282339833
 10
-0.115271329807217
 20
-0.2614513338547728
 10
-0.1147942029423131
 20
-0.2617963913283007
 10
-0.1143356429701884
 20
-0.2621643705690279
 10
-0.1138960191483842
 20
-0.262554141491424
 10
-0.1134757007344306
 20
-0.2629645740099498
 10
-0.1130750569858688
 20
-0.263394538039075
 10
-0.1126944571602314
 20
-0.2638429034932592
 10
-0.1123342705150567
 20
-0.2643085402869721
 10
-0.1119948663078781
 20
-0.2647903183346746
 10
-0.1116766137962335
 20
-0.265287107550834
 10
-0.1113798822376605
 20
-0.2657977778499167
 10
-0.1111050408896904
 20
-0.2663211991463835
 10
-0.1108524590098643
 20
-0.2668562413547029
 10
-0.1106225058557131
 20
-0.2674017743893392
 10
-0.1104155506847769
 20
-0.2679566681647552
 10
-0.1102319627545885
 20
-0.2685197925954173
 10
-0.110072111322686
 20
-0.2690900175957919
 10
-0.1099363656466057
 20
-0.2696662130803419
 10
-0.1098250949838805
 20
-0.2702472489635315
 10
-0.109738668592049
 20
-0.2708319951598283
 10
-0.1096774557286483
 20
-0.2714193215836972
 10
-0.1096418256512112
 20
-0.2720080981495993
 10
-0.1096321476172753
 20
-0.272597194772004
 10
-0.1096487908843749
 20
-0.2731854813653734
 10
-0.1096921247100487
 20
-0.2737718278441738
 10
-0.109762518351831
 20
-0.2743551041228681
 10
-0.1098603410672586
 20
-0.274934180115925
 10
-0.1099859621138668
 20
-0.2755079257378064
 10
-0.1101397507491908
 20
-0.2760752109029785
 10
-0.1103220762307682
 20
-0.2766349055259055
 10
-0.1105333078161348
 20
-0.2771858795210527
 10
-0.1201999614232427
 20
-0.3005414308563018
 10
-0.1204303171523431
 20
-0.3010986640794933
 10
-0.1206693690633251
 20
-0.3016769215512826
 10
-0.1209165174110314
 20
-0.3022747509332269
 10
-0.1211711624503068
 20
-0.3028906998868905
 10
-0.1214327044359897
 20
-0.3035233160738319
 10
-0.1217005436229272
 20
-0.3041711471556117
 10
-0.1219740802659568
 20
-0.3048327407937896
 10
-0.1222527146199248
 20
-0.3055066446499263
 10
-0.1225358469396708
 20
-0.3061914063855815
 10
-0.1228228774800372
 20
-0.3068855736623158
 10
-0.1231132064958701
 20
-0.3075876941416912
 10
-0.1234062342420065
 20
-0.3082963154852661
 10
-0.1237013609732923
 20
-0.3090099853545991
 10
-0.1239979869445692
 20
-0.3097272514112542
 10
-0.1242955124106778
 20
-0.3104466613167887
 10
-0.1245933376264622
 20
-0.3111667627327636
 10
-0.1248908628467647
 20
-0.3118861033207383
 10
-0.1251874883264278
 20
-0.3126032307422767
 10
-0.1254826143202921
 20
-0.3133166926589347
 10
-0.1257756410832011
 20
-0.3140250367322757
 10
-0.1260659688699981
 20
-0.3147268106238584
 10
-0.1263529979355239
 20
-0.3154205619952424
 10
-0.1266361285346202
 20
-0.3161048385079895
 10
-0.1269147609221332
 20
-0.3167781878236584
 10
-0.1271882953529008
 20
-0.3174391576038108
 10
-0.1274561320817667
 20
-0.3180862955100052
 10
-0.1277176713635762
 20
-0.3187181492038045
 10
-0.1279723134531663
 20
-0.3193332663467663
 10
-0.1282194586053826
 20
-0.3199301946004512
 10
-0.1284585070750682
 20
-0.3205074816264223
 10
-0.1286888591170635
 20
-0.3210636750862368
 10
-0.2651111041119386
 20
-0.6507192284430651
 10
-0.2653424998581519
 20
-0.6512764620389312
 10
-0.2655825244827201
 20
-0.6518547221194463
 10
-0.2658305805003214
 20
-0.6524525585822154
 10
-0.2660860704256435
 20
-0.6530685213248572
 10
-0.2663483967733586
 20
-0.6537011602449754
 10
-0.2666169620581532
 20
-0.6543490252401861
 10
-0.2668911687947023
 20
-0.6550106662080927
 10
-0.267170419497689
 20
-0.6556846330463139
 10
-0.2674541166817935
 20
-0.6563694756524525
 10
-0.2677416628616971
 20
-0.657063743924124
 10
-0.2680324605520807
 20
-0.6577659877589402
 10
-0.2683259122676223
 20
-0.6584747570545085
 10
-0.2686214205230025
 20
-0.6591886017084375
 10
-0.2689183878329029
 20
-0.6599060716183424
 10
-0.2692162167120045
 20
-0.6606257166818305
 10
-0.2695143096749875
 20
-0.6613460867965126
 10
-0.26981206923653
 20
-0.6620657318600005
 10
-0.2701088979113138
 20
-0.6627832017699056
 10
-0.2704041982140193
 20
-0.6634970464238353
 10
-0.2706973726593266
 20
-0.6642058157194028
 10
-0.2709878237619179
 20
-0.6649080595542179
 10
-0.2712749540364702
 20
-0.6656023278258895
 10
-0.2715581659976665
 20
-0.6662871704320293
 10
-0.2718368621601865
 20
-0.6669611372702493
 10
-0.2721104450387114
 20
-0.6676227782381581
 10
-0.2723783171479192
 20
-0.6682706432333664
 10
-0.2726398810024924
 20
-0.668903282153487
 10
-0.2728945391171104
 20
-0.6695192448961266
 10
-0.2731416940064537
 20
-0.670117081358898
 10
-0.2733807481852036
 20
-0.6706953414394119
 10
-0.2736111041680394
 20
-0.671252575035278
 10
-0.2881333089882954
 20
-0.7063525752669388
 10
-0.2883725479332552
 20
-0.7068884456292509
 10
-0.2886358410700804
 20
-0.7074033456936263
 10
-0.288922199287484
 20
-0.7078969084544348
 10
-0.2892306334741828
 20
-0.7083687669060519
 10
-0.2895601545188857
 20
-0.7088185540428508
 10
-0.2899097733103057
 20
-0.7092459028592049
 10
-0.2902785007371553
 20
-0.7096504463494845
 10
-0.2906653476881478
 20
-0.7100318175080631
 10
-0.291069325051994
 20
-0.7103896493293118
 10
-0.2914894437174073
 20
-0.7107235748076082
 10
-0.2919247145731019
 20
-0.7110332269373242
 10
-0.2923741485077884
 20
-0.711318238712829
 10
-0.2928367564101773
 20
-0.7115782431284984
 10
-0.2933115491689822
 20
-0.7118128731787026
 10
-0.2937975376729192
 20
-0.712021761857817
 10
-0.2942937328106955
 20
-0.7122045421602139
 10
-0.2947991454710278
 20
-0.7123608470802656
 10
-0.2953127865426273
 20
-0.7124903096123433
 10
-0.295833666914204
 20
-0.7125925627508235
 10
-0.2963607974744721
 20
-0.7126672394900764
 10
-0.296893189112146
 20
-0.7127139728244763
 10
-0.2974298527159354
 20
-0.7127323957483946
 10
-0.2979697991745525
 20
-0.7127221412562057
 10
-0.298512039376712
 20
-0.7126828423422806
 10
-0.2990555842111243
 20
-0.7126141320009927
 10
-0.2995994445665027
 20
-0.7125156432267155
 10
-0.3001426313315612
 20
-0.7123870090138232
 10
-0.3006841553950096
 20
-0.712227862356685
 10
-0.3012230276455597
 20
-0.7120378362496764
 10
-0.3017582589719285
 20
-0.7118165636871696
 10
-0.3022888602628246
 20
-0.7115636776635369
 10
-0.3360888604859045
 20
-0.6942525751870784
 10
-0.3366272001322781
 20
-0.6939780510265415
 10
-0.3371853824649796
 20
-0.6936926041886027
 10
-0.3377620222825847
 20
-0.6933969664405369
 10
-0.3383557343836677
 20
-0.6930918695496188
 10
-0.3389651335667981
 20
-0.6927780452831246
 10
-0.3395888346305549
 20
-0.6924562254083286
 10
-0.3402254523735067
 20
-0.6921271416925052
 10
-0.3408736015942279
 20
-0.6917915259029297
 10
-0.3415318970912931
 20
-0.6914501098068763
 10
-0.3421989536632745
 20
-0.6911036251716192
 10
-0.3428733861087439
 20
-0.6907528037644362
 10
-0.3435538092262777
 20
-0.690398377352599
 10
-0.3442388378144451
 20
-0.6900410777033844
 10
-0.3449270866718233
 20
-0.6896816365840643
 10
-0.345617170596982
 20
-0.6893207857619175
 10
-0.3463077043884968
 20
-0.6889592570042158
 10
-0.3469973028449393
 20
-0.6885977820782347
 10
-0.3476845807648865
 20
-0.6882370927512508
 10
-0.3483681529469065
 20
-0.6878779207905349
 10
-0.3490466341895733
 20
-0.6875209979633665
 10
-0.3497186392914641
 20
-0.6871670560370186
 10
-0.350382783051148
 20
-0.6868168267787644
 10
-0.3510376802672009
 20
-0.6864710419558795
 10
-0.3516819457381943
 20
-0.6861304333356399
 10
-0.3523141942627014
 20
-0.68579573268532
 10
-0.352933040639296
 20
-0.685467671772194
 10
-0.3535370996665524
 20
-0.6851469823635377
 10
-0.3541249861430416
 20
-0.6848343962266252
 10
-0.3546953148673379
 20
-0.6845306451287313
 10
-0.3552467006380152
 20
-0.6842364608371299
 10
-0.3557777582536454
 20
-0.6839525751190987
 10
-0.3884111049257196
 20
-0.665574779722214
 10
-0.3889304462696202
 20
-0.6652853515452251
 10
-0.3894682362890205
 20
-0.6650170371777834
 10
-0.3900231524236175
 20
-0.6647697918592365
 10
-0.3905938721131111
 20
-0.6645435708289321
 10
-0.3911790727971973
 20
-0.6643383293262195
 10
-0.3917774319155763
 20
-0.6641540225904499
 10
-0.3923876269079425
 20
-0.6639906058609641
 10
-0.3930083352139974
 20
-0.6638480343771189
 10
-0.3936382342734357
 20
-0.6637262633782569
 10
-0.3942760015259561
 20
-0.6636252481037274
 10
-0.3949203144112603
 20
-0.6635449437928815
 10
-0.395569850369042
 20
-0.6634853056850638
 10
-0.3962232868389993
 20
-0.6634462890196231
 10
-0.3968793012608314
 20
-0.6634278490359116
 10
-0.3975365710742356
 20
-0.6634299409732719
 10
-0.3981937737189103
 20
-0.663452520071053
 10
-0.3988495866345532
 20
-0.6634955415686101
 10
-0.3995026872608604
 20
-0.6635589607052845
 10
-0.4001517530375325
 20
-0.6636427327204264
 10
-0.4007954614042645
 20
-0.6637468128533829
 10
-0.4014324898007567
 20
-0.6638711563435048
 10
-0.402061515666706
 20
-0.6640157184301385
 10
-0.4026812164418114
 20
-0.664180454352633
 10
-0.4032902695657688
 20
-0.6643653193503382
 10
-0.4038873524782766
 20
-0.6645702686625964
 10
-0.4044711426190322
 20
-0.6647952575287626
 10
-0.4050403174277367
 20
-0.6650402411881828
 10
-0.4055935543440847
 20
-0.6653051748802049
 10
-0.4061295308077747
 20
-0.6655900138441768
 10
-0.4066469242585048
 20
-0.6658947133194473
 10
-0.4071444121359739
 20
-0.6662192285453649
 10
-0.564388861992685
 20
-0.7741303316197836
 10
-0.5648858026312102
 20
-0.7744704537286106
 10
-0.5654015631692261
 20
-0.7748235572827995
 10
-0.565934845682629
 20
-0.7751887494005145
 10
-0.5664843522473187
 20
-0.7755651371999265
 10
-0.5670487849391903
 20
-0.7759518277991995
 10
-0.5676268458341435
 20
-0.7763479283165036
 10
-0.5682172370080727
 20
-0.7767525458699999
 10
-0.5688186605368769
 20
-0.7771647875778582
 10
-0.5694298184964508
 20
-0.7775837605582473
 10
-0.5700494129626951
 20
-0.7780085719293311
 10
-0.570676146011506
 20
-0.778438328809278
 10
-0.5713087197187779
 20
-0.7788721383162533
 10
-0.5719458361604112
 20
-0.779309107568424
 10
-0.5725861974123
 20
-0.7797483436839578
 10
-0.5732285055503432
 20
-0.7801889537810218
 10
-0.5738714626504386
 20
-0.7806300449777794
 10
-0.5745137707884848
 20
-0.7810707243924
 10
-0.575154132040373
 20
-0.7815100991430506
 10
-0.5757912484820059
 20
-0.7819472763478961
 10
-0.5764238221892785
 20
-0.7823813631251054
 10
-0.5770505552380882
 20
-0.7828114665928457
 10
-0.5776701497043319
 20
-0.7832366938692794
 10
-0.578281307663907
 20
-0.7836561520725781
 10
-0.5788827311927121
 20
-0.7840689483209038
 10
-0.5794731223666422
 20
-0.784474189732428
 10
-0.5800511832615924
 20
-0.7848709834253147
 10
-0.5806156159534657
 20
-0.7852584365177315
 10
-0.581165122518156
 20
-0.7856356561278438
 10
-0.5816984050315598
 20
-0.7860017493738197
 10
-0.5822141655695764
 20
-0.7863558233738267
 10
-0.5827111062081
 20
-0.7866969852460297
 10
-0.6024666575195892
 20
-0.800241434154321
 10
-0.6029617714913776
 20
-0.8005628541131127
 10
-0.6034721207996294
 20
-0.8008583737112936
 10
-0.6039964992458736
 20
-0.8011281070746539
 10
-0.6045337006316458
 20
-0.8013721683289772
 10
-0.6050825187584818
 20
-0.8015906716000465
 10
-0.6056417474279137
 20
-0.8017837310136513
 10
-0.6062101804414755
 20
-0.8019514606955787
 10
-0.6067866116007048
 20
-0.8020939747716077
 10
-0.6073698347071279
 20
-0.8022113873675295
 10
-0.6079586435622821
 20
-0.8023038126091291
 10
-0.6085518319677067
 20
-0.8023713646221936
 10
-0.6091481937249279
 20
-0.8024141575325044
 10
-0.6097465226354828
 20
-0.8024323054658519
 10
-0.610345612500904
 20
-0.8024259225480177
 10
-0.6109442571227285
 20
-0.8023951229047881
 10
-0.6115412503024849
 20
-0.8023400206619534
 10
-0.6121353858417123
 20
-0.8022607299452925
 10
-0.6127254575419406
 20
-0.8021573648805985
 10
-0.6133102592047083
 20
-0.8020300395936492
 10
-0.6138885846315428
 20
-0.8018788682102356
 10
-0.6144592276239846
 20
-0.8017039648561423
 10
-0.6150209819835627
 20
-0.8015054436571546
 10
-0.6155726415118122
 20
-0.8012834187390594
 10
-0.616113000010268
 20
-0.8010380042276397
 10
-0.6166408512804634
 20
-0.8007693142486841
 10
-0.6171549891239323
 20
-0.8004774629279769
 10
-0.6176542073422102
 20
-0.8001625643913047
 10
-0.6181372997368281
 20
-0.7998247327644528
 10
-0.6186030601093198
 20
-0.7994640821732062
 10
-0.6190502822612209
 20
-0.7990807267433514
 10
-0.6194777599940661
 20
-0.7986747806006739
 10
-0.6364111065625202
 20
-0.7817303316699429
 10
-0.6521222090284177
 20
-0.7660192292040443
 10
-0.7012111069902001
 20
-0.7169303312422625
 10
-0.7169222094560982
 20
-0.7012192287763653
 10
-0.7660444145047142
 20
-0.6521192284523024
 10
-0.7817555563406904
 20
-0.6364081259864066
 10
-0.7986999659013418
 20
-0.6194747794179539
 10
-0.7991069219550687
 20
-0.6190462954624882
 10
-0.799491155131129
 20
-0.6185981990149284
 10
-0.7998525580198148
 20
-0.6181316895655955
 10
-0.800191023211425
 20
-0.617647966604799
 10
-0.8005064432962506
 20
-0.6171482296228606
 10
-0.8007987108645883
 20
-0.6166336781100915
 10
-0.8010677185067303
 20
-0.6161055115568055
 10
-0.8013133588129734
 20
-0.6155649294533223
 10
-0.8015355243736076
 20
-0.6150131312899558
 10
-0.8017341077789318
 20
-0.6144513165570186
 10
-0.8019090016192401
 20
-0.6138806847448319
 10
-0.8020600984848253
 20
-0.6133024353437054
 10
-0.8021872909659807
 20
-0.6127177678439549
 10
-0.8022904716530033
 20
-0.6121278817358971
 10
-0.8023695331361844
 20
-0.6115339765098498
 10
-0.8024243680058203
 20
-0.6109372516561241
 10
-0.802454868852206
 20
-0.6103389066650377
 10
-0.8024609282656336
 20
-0.6097401410269062
 10
-0.8024424388363999
 20
-0.6091421542320418
 10
-0.8023992931547974
 20
-0.6085461457707642
 10
-0.8023313838111223
 20
-0.6079533151333861
 10
-0.8022386033956662
 20
-0.6073648618102213
 10
-0.8021208444987258
 20
-0.6067819852915903
 10
-0.8019779997105959
 20
-0.6062058850678042
 10
-0.8018099616215678
 20
-0.6056377606291786
 10
-0.8016166228219386
 20
-0.6050788114660305
 10
-0.8013978759020032
 20
-0.6045302370686755
 10
-0.801153613452053
 20
-0.6039932369274265
 10
-0.8008837280623839
 20
-0.6034690105326002
 10
-0.8005881123232915
 20
-0.6029587573745112
 10
-0.8002666588250682
 20
-0.6024636769434756
 10
-0.7867111075544999
 20
-0.5826969838996297
 10
-0.7863699451893618
 20
-0.5822000808629605
 10
-0.7860158682304214
 20
-0.5816844225343794
 10
-0.785649767339322
 20
-0.581151302373819
 10
-0.7852725331776998
 20
-0.580602013841212
 10
-0.7848850564072027
 20
-0.5800378503964861
 10
-0.7844882276894706
 20
-0.5794601054995782
 10
-0.7840829376861417
 20
-0.5788700726104136
 10
-0.7836700770588609
 20
-0.5782690451889304
 10
-0.7832505364692701
 20
-0.5776583166950543
 10
-0.7828252065790071
 20
-0.5770391805887202
 10
-0.7823949780497168
 20
-0.5764129303298606
 10
-0.7819607415430399
 20
-0.5757808593784054
 10
-0.7815233877206172
 20
-0.5751442611942842
 10
-0.7810838072440912
 20
-0.5745044292374318
 10
-0.7806428907751026
 20
-0.5738626569677779
 10
-0.7802015289752932
 20
-0.5732202378452562
 10
-0.7797606125063047
 20
-0.5725784653297956
 10
-0.7793210320297796
 20
-0.57193863288133
 10
-0.7788836782073559
 20
-0.5713020339597884
 10
-0.7784494417006788
 20
-0.5706699620251062
 10
-0.7780192131713887
 20
-0.5700437105372106
 10
-0.7775938832811267
 20
-0.5694245729560334
 10
-0.7771743426915346
 20
-0.5688138427415115
 10
-0.7767614820642539
 20
-0.5682128133535702
 10
-0.7763561920609263
 20
-0.5676227782521454
 10
-0.7759593633431918
 20
-0.5670450308971656
 10
-0.7755718865726958
 20
-0.5664808647485664
 10
-0.7751946524110758
 20
-0.5659315732662747
 10
-0.774828551519974
 20
-0.5653984499102219
 10
-0.7744744745610338
 20
-0.5648827881403449
 10
-0.7741333121958954
 20
-0.5643858814165715
 10
-0.6638222091056373
 20
-0.4036525732691185
 10
-0.663496627922046
 20
-0.403154497235102
 10
-0.6631887678729719
 20
-0.4026353678203975
 10
-0.662898729667901
 20
-0.4020965389138048
 10
-0.6626266140163178
 20
-0.4015393644041133
 10
-0.6623725216277024
 20
-0.4009651981801161
 10
-0.6621365532115457
 20
-0.4003753941306121
 10
-0.661918809477327
 20
-0.3997713061443918
 10
-0.6617193911345296
 20
-0.3991542881102472
 10
-0.6615383988926399
 20
-0.3985256939169737
 10
-0.6613759334611435
 20
-0.3978868774533655
 10
-0.6612320955495233
 20
-0.3972391926082181
 10
-0.6611069858672587
 20
-0.3965839932703201
 10
-0.6610007051238412
 20
-0.3959226333284709
 10
-0.6609133540287494
 20
-0.3952564666714595
 10
-0.66084503329147
 20
-0.3945868471880822
 10
-0.6607958436214851
 20
-0.3939151287671318
 10
-0.6607658857282814
 20
-0.3932426652974021
 10
-0.6607552603213417
 20
-0.3925708106676882
 10
-0.6607640681101493
 20
-0.3919009187667812
 10
-0.6607924098041886
 20
-0.3912343434834757
 10
-0.660840386112946
 20
-0.3905724387065687
 10
-0.6609080977459015
 20
-0.3899165583248486
 10
-0.6609956454125436
 20
-0.3892680562271132
 10
-0.661103129822352
 20
-0.388628286302153
 10
-0.6612306516848142
 20
-0.3879986024387652
 10
-0.6613783117094124
 20
-0.3873803585257406
 10
-0.6615462106056318
 20
-0.3867749084518754
 10
-0.6617344490829571
 20
-0.3861836061059625
 10
-0.6619431278508677
 20
-0.3856078053767918
 10
-0.6621723476188545
 20
-0.3850488601531637
 10
-0.6624222090963965
 20
-0.3845081243238658
 10
-0.7373999654967622
 20
-0.197185878993052
 10
-0.7375915436684669
 20
-0.1966219650265174
 10
-0.7378107655825724
 20
-0.196059845577548
 10
-0.7380566242155993
 20
-0.1955004135438382
 10
-0.7383281125440738
 20
-0.194944561823075
 10
-0.7386242235445135
 20
-0.1943931833129544
 10
-0.7389439501934435
 20
-0.1938471709111652
 10
-0.7392862854673875
 20
-0.1933074175153998
 10
-0.7396502223428676
 20
-0.1927748160233543
 10
-0.7400347537964018
 20
-0.1922502593327108
 10
-0.7404388728045189
 20
-0.1917346403411711
 10
-0.7408615723437385
 20
-0.1912288519464239
 10
-0.7413018453905822
 20
-0.1907337870461586
 10
-0.7417586849215734
 20
-0.1902503385380694
 10
-0.7422310839132367
 20
-0.1897793993198471
 10
-0.7427180353420915
 20
-0.1893218622891832
 10
-0.7432185321846603
 20
-0.188878620343769
 10
-0.7437315674174683
 20
-0.1884505663812989
 10
-0.7442561340170346
 20
-0.1880385932994608
 10
-0.7447912249598851
 20
-0.1876435939959501
 10
-0.7453358332225393
 20
-0.187266461368457
 10
-0.7458889517815219
 20
-0.1869080883146733
 10
-0.7464495736133555
 20
-0.1865693677322916
 10
-0.7470166916945592
 20
-0.1862511925190014
 10
-0.7475892990016598
 20
-0.1859544555724987
 10
-0.7481663885111771
 20
-0.1856800497904704
 10
-0.7487469531996334
 20
-0.1854288680706107
 10
-0.7493299860435538
 20
-0.1852018033106128
 10
-0.7499144800194587
 20
-0.1849997484081674
 10
-0.7504994281038712
 20
-0.1848235962609635
 10
-0.7510838232733135
 20
-0.1846742397666973
 10
-0.7516666585043087
 20
-0.1845525718230579
 10
-0.9464666597899882
 20
-0.1483081227649475
 10
-0.9470600548569368
 20
-0.1481973464741723
 10
-0.9476757744674372
 20
-0.1480824170847624
 10
-0.94831227899779
 20
-0.1479636210173136
 10
-0.9489680288243025
 20
-0.1478412446924174
 10
-0.9496414843232858
 20
-0.1477155745306741
 10
-0.9503311058710459
 20
-0.1475868969526784
 10
-0.9510353538438877
 20
-0.147455498379025
 10
-0.9517526886181197
 20
-0.1473216652303071
 10
-0.9524815705700478
 20
-0.1471856839271229
 10
-0.9532204600759814
 20
-0.1470478408900692
 10
-0.9539678175122268
 20
-0.1469084225397423
 10
-0.9547221032550914
 20
-0.1467677152967337
 10
-0.9554817776808789
 20
-0.1466260055816396
 10
-0.9562453011658995
 20
-0.146483579815057
 10
-0.9570111340864604
 20
-0.1463407244175817
 10
-0.9577777368188666
 20
-0.1461977258098078
 10
-0.9585435697394262
 20
-0.1460548704123313
 10
-0.9593070932244462
 20
-0.145912444645749
 10
-0.9600667676502356
 20
-0.1457707349306569
 10
-0.9608210533930979
 20
-0.1456300276876466
 10
-0.961568410829344
 20
-0.1454906093373181
 10
-0.9623073003352763
 20
-0.1453527663002641
 10
-0.963036182287206
 20
-0.1452167849970823
 10
-0.9637535170614382
 20
-0.1450829518483664
 10
-0.9644577650342807
 20
-0.1449515532747125
 10
-0.9651473865820404
 20
-0.1448228756967162
 10
-0.9658208420810237
 20
-0.1446972055349735
 10
-0.966476591907537
 20
-0.1445748292100762
 10
-0.9671130964378897
 20
-0.1444560331426284
 10
-0.9677288160483873
 20
-0.1443411037532182
 10
-0.9683222111153378
 20
-0.1442303274624428
 10
-0.9918555577273507
 20
-0.1398525715280383
 10
-0.9924337154636325
 20
-0.1397301779081144
 10
-0.9930042377860081
 20
-0.1395786773522002
 10
-0.9935663571266088
 20
-0.1393990007787649
 10
-0.9941193059175706
 20
-0.1391920791062948
 10
-0.9946623165910258
 20
-0.1389588432532557
 10
-0.9951946215791079
 20
-0.1387002241381307
 10
-0.9957154533139493
 20
-0.138417152679393
 10
-0.9962240442276831
 20
-0.1381105597955141
 10
-0.9967196267524401
 20
-0.1377813764049746
 10
-0.9972014333203567
 20
-0.1374305334262491
 10
-0.9976686963635665
 20
-0.1370589617778124
 10
-0.9981206483141996
 20
-0.1366675923781407
 10
-0.9985565216043889
 20
-0.1362573561457101
 10
-0.99897554866627
 20
-0.1358291839989961
 10
-0.9993769619319751
 20
-0.1353840068564736
 10
-0.9997599938336372
 20
-0.134922755636619
 10
-1.0001238768033889
 20
-0.134446361257907
 10
-1.0004678432733605
 20
-0.1339557546388142
 10
-1.0007911256756925
 20
-0.1334518666978174
 10
-1.0010929564425097
 20
-0.1329356283533894
 10
-1.0013725680059531
 20
-0.13240797052401
 10
-1.0016291927981482
 20
-0.1318698241281511
 10
-1.0018620632512329
 20
-0.131322120084289
 10
-1.0020704117973376
 20
-0.1307657893109005
 10
-1.0022534708685988
 20
-0.1302017627264604
 10
-1.0024104728971446
 20
-0.1296309712494454
 10
-1.0025406503151133
 20
-0.1290543457983313
 10
-1.002643235554632
 20
-0.1284728172915917
 10
-1.0027174610478393
 20
-0.1278873166477041
 10
-1.0027625592268663
 20
-0.1272987747851436
 10
-1.0027777625238463
 20
-0.1267081226223867
 10
-1.0027777625238459
 20
-0.1027636736454548
 10
-1.0027777625238459
 20
-0.0805414294043003
 10
-1.0027777625238465
 20
-0.0111192242217044
 10
-1.0027777625238459
 20
0.0111030200194511
 10
-1.0027888648861238
 20
0.0805474299266107
 10
-1.0027888648861245
 20
0.1027696741677548
 10
-1.0027999672484025
 20
0.1267252255069652
 10
-1.0027847639514247
 20
0.1273168507242644
 10
-1.0027396657723964
 20
0.1279061733410386
 10
-1.002665440279189
 20
0.1284922780911829
 10
-1.0025628550396688
 20
0.1290742497085501
 10
-1.0024326776217001
 20
0.1296511729270264
 10
-1.0022756755931541
 20
0.1302221324804873
 10
-1.0020926165218931
 20
0.1307862131028069
 10
-1.0018842679757878
 20
0.1313424995278647
 10
-1.0016513975227026
 20
0.1318900764895388
 10
-1.0013947727305059
 20
0.1324280287217007
 10
-1.0011151611670663
 20
0.1329554409582237
 10
-1.0008133304002469
 20
0.1334713979329948
 10
-1.0004900479979173
 20
0.1339749843798812
 10
-1.000146081527943
 20
0.134465285032757
 10
-0.9997821985581932
 20
0.1349413846255109
 10
-0.9993991666565305
 20
0.1354023678920037
 10
-0.9989977533908259
 20
0.1358473195661282
 10
-0.9985787263289443
 20
0.136275324381742
 10
-0.9981428530387535
 20
0.1366854670727404
 10
-0.9976909010881211
 20
0.137076832372985
 10
-0.9972236380449142
 20
0.1374485050163588
 10
-0.9967418314769971
 20
0.1377995697367396
 10
-0.9962462489522387
 20
0.1381291112679921
 10
-0.9957376580385041
 20
0.1384362143440088
 10
-0.9952168263036621
 20
0.1387199636986552
 10
-0.9946845213155806
 20
0.1389794440658113
 10
-0.9941415106421267
 20
0.1392137401793533
 10
-0.9935885618511657
 20
0.1394219367731551
 10
-0.9930264425105632
 20
0.1396031185810953
 10
-0.9924559201881873
 20
0.1397563703370526
 10
-0.9918777624519065
 20
0.1398807767748958
 10
-0.9683222111153378
 20
0.1442696744416544
 10
-0.9677288160483868
 20
0.1443783668908402
 10
-0.9671130964378897
 20
0.1444913470615708
 10
-0.9664765919075364
 20
0.1446083240294425
 10
-0.965820842081024
 20
0.1447290068700333
 10
-0.9651473865820399
 20
0.1448531046589336
 10
-0.9644577650342813
 20
0.1449803264717295
 10
-0.9637535170614363
 20
0.1451103813840113
 10
-0.9630361822872059
 20
0.1452429784713573
 10
-0.9623073003352764
 20
0.1453778268093676
 10
-0.9615684108293421
 20
0.1455146354736143
 10
-0.960821053393099
 20
0.145653113539693
 10
-0.9600667676502358
 20
0.1457929700831931
 10
-0.9593070932244471
 20
0.1459339141796921
 10
-0.9585435697394249
 20
0.1460756549047901
 10
-0.9577777368188659
 20
0.1462179013340591
 10
-0.9570111340864588
 20
0.146360362543098
 10
-0.9562453011659003
 20
0.1465027476074837
 10
-0.9554817776808778
 20
0.1466447656028123
 10
-0.9547221032550905
 20
0.1467861256046644
 10
-0.9539678175122257
 20
0.1469265366886297
 10
-0.9532204600759824
 20
0.147065707930296
 10
-0.9524815705700482
 20
0.1472033484052434
 10
-0.9517526886181197
 20
0.1473391671890688
 10
-0.9510353538438878
 20
0.1474728733573562
 10
-0.9503311058710453
 20
0.1476041759856843
 10
-0.9496414843232864
 20
0.1477327841496524
 10
-0.9489680288243023
 20
0.1478584069248377
 10
-0.9483122789977871
 20
0.1479807533868318
 10
-0.9476757744674343
 20
0.1480995326112189
 10
-0.9470600548569368
 20
0.1482144536735874
 10
-0.9464666597899875
 20
0.1483252256495252
 10
-0.7456333120077951
 20
0.1856807770771763
 10
-0.7450500636083656
 20
0.1858033171742492
 10
-0.744464440864504
 20
0.1859531426351284
 10
-0.7438774686960176
 20
0.1861293740180693
 10
-0.7432901720227211
 20
0.1863311318813245
 10
-0.7427035757644185
 20
0.186557536783151
 10
-0.7421187048409195
 20
0.1868077092818068
 10
-0.7415365841720356
 20
0.1870807699355471
 10
-0.7409582386775725
 20
0.1873758393026283
 10
-0.7403846932773405
 20
0.1876920379413082
 10
-0.7398169728911499
 20
0.1880284864098377
 10
-0.7392561024388098
 20
0.1883843052664761
 10
-0.738703106840124
 20
0.1887586150694809
 10
-0.7381590110149094
 20
0.1891505363771071
 10
-0.7376248398829688
 20
0.1895591897476099
 10
-0.737101618364113
 20
0.1899836957392466
 10
-0.7365903713781523
 20
0.1904231749102734
 10
-0.7360921238448925
 20
0.1908767478189446
 10
-0.7356079006841452
 20
0.1913435350235189
 10
-0.7351387268157187
 20
0.1918226570822521
 10
-0.7346856271594218
 20
0.1923132345533981
 10
-0.7342496266350645
 20
0.192814387995213
 10
-0.7338317501624541
 20
0.193325237965956
 10
-0.7334330226613974
 20
0.1938449050238819
 10
-0.7330544690517089
 20
0.1943725097272453
 10
-0.7326971142531944
 20
0.1949071726343053
 10
-0.7323619831856623
 20
0.1954480143033145
 10
-0.7320501007689246
 20
0.1959941552925295
 10
-0.7317624919227864
 20
0.1965447161602102
 10
-0.7315001815670578
 20
0.197098817464608
 10
-0.7312641946215499
 20
0.1976555797639837
 10
-0.7310555560060702
 20
0.1982141236165875
 10
-0.6555555555077694
 20
0.3743141247788478
 10
-0.6552950136259659
 20
0.3748494533839742
 10
-0.6550552652989781
 20
0.3754029421982568
 10
-0.6548362232732678
 20
0.3759732574652835
 10
-0.6546378002952979
 20
0.3765590654286441
 10
-0.6544599091115342
 20
0.3771590323319249
 10
-0.6543024624684439
 20
0.3777718244187113
 10
-0.6541653731124858
 20
0.3783961079325961
 10
-0.6540485537901249
 20
0.3790305491171639
 10
-0.6539519172478276
 20
0.3796738142160062
 10
-0.6538753762320563
 20
0.3803245694727059
 10
-0.653818843489273
 20
0.3809814811308534
 10
-0.6537822317659444
 20
0.3816432154340382
 10
-0.6537654538085307
 20
0.382308438625848
 10
-0.6537684223634984
 20
0.382975816949868
 10
-0.6537910501773099
 20
0.3836440166496888
 10
-0.6538332499964331
 20
0.3843117039688985
 10
-0.6538949345673285
 20
0.3849775451510825
 10
-0.6539760166364559
 20
0.3856402064398323
 10
-0.6540764089502884
 20
0.3862983540787334
 10
-0.6541960242552803
 20
0.3869506543113751
 10
-0.6543347752979032
 20
0.387595773381343
 10
-0.6544925748246183
 20
0.3882323775322287
 10
-0.654669335581886
 20
0.388859133007619
 10
-0.6548649703161741
 20
0.3894747060511008
 10
-0.6550793917739446
 20
0.3900777629062618
 10
-0.655312512701663
 20
0.3906669698166919
 10
-0.655564245845793
 20
0.3912409930259766
 10
-0.655834503952795
 20
0.3917984987777067
 10
-0.6561231997691349
 20
0.3923381533154687
 10
-0.6564302460412788
 20
0.392858622882851
 10
-0.6567555555156905
 20
0.3933585737234387
 10
-0.7741222098336167
 20
0.5643807795765953
 10
-0.7744633717058192
 20
0.5648787268104176
 10
-0.7748174457058271
 20
0.5653953642528139
 10
-0.7751835389518036
 20
0.565929402923885
 10
-0.7755607585619175
 20
0.5664795538437286
 10
-0.7759482116543336
 20
0.5670445280324424
 10
-0.7763450053472181
 20
0.5676230365101245
 10
-0.7767502467587427
 20
0.5682137902968736
 10
-0.7771630430070702
 20
0.5688155004127861
 10
-0.7775825012103658
 20
0.5694268778779636
 10
-0.7780077284868007
 20
0.5700466337125049
 10
-0.7784378319545409
 20
0.5706734789365013
 10
-0.7788719187317487
 20
0.5713061245700587
 10
-0.7793090959365953
 20
0.5719432816332707
 10
-0.7797484706872484
 20
0.5725836611462367
 10
-0.780189150101868
 20
0.5732259741290568
 10
-0.7806302412986247
 20
0.5738689316018266
 10
-0.78107085139569
 20
0.5745112445846464
 10
-0.7815100875112237
 20
0.5751516240976128
 10
-0.781947056763394
 20
0.5757887811608248
 10
-0.7823808662703683
 20
0.5764214267943818
 10
-0.7828106231503161
 20
0.5770482720183798
 10
-0.7832354345213997
 20
0.5776680278529185
 10
-0.7836544075017878
 20
0.5782794053180951
 10
-0.7840666492096471
 20
0.5788811154340092
 10
-0.7844712667631445
 20
0.579471869220759
 10
-0.784867367280448
 20
0.5800503776984398
 10
-0.7852540578797217
 20
0.5806153518871534
 10
-0.785630445679133
 20
0.5811655028069985
 10
-0.7859956377968497
 20
0.5816995414780687
 10
-0.7863487413510373
 20
0.5822161789204665
 10
-0.7866888634598638
 20
0.5827141261542884
 10
-0.8002444147304341
 20
0.602469677465776
 10
-0.8005648280939267
 20
0.6029647614649772
 10
-0.8008594707877279
 20
0.6034750177234037
 10
-0.8011284479934193
 20
0.6039992467745314
 10
-0.8013718648925886
 20
0.6045362491518309
 10
-0.8015898266668176
 20
0.6050848253887753
 10
-0.8017824384976926
 20
0.6056437760188348
 10
-0.8019498055667987
 20
0.6062119015754854
 10
-0.8020920330557196
 20
0.6067880025921979
 10
-0.80220922614604
 20
0.6073708796024446
 10
-0.8023014900193469
 20
0.6079593331396983
 10
-0.8023689298572206
 20
0.6085521637374278
 10
-0.8024116508412465
 20
0.6091481719291139
 10
-0.8024297581530151
 20
0.6097461582482209
 10
-0.8024233569741054
 20
0.6103449232282235
 10
-0.8023925524861003
 20
0.6109432674025972
 10
-0.8023374498705859
 20
0.6115399913048128
 10
-0.8022581543091528
 20
0.6121338954683403
 10
-0.8021547709833793
 20
0.6127237804266541
 10
-0.8020274050748528
 20
0.6133084467132276
 10
-0.8018761617651535
 20
0.6138866948615324
 10
-0.8017011462358737
 20
0.6144573254050397
 10
-0.8015024636685919
 20
0.6150191388772237
 10
-0.8012802192448938
 20
0.615570935811556
 10
-0.8010345181463651
 20
0.6161115167415101
 10
-0.8007654655545876
 20
0.6166396822005581
 10
-0.8004731666511531
 20
0.617154232722169
 10
-0.8001577266176392
 20
0.61765396883982
 10
-0.7998192506356328
 20
0.618137691086982
 10
-0.7994578438867205
 20
0.6186041999971269
 10
-0.799073611552484
 20
0.6190522961037266
 10
-0.7986666588145075
 20
0.6194807799402553
 10
-0.7817333122460556
 20
0.6364141265087078
 10
-0.7660222097801559
 20
0.6521252289746052
 10
-0.7169222094560981
 20
0.7012252292986652
 10
-0.7012111069901984
 20
0.7169363317645639
 10
-0.6521222090284177
 20
0.766036332088624
 10
-0.6364111065625193
 20
0.7817585762868784
 10
-0.6194666576317881
 20
0.7986918834852534
 10
-0.6190391798989439
 20
0.7990988734524072
 10
-0.6185919577470429
 20
0.7994832053873544
 10
-0.6181261973745477
 20
0.7998447674082863
 10
-0.6176431049799309
 20
0.8001834476333963
 10
-0.6171438867616541
 20
0.8004991341808816
 10
-0.6166297489181866
 20
0.8007917151689303
 10
-0.6161018976479889
 20
0.8010610787157431
 10
-0.6155615391495343
 20
0.8013071129395074
 10
-0.6150098796212825
 20
0.8015297059584215
 10
-0.6144481252617033
 20
0.8017287458906758
 10
-0.6138774822692638
 20
0.8019041208544673
 10
-0.6132991568424256
 20
0.8020557189679874
 10
-0.612714355179661
 20
0.802183428349431
 10
-0.6121242834794342
 20
0.8022871371169912
 10
-0.6115301479402063
 20
0.8023667333888633
 10
-0.6109331547604461
 20
0.8024221052832408
 10
-0.6103345101386267
 20
0.8024531409183152
 10
-0.6097354202732046
 20
0.8024597284122827
 10
-0.6091370913626492
 20
0.8024417558833365
 10
-0.6085407296054276
 20
0.8023991114496711
 10
-0.6079475412000042
 20
0.8023316832294791
 10
-0.6073587323448477
 20
0.8022393593409543
 10
-0.6067755092384243
 20
0.802122027902291
 10
-0.6061990780791984
 20
0.8019795770316834
 10
-0.605630645065636
 20
0.801811894847325
 10
-0.6050714163962042
 20
0.8016188694674093
 10
-0.6045225982693679
 20
0.8014003890101298
 10
-0.6039853968835934
 20
0.8011563415936817
 10
-0.6034610184373485
 20
0.8008866153362577
 10
-0.6029506691290991
 20
0.800591098356051
 10
-0.602455555157309
 20
0.8002696787712573
 10
-0.5826999644757406
 20
0.7867141275006881
 10
-0.5822030610663974
 20
0.7863719890044542
 10
-0.5816874001290921
 20
0.7860171311406384
 10
-0.581154272887705
 20
0.7856504311070032
 10
-0.5806049705661214
 20
0.7852727661013126
 10
-0.5800407843882166
 20
0.7848850133213349
 10
-0.5794630055778802
 20
0.7844880499648283
 10
-0.5788729253589869
 20
0.7840827532295636
 10
-0.5782718349554172
 20
0.7836700003132994
 10
-0.5776610255910573
 20
0.7832506684138048
 10
-0.5770417884897856
 20
0.78282563472884
 10
-0.5764154148754871
 20
0.7823957764561713
 10
-0.5757831959720381
 20
0.7819619707935636
 10
-0.575146423003322
 20
0.781525094938781
 10
-0.5745063871932199
 20
0.7810860260895869
 10
-0.5738643797656128
 20
0.780645641443747
 10
-0.5732216919443814
 20
0.7802048181990245
 10
-0.5725796149534111
 20
0.7797644335531846
 10
-0.5719394400165778
 20
0.7793253647039906
 10
-0.5713024583577643
 20
0.7788884888492082
 10
-0.5706699612008528
 20
0.7784546831866003
 10
-0.5700432397697248
 20
0.7780248249139317
 10
-0.5694235852882614
 20
0.7775997912289679
 10
-0.5688122889803449
 20
0.7771804593294727
 10
-0.5682106420698542
 20
0.7767677064132081
 10
-0.5676199357806715
 20
0.7763624096779422
 10
-0.5670414613366777
 20
0.775965446321438
 10
-0.5664765099617585
 20
0.7755776935414567
 10
-0.565926372879788
 20
0.7752000285357687
 10
-0.5653923413146509
 20
0.7748333285021329
 10
-0.5648757064902304
 20
0.774478470638316
 10
-0.5643777596304066
 20
0.7741363321420835
 10
-0.389688860839664
 20
0.654247433713022
 10
-0.3891908224075004
 20
0.6539208803404967
 10
-0.3886717952022321
 20
0.653612245104862
 10
-0.3881331286484828
 20
0.6533216175194936
 10
-0.3875761721708725
 20
0.6530490870977634
 10
-0.3870022751940253
 20
0.6527947433530482
 10
-0.3864127871425639
 20
0.652558675798719
 10
-0.3858090574411085
 20
0.6523409739481534
 10
-0.385192435514286
 20
0.6521417273147246
 10
-0.3845642707867139
 20
0.6519610254118063
 10
-0.3839259126830146
 20
0.6517989577527724
 10
-0.3832787106278165
 20
0.6516556138509962
 10
-0.3826240140457352
 20
0.6515310832198538
 10
-0.381963172361398
 20
0.651425455372719
 10
-0.3812975349994231
 20
0.6513388198229662
 10
-0.3806284513844363
 20
0.6512712660839677
 10
-0.3799572709410597
 20
0.6512228836691001
 10
-0.3792853430939131
 20
0.6511937620917365
 10
-0.3786140172676221
 20
0.6511839908652505
 10
-0.3779446428868079
 20
0.6511936595030183
 10
-0.3772785693760914
 20
0.6512228575184138
 10
-0.3766171461600965
 20
0.6512716744248083
 10
-0.375961722663446
 20
0.651340199735578
 10
-0.3753136483107625
 20
0.651428522964098
 10
-0.3746742725266665
 20
0.6515367336237418
 10
-0.3740449447357828
 20
0.6516649212278826
 10
-0.373427014362733
 20
0.6518131752898957
 10
-0.3728218308321382
 20
0.6519815853231546
 10
-0.372230743568622
 20
0.6521702408410348
 10
-0.3716551019968066
 20
0.6523792313569095
 10
-0.371096255541315
 20
0.6526086463841528
 10
-0.3705555536267704
 20
0.6528585754361386
 10
-0.1998333084055145
 20
0.7227363318028442
 10
-0.1992716101123853
 20
0.7229364415477129
 10
-0.1987118295495365
 20
0.7231640447438594
 10
-0.1981548439464473
 20
0.7234181232034131
 10
-0.1976015305326006
 20
0.7236976587385019
 10
-0.1970527665374727
 20
0.7240016331612582
 10
-0.1965094291905536
 20
0.7243290282838044
 10
-0.1959723957213183
 20
0.7246788259182809
 10
-0.1954425433592509
 20
0.7250500078768088
 10
-0.1949207493338322
 20
0.7254415559715219
 10
-0.1944078908745423
 20
0.7258524520145492
 10
-0.193904845210866
 20
0.7262816778180176
 10
-0.1934124895722789
 20
0.7267282151940606
 10
-0.1929317011882694
 20
0.7271910459548051
 10
-0.1924633572883132
 20
0.7276691519123837
 10
-0.1920083351018955
 20
0.7281615148789231
 10
-0.1915675118584931
 20
0.7286671166665537
 10
-0.1911417647875923
 20
0.7291849390874056
 10
-0.1907319711186722
 20
0.729713963953609
 10
-0.1903390080812123
 20
0.7302531730772931
 10
-0.1899637529046981
 20
0.730801548270587
 10
-0.1896070828186094
 20
0.7313580713456197
 10
-0.1892698750524254
 20
0.7319217241145216
 10
-0.1889530068356303
 20
0.732491488389424
 10
-0.1886573553977041
 20
0.7330663459824548
 10
-0.1883837979681273
 20
0.7336452787057444
 10
-0.1881332117763835
 20
0.7342272683714218
 10
-0.1879064740519532
 20
0.7348112967916147
 10
-0.1877044620243175
 20
0.7353963457784561
 10
-0.1875280529229567
 20
0.735981397144076
 10
-0.1873781239773532
 20
0.736565432700601
 10
-0.1872555524169899
 20
0.7371474342601619
 10
-0.1483111033410582
 20
0.9464585773738987
 10
-0.1482013675603322
 20
0.9470519720681729
 10
-0.148087413843442
 20
0.9476676890699459
 10
-0.1479695330910136
 20
0.9483041865194733
 10
-0.1478480162036707
 20
0.9489599225570104
 10
-0.1477231540820384
 20
0.9496333553228162
 10
-0.1475952376267463
 20
0.9503229429571459
 10
-0.1474645577384165
 20
0.9510271436002578
 10
-0.1473314053176741
 20
0.9517444153924072
 10
-0.1471960712651441
 20
0.9524732164738524
 10
-0.1470588464814544
 20
0.9532120049848487
 10
-0.1469200218672277
 20
0.9539592390656524
 10
-0.1467798883230903
 20
0.9547133768565225
 10
-0.1466387367496698
 20
0.9554728764977152
 10
-0.1464968580475872
 20
0.9562361961294856
 10
-0.1463545431174715
 20
0.9570017938920922
 10
-0.1462120828599437
 20
0.9577681279257909
 10
-0.146069768175636
 20
0.9585336563708388
 10
-0.1459278899651679
 20
0.9592968373674917
 10
-0.1457867391291668
 20
0.9600561290560092
 10
-0.1456466065682567
 20
0.9608099895766453
 10
-0.1455077831830653
 20
0.9615568770696575
 10
-0.1453705598742161
 20
0.9622952496753029
 10
-0.1452352275423368
 20
0.9630235655338385
 10
-0.1451020770880496
 20
0.9637402827855212
 10
-0.1449713994119806
 20
0.9644438595706059
 10
-0.1448434854147569
 20
0.9651327540293523
 10
-0.1447186259970035
 20
0.9658054243020144
 10
-0.1445971120593442
 20
0.9664603285288508
 10
-0.1444792345024053
 20
0.9670959248501183
 10
-0.1443652842268121
 20
0.9677106714060724
 10
-0.1442555521331902
 20
0.9683030263369702
 10
-0.1398555521041487
 20
0.9918585776735387
 10
-0.1397331923976552
 20
0.9924356952737678
 10
-0.1395817906006282
 20
0.9930052445415992
 10
-0.1394022731594386
 20
0.9935664556731165
 10
-0.1391955665204682
 20
0.9941185588644004
 10
-0.1389625971300881
 20
0.9946607843115356
 10
-0.1387042914346763
 20
0.9951923622106027
 10
-0.1384215758806033
 20
0.9957125227576877
 10
-0.1381153769142498
 20
0.9962204961488688
 10
-0.1377866209819858
 20
0.9967155125802345
 10
-0.1374362345301914
 20
0.9971968022478638
 10
-0.1370651440052395
 20
0.9976635953478393
 10
-0.1366742758535046
 20
0.9981151220762452
 10
-0.1362645565213621
 20
0.9985506126291646
 10
-0.1358369124551857
 20
0.9989692972026784
 10
-0.1353922701013541
 20
0.9993704059928711
 10
-0.1349315559062401
 20
0.9997531691958251
 10
-0.1344556963162186
 20
1.0001168170076229
 10
-0.1339656177776666
 20
1.0004605796243462
 10
-0.1334622467369559
 20
1.0007836872420808
 10
-0.1329465096404641
 20
1.0010853700569065
 10
-0.1324193329345684
 20
1.0013648582649082
 10
-0.1318816430656403
 20
1.0016213820621662
 10
-0.1313343664800562
 20
1.0018541716447666
 10
-0.1307784296241893
 20
1.0020624572087891
 10
-0.1302147589444186
 20
1.0022454689503175
 10
-0.1296442808871157
 20
1.0024024370654363
 10
-0.1290679218986587
 20
1.0025325917502255
 10
-0.1284866084254215
 20
1.0026351632007702
 10
-0.1279012669137774
 20
1.0027093816131518
 10
-0.1273128238101049
 20
1.0027544771834531
 10
-0.1267222055607768
 20
1.0027696801077566
 10
-0.102766654221568
 20
1.0027696801077566
 10
-0.0805444099804116
 20
1.0027696801077568
 10
-0.0110999607031815
 20
1.0027696801077568
 10
0.0111222441678938
 20
1.0027696801077566
 10
0.080566693445125
 20
1.0027696801077568
 10
0.1027888983162025
 20
1.0027696801077566
 10
0.1267333472931322
 20
1.0027696801077566
 10
0.1273239656613985
 20
1.0027544768094558
 10
0.1279124091060294
 20
1.0027093786211767
 10
0.1284977511568618
 20
1.0026351531028614
 10
0.1290790653437329
 20
1.002532567814443
 10
0.1296554251964796
 20
1.0024023903158632
 10
0.1302259042449378
 20
1.0022453881670546
 10
0.1307895760189491
 20
1.0020623289279587
 10
0.1313455140483431
 20
1.001853980158512
 10
0.1318927918629631
 20
1.001621109418654
 10
0.132430482992644
 20
1.0013644842683207
 10
0.1329576609672211
 20
1.0010848722674481
 10
0.1334733993165354
 20
1.000783040975977
 10
0.1339767715704198
 20
1.0004597579538426
 10
0.1344668512587148
 20
1.0001157907609854
 10
0.1349427119112566
 20
0.9997519069573401
 10
0.1354034270578813
 20
0.9993688741028462
 10
0.1358480702284276
 20
0.9989674597574409
 10
0.1362757149527307
 20
0.9985484314810616
 10
0.1366854347606289
 20
0.9981125568336477
 10
0.1370763031819586
 20
0.9976606033751345
 10
0.1374473937465556
 20
0.9971933386654601
 10
0.1377977799842632
 20
0.9967115302645642
 10
0.1381265354249112
 20
0.9962159457323821
 10
0.1384327335983398
 20
0.9957073526288528
 10
0.1387154480343861
 20
0.9951865185139137
 10
0.1389737522628866
 20
0.9946542109475025
 10
0.1392067198136777
 20
0.9941111974895566
 10
0.1394134242165995
 20
0.9935582457000139
 10
0.1395929390014865
 20
0.9929961231388119
 10
0.1397443376981755
 20
0.992425597365889
 10
0.1398666938365044
 20
0.991847435941182
 10
0.1442555915032677
 20
0.96830302633697
 10
0.1443663299384509
 20
0.9677106714060713
 10
0.1444811548506582
 20
0.9670959248501165
 10
0.1445997820236279
 20
0.9664603285288498
 10
0.1447219272410978
 20
0.9658054243020133
 10
0.1448473062868038
 20
0.9651327540293523
 10
0.144975634944486
 20
0.9644438595706059
 10
0.1451066289978792
 20
0.9637402827855212
 10
0.1452400042307229
 20
0.9630235655338385
 10
0.1453754764267559
 20
0.962295249675304
 10
0.1455127613697139
 20
0.961556877069658
 10
0.1456515748433325
 20
0.9608099895766453
 10
0.1457916326313567
 20
0.9600561290560098
 10
0.1459326505175164
 20
0.9592968373674929
 10
0.1460743442855549
 20
0.9585336563708388
 10
0.1462164297192066
 20
0.9577681279257909
 10
0.1463586226022108
 20
0.9570017938920923
 10
0.1465006387183033
 20
0.9562361961294851
 10
0.1466421938512242
 20
0.9554728764977146
 10
0.1467830037847104
 20
0.9547133768565219
 10
0.1469227843024998
 20
0.9539592390656531
 10
0.1470612511883282
 20
0.953212004984847
 10
0.1471981202259342
 20
0.9524732164738516
 10
0.1473331071990569
 20
0.9517444153924065
 10
0.147465927891434
 20
0.9510271436002572
 10
0.1475962980868016
 20
0.9503229429571464
 10
0.1477239335688995
 20
0.9496333553228169
 10
0.1478485501214624
 20
0.9489599225570104
 10
0.1479698635282294
 20
0.9483041865194733
 10
0.1480875895729401
 20
0.9476676890699465
 10
0.1482014440393293
 20
0.947051972068174
 10
0.1483111427111365
 20
0.9464585773738988
 10
0.1872666941493453
 20
0.7371474342601619
 10
0.1873892657097095
 20
0.7365654327006
 10
0.1875391946553127
 20
0.7359813971440748
 10
0.1877156037566738
 20
0.7353963457784561
 10
0.1879176157843084
 20
0.7348112967916147
 10
0.1881443535087386
 20
0.7342272683714205
 10
0.188394939700485
 20
0.7336452787057421
 10
0.1886684971300598
 20
0.7330663459824559
 10
0.1889641485679874
 20
0.732491488389424
 10
0.1892810167847828
 20
0.7319217241145226
 10
0.1896182245509648
 20
0.7313580713456207
 10
0.1899748946370552
 20
0.7308015482705864
 10
0.1903501498135677
 20
0.730253173077292
 10
0.1907431128510273
 20
0.729713963953609
 10
0.1911529065199474
 20
0.7291849390874056
 10
0.1915786535908485
 20
0.7286671166665537
 10
0.1920194768342512
 20
0.7281615148789231
 10
0.1924744990206692
 20
0.7276691519123837
 10
0.1929428429206247
 20
0.7271910459548051
 10
0.1934236313046351
 20
0.7267282151940606
 10
0.1939159869432208
 20
0.7262816778180176
 10
0.1944190326068974
 20
0.725852452014547
 10
0.1949318910661876
 20
0.7254415559715208
 10
0.1954536850916063
 20
0.7250500078768088
 10
0.1959835374536742
 20
0.7246788259182798
 10
0.196520570922909
 20
0.7243290282838066
 10
0.1970639082698289
 20
0.7240016331612571
 10
0.1976126722649546
 20
0.7236976587385019
 10
0.1981659856788021
 20
0.7234181232034143
 10
0.1987229712818914
 20
0.7231640447438616
 10
0.1992827518447413
 20
0.722936441547714
 10
0.1998444501378696
 20
0.7227363318028442
 10
0.3705666953591256
 20
0.652858575436138
 10
0.3711074008431571
 20
0.6526086463841518
 10
0.3716662504082383
 20
0.6523792313569083
 10
0.3722418946614635
 20
0.6521702408410349
 10
0.3728329842099277
 20
0.6519815853231546
 10
0.3734381696607234
 20
0.6518131752898957
 10
0.3740561016209463
 20
0.6516649212278826
 10
0.3746854306976931
 20
0.6515367336237406
 10
0.3753248074980535
 20
0.651428522964098
 10
0.3759728826291259
 20
0.651340199735578
 10
0.3766283066980073
 20
0.6512716744248089
 10
0.3772897303117844
 20
0.6512228575184119
 10
0.3779558040775575
 20
0.6511936595030189
 10
0.3786251786024202
 20
0.651183990865251
 10
0.3792965044934674
 20
0.6511937620917365
 10
0.3799684323577941
 20
0.6512228836690993
 10
0.380639612802493
 20
0.651271266083967
 10
0.3813086964346595
 20
0.6513388198229656
 10
0.3819743338613893
 20
0.6514254553727183
 10
0.3826351756897744
 20
0.6515310832198538
 10
0.3832898725269137
 20
0.6516556138509965
 10
0.3839370749798983
 20
0.6517989577527702
 10
0.3845754336558236
 20
0.6519610254118056
 10
0.3852035991617841
 20
0.6521417273147246
 10
0.3858202221048753
 20
0.6523409739481539
 10
0.3864239530921909
 20
0.6525586757987201
 10
0.3870134427308254
 20
0.6527947433530482
 10
0.3875873416278743
 20
0.6530490870977634
 10
0.388144300390432
 20
0.6533216175194936
 10
0.3886829696255918
 20
0.653612245104862
 10
0.3892019999404485
 20
0.6539208803404967
 10
0.3897000419420995
 20
0.6542474337130214
 10
0.5643889013627614
 20
0.7741363321420835
 10
0.5648868482239076
 20
0.7744784706383162
 10
0.5654034830575799
 20
0.774833328502133
 10
0.5659375146478263
 20
0.7752000285357675
 10
0.5664876517786914
 20
0.7755776935414567
 10
0.5670526032342287
 20
0.7759654463214378
 10
0.5676310777984815
 20
0.7763624096779421
 10
0.5682217842554992
 20
0.7767677064132087
 10
0.56882343138933
 20
0.7771804593294727
 10
0.5694347279840235
 20
0.7775997912289689
 10
0.5700543828236262
 20
0.7780248249139315
 10
0.570681104692183
 20
0.7784546831866005
 10
0.5713136023737465
 20
0.7788884888492073
 10
0.5719505846523621
 20
0.7793253647039892
 10
0.5725907603120803
 20
0.7797644335531825
 10
0.5732328381369445
 20
0.7802048181990248
 10
0.5738755269110075
 20
0.7806456414437476
 10
0.5745175354183134
 20
0.7810860260895868
 10
0.5751575724429152
 20
0.7815250949387812
 10
0.5757943467688547
 20
0.7819619707935637
 10
0.5764265671801841
 20
0.7823957764561712
 10
0.5770529424609516
 20
0.7828256347288384
 10
0.5776721813952005
 20
0.7832506684138035
 10
0.5782829927669856
 20
0.7836700003133003
 10
0.5788840853603491
 20
0.7840827532295621
 10
0.5794741679593411
 20
0.7844880499648287
 10
0.5800519493480092
 20
0.7848850133213349
 10
0.5806161383104006
 20
0.7852727661013138
 10
0.5811654436305683
 20
0.7856504311070023
 10
0.5816985740925535
 20
0.7860171311406379
 10
0.5822142384804071
 20
0.786371989004454
 10
0.5827111455781763
 20
0.786714127500688
 10
0.6024666968896663
 20
0.8002696787712573
 10
0.6029618144296189
 20
0.800591098356051
 10
0.6034721668382084
 20
0.8008866153362567
 10
0.6039965479407549
 20
0.801156341593682
 10
0.6045337515625782
 20
0.8014003890101298
 10
0.6050825715290029
 20
0.8016188694674085
 10
0.6056418016653458
 20
0.8018118948473237
 10
0.6062102357969346
 20
0.8019795770316834
 10
0.606786667749087
 20
0.8021220279022913
 10
0.6073698913471254
 20
0.8022393593409547
 10
0.6079587004163726
 20
0.8023316832294799
 10
0.6085518887821469
 20
0.8023991114496711
 10
0.6091482502697734
 20
0.802441755883337
 10
0.6097465787045732
 20
0.8024597284122826
 10
0.6103456679118668
 20
0.8024531409183162
 10
0.6109443117169772
 20
0.8024221052832392
 10
0.6115413039452225
 20
0.8023667333888633
 10
0.6121354384219291
 20
0.8022871371169906
 10
0.6127255089724164
 20
0.8021834283494301
 10
0.613310309422007
 20
0.8020557189679857
 10
0.6138886335960206
 20
0.8019041208544666
 10
0.6144592753197795
 20
0.8017287458906746
 10
0.6150210284186068
 20
0.8015297059584204
 10
0.6155726867178217
 20
0.8013071129395075
 10
0.6161130440427479
 20
0.8010610787157419
 10
0.6166408942187066
 20
0.8007917151689312
 10
0.6171550310710201
 20
0.8004991341808809
 10
0.617654248425005
 20
0.8001834476333973
 10
0.6181373401059921
 20
0.7998447674082858
 10
0.6186030999392951
 20
0.7994832053873553
 10
0.619050321750238
 20
0.7990988734524084
 10
0.6194777993641435
 20
0.7986918834852532
 10
0.6364222482948747
 20
0.7817585762868782
 10
0.6521333507607727
 20
0.7660363320886229
 10
0.7012333510848329
 20
0.7169252294022854
 10
0.7169444535507303
 20
0.7012141269363869
 10
0.7660333515125124
 20
0.6521252289746048
 10
0.7817444539784099
 20
0.6364141265087077
 10
0.7986778005468637
 20
0.619480779940254
 10
0.7990847905140177
 20
0.6190522961037281
 10
0.7994691224489637
 20
0.6186041999971237
 10
0.7998306844698969
 20
0.6181376910869816
 10
0.8001693646950079
 20
0.6176539688398195
 10
0.8004850512424908
 20
0.6171542327221705
 10
0.8007776322305421
 20
0.6166396822005556
 10
0.8010469957773524
 20
0.6161115167415104
 10
0.801293030001117
 20
0.6155709358115565
 10
0.801515623020031
 20
0.615019138877225
 10
0.8017146629522874
 20
0.6144573254050404
 10
0.801890037916077
 20
0.6138866948615335
 10
0.8020416360295973
 20
0.6133084467132276
 10
0.8021693454110423
 20
0.6127237804266532
 10
0.8022730541786038
 20
0.6121338954683392
 10
0.8023526504504739
 20
0.6115399913048108
 10
0.802408022344852
 20
0.6109432674025959
 10
0.8024390579799255
 20
0.6103449232282226
 10
0.8024456454738933
 20
0.6097461582482203
 10
0.8024276729449469
 20
0.6091481719291117
 10
0.8023850285112805
 20
0.6085521637374289
 10
0.8023176002910893
 20
0.6079593331396949
 10
0.8022252764025642
 20
0.6073708796024431
 10
0.8021079449639014
 20
0.6067880025921973
 10
0.8019654940932927
 20
0.6062119015754852
 10
0.8017978119089355
 20
0.6056437760188356
 10
0.8016047865290208
 20
0.6050848253887742
 10
0.8013863060717391
 20
0.6045362491518307
 10
0.8011422586552913
 20
0.6039992467745315
 10
0.800872532397867
 20
0.6034750177234056
 10
0.8005770154176616
 20
0.6029647614649767
 10
0.8002555958328665
 20
0.6024696774657768
 10
0.7867000445622985
 20
0.5827141261542873
 10
0.7863599223332108
 20
0.5822161789204661
 10
0.7860068184288157
 20
0.5816995414780667
 10
0.7856416257467992
 20
0.581165502806997
 10
0.7852652371848571
 20
0.5806153518871523
 10
0.7848785456406823
 20
0.5800503776984407
 10
0.7844824440119607
 20
0.5794718692207572
 10
0.7840778251963916
 20
0.5788811154340083
 10
0.7836655820916599
 20
0.5782794053180956
 10
0.7832466075954639
 20
0.5776680278529169
 10
0.7828217946054895
 20
0.5770482720183804
 10
0.7823920360194305
 20
0.57642142679438
 10
0.7819582247349797
 20
0.5757887811608242
 10
0.7815212536498284
 20
0.5751516240976119
 10
0.7810820156616693
 20
0.5745112445846464
 10
0.7806414036681931
 20
0.5738689316018258
 10
0.7802003105670923
 20
0.5732259741290554
 10
0.7797596292560561
 20
0.5725836611462362
 10
0.7793202526327797
 20
0.5719432816332695
 10
0.7788830735949532
 20
0.5713061245700576
 10
0.7784489850402695
 20
0.5706734789365027
 10
0.77801887986642
 20
0.5700466337125015
 10
0.7775936509710941
 20
0.5694268778779643
 10
0.7771741912519868
 20
0.5688155004127875
 10
0.7767613936067895
 20
0.568213790296873
 10
0.7763561509331927
 20
0.5676230365101238
 10
0.775959356128889
 20
0.5670445280324422
 10
0.7755719020915689
 20
0.5664795538437272
 10
0.775194681718925
 20
0.565929402923885
 10
0.7748285879086512
 20
0.5653953642528147
 10
0.7744745135584357
 20
0.5648787268104164
 10
0.7741333515659721
 20
0.564380779576595
 10
0.6567666972480454
 20
0.393358573723439
 10
0.6564414252552286
 20
0.3928586228828493
 10
0.6561344808423116
 20
0.3923381533154679
 10
0.655845946814516
 20
0.3917984987777064
 10
0.6555759059770642
 20
0.3912409930259769
 10
0.6553244411351803
 20
0.3906669698166919
 10
0.6550916350940864
 20
0.3900777629062624
 10
0.6548775706590112
 20
0.3894747060510997
 10
0.6546823306351701
 20
0.388859133007619
 10
0.6545059978277931
 20
0.3882323775322302
 10
0.6543486550421009
 20
0.3875957733813453
 10
0.6542103850833157
 20
0.386950654311374
 10
0.6540912707566631
 20
0.3862983540787345
 10
0.6539913948673647
 20
0.385640206439832
 10
0.6539108402206473
 20
0.3849775451510813
 10
0.6538496896217307
 20
0.3843117039688977
 10
0.6538080258758381
 20
0.3836440166496894
 10
0.6537859317881938
 20
0.382975816949868
 10
0.6537834901640242
 20
0.382308438625846
 10
0.6538007838085481
 20
0.3816432154340382
 10
0.6538378955269909
 20
0.3809814811308545
 10
0.6538949081245768
 20
0.380324569472704
 10
0.6539719044065281
 20
0.3796738142160048
 10
0.6540689671780677
 20
0.3790305491171634
 10
0.6541861792444211
 20
0.3783961079325953
 10
0.6543236234108115
 20
0.3777718244187102
 10
0.6544813824824588
 20
0.3771590323319235
 10
0.6546595392645871
 20
0.3765590654286433
 10
0.6548581765624253
 20
0.3759732574652846
 10
0.6550773771811899
 20
0.3754029421982579
 10
0.6553172239261084
 20
0.3748494533839739
 10
0.6555777996024028
 20
0.3743141247788476
 10
0.7310666977384247
 20
0.1982141236165875
 10
0.7312753363539051
 20
0.1976555797639798
 10
0.731511323299414
 20
0.1970988174646078
 10
0.7317736336551415
 20
0.1965447161602085
 10
0.7320612425012784
 20
0.1959941552925281
 10
0.732373124918019
 20
0.1954480143033134
 10
0.7327082559855498
 20
0.1949071726343034
 10
0.7330656107840641
 20
0.1943725097272461
 10
0.7334441643937537
 20
0.1938449050238804
 10
0.7338428918948074
 20
0.1933252379659577
 10
0.7342607683674197
 20
0.1928143879952155
 10
0.7346967688917768
 20
0.1923132345533965
 10
0.7351498685480743
 20
0.1918226570822507
 10
0.7356190424164998
 20
0.1913435350235206
 10
0.7361032655772474
 20
0.1908767478189458
 10
0.7366015131105071
 20
0.1904231749102737
 10
0.7371127600964686
 20
0.1899836957392474
 10
0.7376359816153231
 20
0.1895591897476115
 10
0.7381701527472646
 20
0.1891505363771065
 10
0.7387142485724808
 20
0.1887586150694803
 10
0.739267244171165
 20
0.1883843052664759
 10
0.7398281146235067
 20
0.1880284864098349
 10
0.7403958350096972
 20
0.1876920379413051
 10
0.7409693804099273
 20
0.1873758393026275
 10
0.7415477259043902
 20
0.1870807699355474
 10
0.7421298465732756
 20
0.186807709281807
 10
0.7427147174967735
 20
0.1865575367831524
 10
0.7433013137550748
 20
0.1863311318813225
 10
0.7438886104283727
 20
0.186129374018067
 10
0.7444755825968581
 20
0.185953142635129
 10
0.7450612053407196
 20
0.1858033171742503
 10
0.7456444537401505
 20
0.1856807770771744
 10
0.9464778015223426
 20
0.1483252256495243
 10
0.947071196589292
 20
0.1482144536735882
 10
0.9476869161997906
 20
0.1480995326112164
 10
0.9483234207301428
 20
0.1479807533868279
 10
0.9489791705566569
 20
0.1478584069248371
 10
0.9496526260556416
 20
0.1477327841496502
 10
0.9503422476033996
 20
0.1476041759856851
 10
0.9510464955762429
 20
0.1474728733573548
 10
0.9517638303504745
 20
0.1473391671890696
 10
0.9524927123024051
 20
0.1472033484052462
 10
0.9532316018083385
 20
0.1470657079302937
 10
0.9539789592445825
 20
0.1469265366886263
 10
0.9547332449874454
 20
0.1467861256046647
 10
0.9554929194132336
 20
0.1466447656028095
 10
0.9562564428982543
 20
0.1465027476074857
 10
0.9570222758188139
 20
0.1463603625430935
 10
0.957788878551221
 20
0.1462179013340588
 10
0.9585547114717806
 20
0.1460756549047865
 10
0.9593182349568014
 20
0.1459339141796921
 10
0.9600779093825895
 20
0.1457929700831928
 10
0.9608321951254535
 20
0.1456531135396941
 10
0.9615795525616975
 20
0.1455146354736123
 10
0.962318442067631
 20
0.1453778268093642
 10
0.9630473240195604
 20
0.1452429784713565
 10
0.9637646587937931
 20
0.1451103813840091
 10
0.9644689067666353
 20
0.1449803264717298
 10
0.9651585283143944
 20
0.1448531046589344
 10
0.9658319838133769
 20
0.1447290068700336
 10
0.9664877336398922
 20
0.144608324029442
 10
0.9671242381702454
 20
0.1444913470615738
 10
0.967739957780743
 20
0.1443783668908402
 10
0.9683333528476923
 20
0.1442696744416575
 10
0.9918889041842622
 20
0.1398807767748939
 10
0.9924670656089669
 20
0.1397563703370501
 10
0.9930375913818911
 20
0.1396031185810933
 10
0.9935997139430931
 20
0.1394219367731537
 10
0.9941526657326356
 20
0.1392137401793528
 10
0.9946956791905806
 20
0.1389794440658143
 10
0.9952279867569918
 20
0.1387199636986594
 10
0.995748820871932
 20
0.138436214344008
 10
0.996257413975462
 20
0.1381291112679929
 10
0.9967529985076443
 20
0.1377995697367343
 10
0.9972348069085409
 20
0.1374485050163571
 10
0.9977020716182123
 20
0.1370768323729836
 10
0.9981540250767269
 20
0.1366854670727382
 10
0.9985898997241408
 20
0.136275324381744
 10
0.9990089280005212
 20
0.1358473195661246
 10
0.9994103423459255
 20
0.1354023678920007
 10
0.9997933752004187
 20
0.1349413846255078
 10
1.0001572590040646
 20
0.134465285032754
 10
1.0005012261969217
 20
0.1339749843798762
 10
1.0008245092190551
 20
0.1334713979329954
 10
1.0011263405105273
 20
0.1329554409582243
 10
1.0014059525113983
 20
0.1324280287216959
 10
1.0016625776617327
 20
0.1318900764895371
 10
1.0018954484015923
 20
0.1313424995278695
 10
1.0021037971710389
 20
0.1307862131028105
 10
1.0022868564101344
 20
0.1302221324804897
 10
1.0024438585589421
 20
0.1296511729270292
 10
1.0025740360575233
 20
0.1290742497085506
 10
1.0026766213459415
 20
0.1284922780911812
 10
1.0027508468642585
 20
0.1279061733410442
 10
1.0027959450525361
 20
0.1273168507242656
 10
1.002811148350836
 20
0.1267252255069652
 10
1.002800045988558
 20
0.1027696741677545
 10
1.002800045988558
 20
0.0805474299265984
 10
1.002800045988558
 20
0.0111030200194514
 10
1.002800045988558
 20
-0.0111192242217058
 10
1.002800045988558
 20
-0.0805414294043003
 10
1.002800045988558
 20
-0.1027636736454556
 10
1.002800045988558
 20
-0.1267081226223881
 10
1.0027848086578881
 20
-0.127298774785145
 10
1.002739611369766
 20
-0.1278873166477071
 10
1.0026652261800157
 20
-0.1284728172915934
 10
1.0025624251444634
 20
-0.1290543457983316
 10
1.002431980318937
 20
-0.1296309712494459
 10
1.002274663759257
 20
-0.130201762726464
 10
1.0020912475212562
 20
-0.1307657893109005
 10
1.001882503660757
 20
-0.1313221200842885
 10
1.0016492042335869
 20
-0.1318698241281516
 10
1.0013921212955712
 20
-0.1324079705240105
 10
1.0011120269025349
 20
-0.132935628353391
 10
1.000809693110303
 20
-0.1334518666978174
 10
1.0004858919747071
 20
-0.1339557546388159
 10
1.0001413955515679
 20
-0.1344463612579081
 10
0.9997769758967103
 20
-0.1349227556366204
 10
0.9993934050659664
 20
-0.1353840068564736
 10
0.9989914551151581
 20
-0.1358291839989961
 10
0.9985718981001107
 20
-0.1362573561457126
 10
0.9981355060766522
 20
-0.1366675923781419
 10
0.9976830511006087
 20
-0.137058961777813
 10
0.9972153052278048
 20
-0.1374305334262499
 10
0.9967330405140675
 20
-0.1377813764049771
 10
0.9962370290152227
 20
-0.1381105597955152
 10
0.9957280427870964
 20
-0.1384171526793922
 10
0.9952068538855137
 20
-0.1387002241381318
 10
0.9946742343663011
 20
-0.1389588432532574
 10
0.994130956285285
 20
-0.1391920791062951
 10
0.9935777916982925
 20
-0.1393990007787674
 10
0.9930155126611478
 20
-0.1395786773521983
 10
0.9924448912296752
 20
-0.1397301779081141
 10
0.9918666994597052
 20
-0.1398525715280383
 10
0.9683222504854143
 20
-0.1442303274624453
 10
0.9677288554184633
 20
-0.1443411037532199
 10
0.9671131358079663
 20
-0.1444560331426318
 10
0.9664766312776142
 20
-0.1445748292100798
 10
0.9658208814510989
 20
-0.1446972055349743
 10
0.9651474259521154
 20
-0.1448228756967171
 10
0.9644578044043562
 20
-0.1449515532747156
 10
0.9637535564315152
 20
-0.145082951848369
 10
0.9630362216572824
 20
-0.1452167849970835
 10
0.9623073397053531
 20
-0.1453527663002644
 10
0.9615684501994195
 20
-0.1454906093373195
 10
0.9608210927631744
 20
-0.1456300276876477
 10
0.9600668070203116
 20
-0.1457707349306578
 10
0.9593071325945245
 20
-0.145912444645751
 10
0.9585436091095015
 20
-0.1460548704123319
 10
0.9577777761889424
 20
-0.1461977258098089
 10
0.957011173456536
 20
-0.146340724417582
 10
0.9562453405359758
 20
-0.1464835798150584
 10
0.9554818170509556
 20
-0.146626005581641
 10
0.9547221426251675
 20
-0.1467677152967354
 10
0.9539678568823046
 20
-0.1469084225397426
 10
0.9532204994460589
 20
-0.1470478408900728
 10
0.9524816099401254
 20
-0.1471856839271274
 10
0.9517527279881965
 20
-0.1473216652303102
 10
0.9510353932139639
 20
-0.1474554983790255
 10
0.9503311452411227
 20
-0.1475868969526778
 10
0.9496415236933636
 20
-0.1477155745306757
 10
0.948968068194379
 20
-0.1478412446924185
 10
0.9483123183678649
 20
-0.1479636210173122
 10
0.9476758138375126
 20
-0.1480824170847616
 10
0.9470600942270156
 20
-0.1481973464741729
 10
0.9464666991600647
 20
-0.1483081227649478
 10
0.7516778002366633
 20
-0.1845525718230588
 10
0.7510949650069898
 20
-0.1846742397666998
 10
0.7505105698467978
 20
-0.1848235962609652
 10
0.7499256217874944
 20
-0.1849997484081671
 10
0.749341127860488
 20
-0.1852018033106142
 10
0.7487580950971811
 20
-0.1854288680706126
 10
0.7481775305289837
 20
-0.1856800497904723
 10
0.747600441187303
 20
-0.1859544555724992
 10
0.7470278341035431
 20
-0.1862511925190017
 10
0.7464607163091143
 20
-0.1865693677322916
 10
0.7459000948354201
 20
-0.1869080883146733
 10
0.7453469767138677
 20
-0.1872664613684564
 10
0.744802368975866
 20
-0.1876435939959507
 10
0.7442672786528182
 20
-0.1880385932994622
 10
0.7437427127761352
 20
-0.1884505663812981
 10
0.743229678377221
 20
-0.1888786203437702
 10
0.7427291824874848
 20
-0.1893218622891824
 10
0.7422422321383293
 20
-0.1897793993198474
 10
0.7417698343611663
 20
-0.1902503385380708
 10
0.7413129961873988
 20
-0.1907337870461591
 10
0.7408727246484356
 20
-0.1912288519464242
 10
0.7404500267756806
 20
-0.1917346403411742
 10
0.7400459096005443
 20
-0.1922502593327144
 10
0.7396613801544303
 20
-0.1927748160233531
 10
0.7392974454687493
 20
-0.1933074175154026
 10
0.738955112574904
 20
-0.1938471709111666
 10
0.738635388504303
 20
-0.1943931833129547
 10
0.7383392802883531
 20
-0.1949445618230764
 10
0.7380677949584605
 20
-0.1955004135438379
 10
0.7378219395460323
 20
-0.1960598455775505
 10
0.7376027210824753
 20
-0.196621965026518
 10
0.7374111465991962
 20
-0.1971858789930534
 10
0.662433350828752
 20
-0.3845081243238672
 10
0.6621834897238834
 20
-0.385048860153164
 10
0.6619542725646227
 20
-0.385607805376794
 10
0.6617456008775371
 20
-0.3861836061059628
 10
0.6615573761891882
 20
-0.3867749084518765
 10
0.6613895000261488
 20
-0.3873803585257412
 10
0.6612418739149786
 20
-0.3879986024387666
 10
0.6611143993822488
 20
-0.3886282863021541
 10
0.6610069779545221
 20
-0.3892680562271144
 10
0.660919511158366
 20
-0.3899165583248483
 10
0.6608519005203469
 20
-0.3905724387065687
 10
0.66080404756703
 20
-0.3912343434834769
 10
0.6607758538249831
 20
-0.3919009187667823
 10
0.6607672208207706
 20
-0.3925708106676877
 10
0.6607780500809617
 20
-0.3932426652974027
 10
0.6608082431321186
 20
-0.393915128767132
 10
0.6608577015008109
 20
-0.3945868471880813
 10
0.6609263267136023
 20
-0.39525646667146
 10
0.6610140202970608
 20
-0.3959226333284715
 10
0.6611206837777511
 20
-0.3965839932703223
 10
0.6612462186822409
 20
-0.3972391926082189
 10
0.6613905265370947
 20
-0.3978868774533694
 10
0.6615535088688802
 20
-0.3985256939169768
 10
0.6617350672041631
 20
-0.3991542881102488
 10
0.6619351030695094
 20
-0.3997713061443929
 10
0.6621535179914849
 20
-0.400375394130614
 10
0.6623902134966565
 20
-0.400965198180118
 10
0.6626450911115896
 20
-0.4015393644041139
 10
0.6629180523628533
 20
-0.4020965389138036
 10
0.6632089987770097
 20
-0.402635367820397
 10
0.6635178318806254
 20
-0.4031544972351015
 10
0.6638444532002695
 20
-0.4036525732691193
 10
0.7741444539282495
 20
-0.5643858814165735
 10
0.774486659624929
 20
-0.5648827881403465
 10
0.7748417101300271
 20
-0.5653984499102227
 10
0.7752087148056893
 20
-0.5659315732662745
  0
ENDSEC
  0
SECTION
  2
OBJECTS
  0
DICTIONARY
  5
C
100
AcDbDictionary
280
0
281
1
  3
ACAD_GROUP
350
D
  3
ACAD_LAYOUT
350
1A
  3
ACAD_MLINESTYLE
350
17
  3
ACAD_PLOTSETTINGS
350
19
  3
ACAD_PLOTSTYLENAME
350
E
  3
AcDbVariableDictionary
350
47
  0
DICTIONARY
  5
D
100
AcDbDictionary
280
0
281
1
  0
ACDBDICTIONARYWDFLT
  5
E
100
AcDbDictionary
281
1
  3
Normal
350
F
100
AcDbDictionaryWithDefault
340
F
  0
ACDBPLACEHOLDER
  5
F
  0
DICTIONARY
  5
17
100
AcDbDictionary
280
0
281
1
  3
Standard
350
18
  0
MLINESTYLE
  5
18
100
AcDbMlineStyle
  2
STANDARD
 70
0
  3

 62
256
 51
90.0
 52
90.0
 71
2
 49
0.5
 62
256
  6
BYLAYER
 49
-0.5
 62
256
  6
BYLAYER
  0
DICTIONARY
  5
19
100
AcDbDictionary
280
0
281
1
  0
DICTIONARY
  5
1A
100
AcDbDictionary
281
1
  3
Layout1
350
1E
  3
Layout2
350
26
  3
Model
350
22
  0
LAYOUT
  5
1E
100
AcDbPlotSettings
  1

  2
C:\Program Files\AutoCAD 2002\plotters\DWF ePlot (optimized for plotting).pc3
  4

  6

 40
0.0
 41
0.0
 42
0.0
 43
0.0
 44
0.0
 45
0.0
 46
0.0
 47
0.0
 48
0.0
 49
0.0
140
0.0
141
0.0
142
1.0
143
1.0
 70
688
 72
0
 73
0
 74
5
  7

 75
16
147
1.0
148
0.0
149
0.0
100
AcDbLayout
  1
Layout1
 70
1
 71
1
 10
0.0
 20
0.0
 11
420.0
 21
297.0
 12
0.0
 22
0.0
 32
0.0
 14
100000000000000000000.0
 24
100000000000000000000.0
 34
100000000000000000000.0
 15
-100000000000000000000.0
 25
-100000000000000000000.0
 35
-100000000000000000000.0
146
0.0
 13
0.0
 23
0.0
 33
0.0
 16
1.0
 26
0.0
 36
0.0
 17
0.0
 27
1.0
 37
0.0
 76
0
330
1B
  0
LAYOUT
  5
22
100
AcDbPlotSettings
  1

  2
C:\Program Files\AutoCAD 2002\plotters\DWF ePlot (optimized for plotting).pc3
  4

  6

 40
0.0
 41
0.0
 42
0.0
 43
0.0
 44
0.0
 45
0.0
 46
0.0
 47
0.0
 48
0.0
 49
0.0
140
0.0
141
0.0
142
1.0
143
1.0
 70
1712
 72
0
 73
0
 74
0
  7

 75
0
147
1.0
148
0.0
149
0.0
100
AcDbLayout
  1
Model
 70
1
 71
0
 10
0.0
 20
0.0
 11
12.0
 21
9.0
 12
0.0
 22
0.0
 32
0.0
 14
0.0
 24
0.0
 34
0.0
 15
0.0
 25
0.0
 35
0.0
146
0.0
 13
0.0
 23
0.0
 33
0.0
 16
1.0
 26
0.0
 36
0.0
 17
0.0
 27
1.0
 37
0.0
 76
0
330
1F
  0
LAYOUT
  5
26
100
AcDbPlotSettings
  1

  2
C:\Program Files\AutoCAD 2002\plotters\DWF ePlot (optimized for plotting).pc3
  4

  6

 40
0.0
 41
0.0
 42
0.0
 43
0.0
 44
0.0
 45
0.0
 46
0.0
 47
0.0
 48
0.0
 49
0.0
140
0.0
141
0.0
142
1.0
143
1.0
 70
688
 72
0
 73
0
 74
5
  7

 75
16
147
1.0
148
0.0
149
0.0
100
AcDbLayout
  1
Layout2
 70
1
 71
2
 10
0.0
 20
0.0
 11
12.0
 21
9.0
 12
0.0
 22
0.0
 32
0.0
 14
0.0
 24
0.0
 34
0.0
 15
0.0
 25
0.0
 35
0.0
146
0.0
 13
0.0
 23
0.0
 33
0.0
 16
1.0
 26
0.0
 36
0.0
 17
0.0
 27
1.0
 37
0.0
 76
0
330
23
  0
DICTIONARY
  5
47
100
AcDbDictionary
281
1
  3
DIMASSOC
350
49
  3
HIDETEXT
350
48
  0
DICTIONARYVAR
  5
48
100
DictionaryVariables
280
0
  1
2
  0
DICTIONARYVAR
  5
49
100
DictionaryVariables
280
0
  1
1
  0
ENDSEC
  0
EOF
