999
dxflib 2.2.0.0
  0
SECTION
  2
HEADER
  9
$ACADVER
  1
AC1015
  9
$HANDSEED
  5
FFFF
  9
$DIMASZ
 40
2.5
  9
$PLIMMIN
 10
0.0
 20
0.0
  9
$DIMEXE
 40
1.25
  9
$DIMGAP
 40
0.625
  9
$PLIMMAX
 10
210.0
 20
297.0
  9
$INSUNITS
 70
4
  9
$DIMSTYLE
  2
Standard
  9
$MEASUREMENT
 70
1
  9
$CLAYER
  8
outer_shell
  9
$DIMEXO
 40
0.625
  9
$DIMTXT
 40
2.5
  9
$CLAYER
  8
outer_shell
  0
ENDSEC
  0
SECTION
  2
TABLES
  0
TABLE
  2
VPORT
  5
8
100
AcDbSymbolTable
 70
1
  0
VPORT
  5
30
100
AcDbSymbolTableRecord
100
AcDbViewportTableRecord
  2
*Active
 70
0
 10
0.0
 20
0.0
 11
1.0
 21
1.0
 12
286.3055555555554861
 22
148.5
 13
0.0
 23
0.0
 14
10.0
 24
10.0
 15
10.0
 25
10.0
 16
0.0
 26
0.0
 36
1.0
 17
0.0
 27
0.0
 37
0.0
 40
297.0
 41
1.92798353909465
 42
50.0
 43
0.0
 44
0.0
 50
0.0
 51
0.0
 71
0
 72
100
 73
1
 74
3
 75
1
 76
1
 77
0
 78
0
281
0
 65
1
110
0.0
120
0.0
130
0.0
111
1.0
121
0.0
131
0.0
112
0.0
122
1.0
132
0.0
 79
0
146
0.0
  0
ENDTAB
  0
TABLE
  2
LTYPE
  5
5
100
AcDbSymbolTable
 70
21
  0
LTYPE
  5
14
100
AcDbSymbolTableRecord
100
AcDbLinetypeTableRecord
  2
ByBlock
 70
0
  3

 72
65
 73
0
 40
0.0
  0
LTYPE
  5
15
100
AcDbSymbolTableRecord
100
AcDbLinetypeTableRecord
  2
ByLayer
 70
0
  3

 72
65
 73
0
 40
0.0
  0
LTYPE
  5
16
100
AcDbSymbolTableRecord
100
AcDbLinetypeTableRecord
  2
CONTINUOUS
 70
0
  3
Solid line
 72
65
 73
0
 40
0.0
  0
LTYPE
  5
31
100
AcDbSymbolTableRecord
100
AcDbLinetypeTableRecord
  2
DOT
 70
0
  3
Dot . . . . . . . . . . . . . . . . . . . . . .
 72
65
 73
2
 40
6.3499999999999996
 49
0.0
 74
0
 49
-6.3499999999999996
 74
0
  0
LTYPE
  5
32
100
AcDbSymbolTableRecord
100
AcDbLinetypeTableRecord
  2
DOT2
 70
0
  3
Dot (.5x) .....................................
 72
65
 73
2
 40
3.1749999999999998
 49
0.0
 74
0
 49
-3.1749999999999998
 74
0
  0
LTYPE
  5
33
100
AcDbSymbolTableRecord
100
AcDbLinetypeTableRecord
  2
DOTX2
 70
0
  3
Dot (2x) .  .  .  .  .  .  .  .  .  .  .  .  .
 72
65
 73
2
 40
12.6999999999999993
 49
0.0
 74
0
 49
-12.6999999999999993
 74
0
  0
LTYPE
  5
34
100
AcDbSymbolTableRecord
100
AcDbLinetypeTableRecord
  2
DASHED
 70
0
  3
Dashed __ __ __ __ __ __ __ __ __ __ __ __ __ _
 72
65
 73
2
 40
19.0500000000000007
 49
12.6999999999999993
 74
0
 49
-6.3499999999999996
 74
0
  0
LTYPE
  5
35
100
AcDbSymbolTableRecord
100
AcDbLinetypeTableRecord
  2
DASHED2
 70
0
  3
Dashed (.5x) _ _ _ _ _ _ _ _ _ _ _ _ _ _ _ _ _
 72
65
 73
2
 40
9.5250000000000004
 49
6.3499999999999996
 74
0
 49
-3.1749999999999998
 74
0
  0
LTYPE
  5
36
100
AcDbSymbolTableRecord
100
AcDbLinetypeTableRecord
  2
DASHEDX2
 70
0
  3
Dashed (2x) ____  ____  ____  ____  ____  ___
 72
65
 73
2
 40
38.1000000000000014
 49
25.3999999999999986
 74
0
 49
-12.6999999999999993
 74
0
  0
LTYPE
  5
37
100
AcDbSymbolTableRecord
100
AcDbLinetypeTableRecord
  2
DASHDOT
 70
0
  3
Dash dot __ . __ . __ . __ . __ . __ . __ . __
 72
65
 73
4
 40
25.3999999999999986
 49
12.6999999999999993
 74
0
 49
-6.3499999999999996
 74
0
 49
0.0
 74
0
 49
-6.3499999999999996
 74
0
  0
LTYPE
  5
38
100
AcDbSymbolTableRecord
100
AcDbLinetypeTableRecord
  2
DASHDOT2
 70
0
  3
Dash dot (.5x) _._._._._._._._._._._._._._._.
 72
65
 73
4
 40
12.6999999999999993
 49
6.3499999999999996
 74
0
 49
-3.1749999999999998
 74
0
 49
0.0
 74
0
 49
-3.1749999999999998
 74
0
  0
LTYPE
  5
39
100
AcDbSymbolTableRecord
100
AcDbLinetypeTableRecord
  2
DASHDOTX2
 70
0
  3
Dash dot (2x) ____  .  ____  .  ____  .  ___
 72
65
 73
4
 40
50.7999999999999972
 49
25.3999999999999986
 74
0
 49
-12.6999999999999993
 74
0
 49
0.0
 74
0
 49
-12.6999999999999993
 74
0
  0
LTYPE
  5
3A
100
AcDbSymbolTableRecord
100
AcDbLinetypeTableRecord
  2
DIVIDE
 70
0
  3
Divide ____ . . ____ . . ____ . . ____ . . ____
 72
65
 73
6
 40
31.75
 49
12.6999999999999993
 74
0
 49
-6.3499999999999996
 74
0
 49
0.0
 74
0
 49
-6.3499999999999996
 74
0
 49
0.0
 74
0
 49
-6.3499999999999996
 74
0
  0
LTYPE
  5
3B
100
AcDbSymbolTableRecord
100
AcDbLinetypeTableRecord
  2
DIVIDE2
 70
0
  3
Divide (.5x) __..__..__..__..__..__..__..__.._
 72
65
 73
6
 40
15.875
 49
6.3499999999999996
 74
0
 49
-3.1749999999999998
 74
0
 49
0.0
 74
0
 49
-3.1749999999999998
 74
0
 49
0.0
 74
0
 49
-3.1749999999999998
 74
0
  0
LTYPE
  5
3C
100
AcDbSymbolTableRecord
100
AcDbLinetypeTableRecord
  2
DIVIDEX2
 70
0
  3
Divide (2x) ________  .  .  ________  .  .  _
 72
65
 73
6
 40
63.5
 49
25.3999999999999986
 74
0
 49
-12.6999999999999993
 74
0
 49
0.0
 74
0
 49
-12.6999999999999993
 74
0
 49
0.0
 74
0
 49
-12.6999999999999993
 74
0
  0
LTYPE
  5
3D
100
AcDbSymbolTableRecord
100
AcDbLinetypeTableRecord
  2
CENTER
 70
0
  3
Center ____ _ ____ _ ____ _ ____ _ ____ _ ____
 72
65
 73
4
 40
50.7999999999999972
 49
31.75
 74
0
 49
-6.3499999999999996
 74
0
 49
6.3499999999999996
 74
0
 49
-6.3499999999999996
 74
0
  0
LTYPE
  5
3E
100
AcDbSymbolTableRecord
100
AcDbLinetypeTableRecord
  2
CENTER2
 70
0
  3
Center (.5x) ___ _ ___ _ ___ _ ___ _ ___ _ ___
 72
65
 73
4
 40
28.5749999999999993
 49
19.0500000000000007
 74
0
 49
-3.1749999999999998
 74
0
 49
3.1749999999999998
 74
0
 49
-3.1749999999999998
 74
0
  0
LTYPE
  5
3F
100
AcDbSymbolTableRecord
100
AcDbLinetypeTableRecord
  2
CENTERX2
 70
0
  3
Center (2x) ________  __  ________  __  _____
 72
65
 73
4
 40
101.5999999999999943
 49
63.5
 74
0
 49
-12.6999999999999993
 74
0
 49
12.6999999999999993
 74
0
 49
-12.6999999999999993
 74
0
  0
LTYPE
  5
40
100
AcDbSymbolTableRecord
100
AcDbLinetypeTableRecord
  2
BORDER
 70
0
  3
Border __ __ . __ __ . __ __ . __ __ . __ __ .
 72
65
 73
6
 40
44.4500000000000028
 49
12.6999999999999993
 74
0
 49
-6.3499999999999996
 74
0
 49
12.6999999999999993
 74
0
 49
-6.3499999999999996
 74
0
 49
0.0
 74
0
 49
-6.3499999999999996
 74
0
  0
LTYPE
  5
41
100
AcDbSymbolTableRecord
100
AcDbLinetypeTableRecord
  2
BORDER2
 70
0
  3
Border (.5x) __.__.__.__.__.__.__.__.__.__.__.
 72
65
 73
6
 40
22.2250000000000014
 49
6.3499999999999996
 74
0
 49
-3.1749999999999998
 74
0
 49
6.3499999999999996
 74
0
 49
-3.1749999999999998
 74
0
 49
0.0
 74
0
 49
-3.1749999999999998
 74
0
  0
LTYPE
  5
42
100
AcDbSymbolTableRecord
100
AcDbLinetypeTableRecord
  2
BORDERX2
 70
0
  3
Border (2x) ____  ____  .  ____  ____  .  ___
 72
65
 73
6
 40
88.9000000000000057
 49
25.3999999999999986
 74
0
 49
-12.6999999999999993
 74
0
 49
25.3999999999999986
 74
0
 49
-12.6999999999999993
 74
0
 49
0.0
 74
0
 49
-12.6999999999999993
 74
0
  0
ENDTAB
  0
TABLE
  2
LAYER
  5
2
100
AcDbSymbolTable
 70
3
  0
LAYER
  5
10
100
AcDbSymbolTableRecord
100
AcDbLayerTableRecord
  2
0
 70
0
 62
7
420
16777215
  6
CONTINUOUS
390
F
  0
LAYER
  5
43
100
AcDbSymbolTableRecord
100
AcDbLayerTableRecord
  2
inner_shell
 70
0
 62
5
420
255
  6
CONTINUOUS
370
0
390
F
  0
LAYER
  5
44
100
AcDbSymbolTableRecord
100
AcDbLayerTableRecord
  2
outer_shell
 70
0
 62
8
420
8421504
  6
CONTINUOUS
370
0
390
F
  0
ENDTAB
  0
TABLE
  2
STYLE
  5
3
100
AcDbSymbolTable
 70
1
  0
STYLE
  5
11
100
AcDbSymbolTableRecord
100
AcDbTextStyleTableRecord
  2
Standard
 70
0
 40
0.0
 41
0.75
 50
0.0
 71
0
 42
2.5
  3
txt
  4

  0
ENDTAB
  0
TABLE
  2
VIEW
  5
6
100
AcDbSymbolTable
 70
0
  0
ENDTAB
  0
TABLE
  2
UCS
  5
7
100
AcDbSymbolTable
 70
0
  0
ENDTAB
  0
TABLE
  2
APPID
  5
9
100
AcDbSymbolTable
 70
1
  0
APPID
  5
12
100
AcDbSymbolTableRecord
100
AcDbRegAppTableRecord
  2
ACAD
 70
0
  0
ENDTAB
  0
TABLE
  2
DIMSTYLE
  5
A
100
AcDbSymbolTable
 70
1
100
AcDbDimStyleTable
 71
0
  0
DIMSTYLE
105
27
100
AcDbSymbolTableRecord
100
AcDbDimStyleTableRecord
  2
Standard
 41
2.5
 42
0.625
 43
3.75
 44
1.25
 70
0
 73
0
 74
0
 77
1
 78
8
140
2.5
141
2.5
143
0.03937007874016
147
0.625
171
3
172
1
271
2
272
2
274
3
278
44
283
0
284
8
340
11
  0
ENDTAB
  0
TABLE
  2
BLOCK_RECORD
  5
1
100
AcDbSymbolTable
 70
1
  0
BLOCK_RECORD
  5
1F
100
AcDbSymbolTableRecord
100
AcDbBlockTableRecord
  2
*Model_Space
340
22
  0
BLOCK_RECORD
  5
1B
100
AcDbSymbolTableRecord
100
AcDbBlockTableRecord
  2
*Paper_Space
340
1E
  0
BLOCK_RECORD
  5
23
100
AcDbSymbolTableRecord
100
AcDbBlockTableRecord
  2
*Paper_Space0
340
26
  0
ENDTAB
  0
ENDSEC
  0
SECTION
  2
BLOCKS
  0
BLOCK
  5
20
100
AcDbEntity
  8
0
100
AcDbBlockBegin
  2
*Model_Space
 70
0
 10
0.0
 20
0.0
 30
0.0
  3
*Model_Space
  1

  0
ENDBLK
  5
21
100
AcDbEntity
  8
0
100
AcDbBlockEnd
  0
BLOCK
  5
1C
100
AcDbEntity
 67
1
  8
0
100
AcDbBlockBegin
  2
*Paper_Space
 70
0
 10
0.0
 20
0.0
 30
0.0
  3
*Paper_Space
  1

  0
ENDBLK
  5
1D
100
AcDbEntity
 67
1
  8
0
100
AcDbBlockEnd
  0
BLOCK
  5
24
100
AcDbEntity
  8
0
100
AcDbBlockBegin
  2
*Paper_Space0
 70
0
 10
0.0
 20
0.0
 30
0.0
  3
*Paper_Space0
  1

  0
ENDBLK
  5
25
100
AcDbEntity
  8
0
100
AcDbBlockEnd
  0
ENDSEC
  0
SECTION
  2
ENTITIES
  0
LWPOLYLINE
  5
45
  8
inner_shell
 62
256
370
-1
  6
ByLayer
100
AcDbEntity
100
AcDbPolyline
 90
406
 70
0
 10
-7.0175342681686601
 20
4.8891299382363655
 10
-7.253920569132049
 20
4.5345188211876337
 10
-7.4728612337622877
 20
4.1677950066127067
 10
-7.6737635302948064
 20
3.7895510558893619
 10
-7.8560347269649355
 20
3.4003795303950817
 10
-8.0190820920080625
 20
3.0008729915075154
 10
-8.162312893659589
 20
2.5916240006041047
 10
-8.2851344001548171
 20
2.1732251190628258
 10
-8.3869538797292051
 20
1.7462689082608787
 10
-8.4671786006180696
 20
1.3113479295760619
 10
-8.5252158310567836
 20
0.8690547443859096
 10
-8.5604728392807488
 20
0.4199819140680319
 10
-8.5723568935253169
 20
-0.0352779999999875
 10
-8.5672517247159448
 20
-0.3339606717465067
 10
-8.5520469811356747
 20
-0.6300757527441334
 10
-8.5269088070562375
 20
-0.9234573255009568
 10
-8.492003346749442
 20
-1.213939472525297
 10
-8.4474967444870188
 20
-1.5013562763250352
 10
-8.3935551445407199
 20
-1.7855418194085786
 10
-8.3303446911823258
 20
-2.0663301842838386
 10
-8.2580315286835884
 20
-2.3435554534591319
 10
-8.1767818013162668
 20
-2.6170517094424035
 10
-8.0867616533521129
 20
-2.8866530347419941
 10
-7.9881372290629074
 20
-3.1521935118659998
 10
-7.8810746727203735
 20
-3.4135072233224939
 10
-7.7657401285963203
 20
-3.6704282516196063
 10
-7.6422997409624571
 20
-3.9227906792655611
 10
-7.5109196540905856
 20
-4.1704285887684405
 10
-7.3717660122524507
 20
-4.4131760626363645
 10
-7.2250049597198114
 20
-4.650867183377537
 10
-7.0708026407644198
 20
-4.8833360335000435
 10
-6.909325199658042
 20
-5.1104166955120842
 10
-6.7407387806724515
 20
-5.3319432519217127
 10
-6.565209528079393
 20
-5.5477497852371656
 10
-6.3829035861506043
 20
-5.7576703779665301
 10
-6.1939870991579014
 20
-5.9615391126179258
 10
-5.9986262113730007
 20
-6.1591900716995358
 10
-5.7969870670676613
 20
-6.3504573377194458
 10
-5.5892358105136708
 20
-6.535174993185862
 10
-5.3755385859827811
 20
-6.7131771206068844
 10
-5.1560615377467371
 20
-6.88429780249073
 10
-4.9309708100773051
 20
-7.0483711213453937
 10
-4.700432547246244
 20
-7.2052311596791156
 10
-4.4646128935253131
 20
-7.354712000000017
 10
-8.1456368935253209
 20
-16.2492269999999763
 10
-8.2121949522343343
 20
-16.2150037483468239
 10
-8.2785870302108933
 20
-16.1805050471283636
 10
-8.3448127866809756
 20
-16.1457320898593508
 10
-8.4108718808704879
 20
-16.1106860700547401
 10
-8.4767639720054149
 20
-16.0753681812292442
 10
-8.5424887193116348
 20
-16.0397796168977109
 10
-8.6080457820151324
 20
-16.0039215705750308
 10
-8.6734348193418498
 20
-15.9677952357759612
 10
-8.7386554905177221
 20
-15.9314018060151827
 10
-8.8037074547686558
 20
-15.8947424748078117
 10
-8.8685903713206287
 20
-15.8578184356685004
 10
-8.9333038993995828
 20
-15.8206308821120931
 10
-8.9978476982314461
 20
-15.7831810076533099
 10
-9.0622214270421537
 20
-15.7454700058070944
 10
-9.1264247450576761
 20
-15.707499070088323
 10
-9.1904573115039128
 20
-15.6692693940116303
 10
-9.2543187856068343
 20
-15.6307821710919423
 10
-9.3180088265923473
 20
-15.5920385948441105
 10
-9.3815270936864437
 20
-15.5530398587828937
 10
-9.4448732461150229
 20
-15.5137871564230796
 10
-9.5080469431040484
 20
-15.4742816812796082
 10
-9.5710478438794411
 20
-15.4345246268672032
 10
-9.6338756076671785
 20
-15.3945171867006945
 10
-9.6965298936931603
 20
-15.3542605542949193
 10
-9.7590103611833428
 20
-15.3137559231647149
 10
-9.821316669363668
 20
-15.2730044868248545
 10
-9.8834484774600639
 20
-15.2320074387902924
 10
-9.9454054446985083
 20
-15.1907659725756066
 10
-10.0071872303048934
 20
-15.1492812816957869
 10
-10.0687934935051899
 20
-15.1075545596656351
 10
-10.1302238935253257
 20
-15.0655870000000025
 10
-15.3665748935253319
 20
-18.658840000000005
 10
-17.0124948935253357
 20
-17.0129200000000225
 10
-18.6592618935253256
 20
-15.36643599999997
 10
-15.0177478935253177
 20
-10.0606580000000001
 10
-15.1396636462358742
 20
-9.8712282443020278
 10
-15.2592628642211636
 20
-9.6801828513980617
 10
-15.3765249711326462
 20
-9.4875413745090338
 10
-15.4914293906217679
 20
-9.293323366855768
 10
-15.6039555463399324
 20
-9.0975483816588447
 10
-15.7140828619385999
 20
-8.900235972139301
 10
-15.8217907610692095
 20
-8.7014056915175573
 10
-15.9270586673832
 20
-8.5010770930146702
 10
-16.0298660045319963
 20
-8.2992697298513036
 10
-16.1301921961670658
 20
-8.0960031552481979
 10
-16.228016665939812
 20
-7.8912969224262657
 10
-16.323318837501688
 20
-7.6851705846060625
 10
-16.4160781345041329
 20
-7.4776436950085685
 10
-16.5062739805985856
 20
-7.2687358068543979
 10
-16.5938857994365065
 20
-7.0584664733644384
 10
-16.6788930146692849
 20
-6.8468552477593807
 10
-16.7612750499484022
 20
-6.6339216832600449
 10
-16.8410113289252834
 20
-6.4196853330871662
 10
-16.9180812752513461
 20
-6.2041657504615344
 10
-16.9924643125780506
 20
-5.9873824886039522
 10
-17.0641398645568358
 20
-5.7693551007351402
 10
-17.133087354839148
 20
-5.5501031400758674
 10
-17.1992862070763906
 20
-5.3296461598469698
 10
-17.262715844920038
 20
-5.1080037132691212
 10
-17.3233556920215079
 20
-4.8851953535631614
 10
-17.3811851720322466
 20
-4.6612406339498449
 10
-17.4361837086036857
 20
-4.4361591076499467
 10
-17.4883307253872857
 20
-4.2099703278842497
 10
-17.5376056460344572
 20
-3.9826938478734526
 10
-17.5839878941966674
 20
-3.754349220838507
 10
-17.62745689352532
 20
-3.524955999999988
 10
-24.0595838935253283
 20
-2.3277689999999964
 10
-24.0595838935253141
 20
0.0000000000000249
 10
-24.0598658935252985
 20
2.328615000000168
 10
-17.5063838935253386
 20
3.5475330000000209
 10
-17.5063838935253386
 20
3.5475330000000209
 10
-17.4572580141993541
 20
3.7665910232956374
 10
-17.4054830878457381
 20
3.9846333695075558
 10
-17.3510760528687342
 20
4.2016416789299154
 10
-17.2940538476725436
 20
4.4175975918565733
 10
-17.2344334106613672
 20
4.6324827485817899
 10
-17.1722316802393919
 20
4.8462787893994541
 10
-17.1074655948109182
 20
5.0589673546037321
 10
-17.0401520927801045
 20
5.2705300844885929
 10
-16.9703081125512085
 20
5.4809486193481405
 10
-16.8979505925283604
 20
5.6902045994763952
 10
-16.8230964711158464
 20
5.8982796651673226
 10
-16.7457626867178959
 20
6.105155456715103
 10
-16.6659661777386532
 20
6.3108136144137745
 10
-16.5837238825824329
 20
6.5152357785572796
 10
-16.4990527396533651
 20
6.7184035894397738
 10
-16.4119696873556791
 20
6.9202986873552632
 10
-16.322491664093576
 20
7.1209027125977755
 10
-16.2306356082713421
 20
7.3201973054613632
 10
-16.1364184582932069
 20
7.5181641062401532
 10
-16.039857152563286
 20
7.7147847552281092
 10
-15.9409686294858517
 20
7.9100408927192589
 10
-15.8397698274651049
 20
8.1039141590077186
 10
-15.7362776849052395
 20
8.2963861943875621
 10
-15.6305091402105418
 20
8.4874386391527317
 10
-15.5224811317851987
 20
8.6770531335974255
 10
-15.4122105980333686
 20
8.8652113180155148
 10
-15.2997144773593448
 20
9.0518948327011124
 10
-15.1850097081673141
 20
9.2370853179483774
 10
-15.0681132288614776
 20
9.4207644140512592
 10
-14.9490419778460506
 20
9.6029137613037641
 10
-14.8278128935253335
 20
9.7835150000000084
 10
-18.6586968935253026
 20
15.366717000000012
 10
-17.0124948935253357
 20
17.0126369999999838
 10
-15.3662928935253404
 20
18.6594040000000128
 10
-9.7094308935253295
 20
14.776873000000009
 10
-9.5308934058948225
 20
14.8907612007989059
 10
-9.3509459331681342
 20
15.0026120111778738
 10
-9.1696039928506252
 20
15.112407356013577
 10
-8.9868831024474858
 20
15.2201291601826192
 10
-8.8027987794640126
 20
15.3257593485616752
 10
-8.6173665414055449
 20
15.4292798460273133
 10
-8.4306019057773369
 20
15.5306725774562864
 10
-8.2425203900846711
 20
15.629919467725145
 10
-8.0531375118328441
 20
15.72700244171061
 10
-7.8624687885271669
 20
15.8219034242892533
 10
-7.6705297376728581
 20
15.9146043403376751
 10
-7.4773358767752853
 20
16.0050871147326603
 10
-7.2829027233396602
 20
16.0933336723507097
 10
-7.0872457948713716
 20
16.1793259380685441
 10
-6.8903806088755886
 20
16.263045836762771
 10
-6.6923226828576432
 20
16.344475293310083
 10
-6.4930875343228607
 20
16.4235962325870233
 10
-6.2926906807765022
 20
16.5003905794703059
 10
-6.0911476397238289
 20
16.5748402588365806
 10
-5.8884739286701588
 20
16.6469271955624336
 10
-5.6846850651207532
 20
16.7166333145245147
 10
-5.4797965665809301
 20
16.7839405405995166
 10
-5.2738239505559505
 20
16.8488307986639967
 10
-5.0667827345511398
 20
16.9112860135946761
 10
-4.8586884360717235
 20
16.9712881102682189
 10
-4.649556572623041
 20
17.0288190135611401
 10
-4.439402661710325
 20
17.083860648350182
 10
-4.2282422208389292
 20
17.1363949395119306
 10
-4.0160907675141075
 20
17.1864038119230642
 10
-3.8029638192411497
 20
17.2338691904601973
 10
-3.5888768935253239
 20
17.2787729999999939
 10
-3.5894418935252972
 20
17.2790550000000138
 10
-2.3281908935253171
 20
24.0594439999999992
 10
0.0001431064746811
 20
24.0594439999999992
 10
2.3284761064746746
 20
24.0594439999999992
 10
3.5900091064746888
 20
17.2790550000000138
 10
3.5891631064747003
 20
17.2787729999999868
 10
3.8032507999055838
 20
17.2338691904601689
 10
4.0163801690103469
 20
17.1864038119230287
 10
4.2285355824909487
 20
17.1363949395118951
 10
4.4397014090493059
 20
17.0838606483501536
 10
4.6498620173873917
 20
17.0288190135611401
 10
4.8590017762071582
 20
16.9712881102681834
 10
5.0671050542105789
 20
16.9112860135946974
 10
5.2741562200996057
 20
16.8488307986639967
 10
5.480139642576205
 20
16.7839405405995379
 10
5.6850396903422933
 20
16.7166333145245432
 10
5.8888407320998866
 20
16.6469271955624336
 10
6.0915271365508801
 20
16.5748402588365735
 10
6.2930832723972827
 20
16.5003905794702987
 10
6.4934935083410181
 20
16.4235962325870588
 10
6.6927422130840739
 20
16.344475293310019
 10
6.8908137553283666
 20
16.2630458367627995
 10
7.087692503775898
 20
16.1793259380685299
 10
7.2833628271285846
 20
16.0933336723507026
 10
7.4778090940883857
 20
16.0050871147326319
 10
7.6710156733573029
 20
15.9146043403377178
 10
7.8629669336372388
 20
15.8219034242891965
 10
8.0536472436301949
 20
15.7270024417106029
 10
8.2430409720381306
 20
15.6299194677251023
 10
8.4311324875629623
 20
15.5306725774562722
 10
8.617906158906635
 20
15.4292798460273417
 10
8.8033463547711364
 20
15.3257593485616752
 10
8.9874374438584539
 20
15.2201291601826156
 10
9.1701637948705184
 20
15.1124073560135699
 10
9.3515097765092605
 20
15.0026120111779022
 10
9.531459757476668
 20
14.8907612007988917
 10
9.7099981064746999
 20
14.7768729999999948
 10
15.3665781064746767
 20
18.6594040000000163
 10
17.0130631064747035
 20
17.0126369999999838
 10
18.6592651064746775
 20
15.366717000000012
 10
14.828098106474684
 20
9.7835150000000191
 10
14.949353703937021
 20
9.6029137613037179
 10
15.0684497581815862
 20
9.4207644140512059
 10
15.1853693878012734
 20
9.2370853179483667
 10
15.3000957113889342
 20
9.0518948327010911
 10
15.4126118475374199
 20
8.8652113180155254
 10
15.5229009148396244
 20
8.6770531335973686
 10
15.6309460318883851
 20
8.4874386391527814
 10
15.7367303172766242
 20
8.2963861943875372
 10
15.8402368895971222
 20
8.1039141590077506
 10
15.9414488674427446
 20
7.9100408927193371
 10
16.0403493694064423
 20
7.7147847552280879
 10
16.1369215140810098
 20
7.5181641062401638
 10
16.231148420059327
 20
7.320197305461388
 10
16.3230132059342594
 20
7.1209027125977649
 10
16.4124989902986442
 20
6.920298687355249
 10
16.4995888917453897
 20
6.7184035894397525
 10
16.5842660288673471
 20
6.5152357785573081
 10
16.6665135202573822
 20
6.3108136144137035
 10
16.7463144845083178
 20
6.105155456715103
 10
16.8236520402130481
 20
5.8982796651673581
 10
16.8985093059644669
 20
5.690204599476349
 10
16.9708694003554115
 20
5.4809486193481369
 10
17.0407154419787048
 20
5.2705300844885858
 10
17.1080305494272551
 20
5.0589673546037126
 10
17.1727978412939279
 20
4.8462787893994914
 10
17.2350004361715747
 20
4.6324827485818094
 10
17.2946214526530753
 20
4.417597591856536
 10
17.3516440093312525
 20
4.2016416789298514
 10
17.4060512247990289
 20
3.9846333695075877
 10
17.457826217649199
 20
3.7665910232956357
 10
17.5069521064746851
 20
3.5475330000000067
 10
24.060152106474689
 20
2.3286150000001591
 10
24.0598691064747072
 20
0.0000000000000107
 10
24.059869106474693
 20
-2.3277690000000266
 10
17.6277431064746821
 20
-3.524956000000004
 10
17.5842748654287391
 20
-3.7543492208385238
 10
17.5378949720716832
 20
-3.9826938478735929
 10
17.4886238323650502
 20
-4.2099703278842755
 10
17.4364818522703899
 20
-4.4361591076499973
 10
17.3814894377492237
 20
-4.6612406339498538
 10
17.3236669947630872
 20
-4.8851953535631694
 10
17.2630349292735161
 20
-5.108003713269107
 10
17.1996136472420318
 20
-5.3296461598469431
 10
17.1334235546301556
 20
-5.5501031400758425
 10
17.0644850573994518
 20
-5.7693551007350816
 10
16.9928185615114415
 20
-5.9873824886039699
 10
16.9184444729276322
 20
-6.204165750461577
 10
16.8413831976095878
 20
-6.4196853330871697
 10
16.7616551415188155
 20
-6.6339216832600414
 10
16.6792807106168652
 20
-6.8468552477594233
 10
16.5942803108652726
 20
-7.05846647336441
 10
16.5066743482255447
 20
-7.2687358068544512
 10
16.4164832286592315
 20
-7.4776436950086076
 10
16.3237273581278544
 20
-7.6851705846060785
 10
16.2284271425929774
 20
-7.8912969224262142
 10
16.1306029880160935
 20
-8.0960031552482654
 10
16.0302753003587526
 20
-8.2992697298513214
 10
15.9274644855824619
 20
-8.5010770930146808
 10
15.8221909496487854
 20
-8.7014056915175733
 10
15.7144750985192587
 20
-8.9002359721392637
 10
15.6043373381553749
 20
-9.0975483816588607
 10
15.4917980745187123
 20
-9.2933233668557786
 10
15.3768777135707779
 20
-9.4875413745091244
 10
15.2595966612730933
 20
-9.6801828513980972
 10
15.1399753235872225
 20
-9.8712282443019763
 10
15.0180341064746727
 20
-10.0606580000000108
 10
18.6595471064746761
 20
-15.3664360000000944
 10
17.0130631064746751
 20
-17.0129200000001006
 10
15.3668601064746753
 20
-18.6588400000000263
 10
10.1307921064746864
 20
-15.0655869999999918
 10
10.0693616128020835
 20
-15.1075545596656138
 10
10.0077552621928447
 20
-15.1492812816958828
 10
9.9459733954210066
 20
-15.1907659725756456
 10
9.8840163532606056
 20
-15.232007438790264
 10
9.8218844764857351
 20
-15.2730044868249077
 10
9.7595781058704745
 20
-15.3137559231647327
 10
9.6970975821888317
 20
-15.3542605542949726
 10
9.6344432462148717
 20
-15.3945171867006874
 10
9.5716154387226595
 20
-15.4345246268671392
 10
9.5086145004862885
 20
-15.4742816812795727
 10
9.4454407722797811
 20
-15.5137871564231187
 10
9.3820945948772163
 20
-15.553039858782876
 10
9.3185763090526308
 20
-15.5920385948440856
 10
9.2548862555801037
 20
-15.6307821710919423
 10
9.1910247752337
 20
-15.6692693940116943
 10
9.1269922087874562
 20
-15.7074990700883195
 10
9.0627888970154515
 20
-15.745470005807169
 10
8.9984151806917225
 20
-15.7831810076534271
 10
8.9338714005903483
 20
-15.8206308821120682
 10
8.869157897485394
 20
-15.8578184356683618
 10
8.8042750121508959
 20
-15.8947424748077442
 10
8.7392230853609192
 20
-15.9314018060151579
 10
8.6740024578895287
 20
-15.9677952357758155
 10
8.6086134705108037
 20
-16.0039215705750735
 10
8.5430564639987523
 20
-16.0397796168979099
 10
8.4773317791274962
 20
-16.0753681812293294
 10
8.4114397566710437
 20
-16.1106860700547116
 10
8.3453807374034739
 20
-16.1457320898594077
 10
8.2791550620988659
 20
-16.1805050471284275
 10
8.2127630715312279
 20
-16.2150037483466463
 10
8.1462051064746817
 20
-16.2492269999999763
 10
4.4651801064746763
 20
-7.3547120000000188
 10
4.7009733437946792
 20
-7.2052311596791743
 10
4.9314868999357984
 20
-7.0483711213454061
 10
5.1565545734277904
 20
-6.8842978024906767
 10
5.3760101628004193
 20
-6.713177120606959
 10
5.5896874665834417
 20
-6.5351749931858638
 10
5.7974202833066002
 20
-6.3504573377195062
 10
5.9990424114996941
 20
-6.15919007169955
 10
6.1943876496924375
 20
-5.9615391126179347
 10
6.3832897964145801
 20
-5.7576703779664715
 10
6.5655826501959282
 20
-5.5477497852371123
 10
6.7411000095662317
 20
-5.3319432519217589
 10
6.9096756730551903
 20
-5.1104166955120585
 10
7.0711434391926105
 20
-4.8833360335000764
 10
7.225337106508249
 20
-4.6508671833775486
 10
7.3720904735318413
 20
-4.4131760626363894
 10
7.5112373387931655
 20
-4.1704285887684254
 10
7.642611500821971
 20
-3.9227906792655673
 10
7.7660467581480077
 20
-3.6704282516196427
 10
7.8813769093010393
 20
-3.413507223322501
 10
7.9884357528108296
 20
-3.1521935118660425
 10
8.0870570872071141
 20
-2.8866530347420607
 10
8.1770747110196851
 20
-2.6170517094424657
 10
8.2583224227782637
 20
-2.3435554534591123
 10
8.330634021012628
 20
-2.0663301842838493
 10
8.3938433042525276
 20
-1.7855418194085537
 10
8.4477840710277263
 20
-1.5013562763250654
 10
8.4922901198679881
 20
-1.213939472525297
 10
8.5271952493030625
 20
-0.9234573255009995
 10
8.5523332578626992
 20
-0.6300757527441245
 10
8.5675379440766335
 20
-0.3339606717464818
 10
8.5726431064746862
 20
-0.0352779999999928
 10
8.5607599011442232
 20
0.4199819140679946
 10
8.5255053264740184
 20
0.869054744385874
 10
8.4674719444458901
 20
1.3113479295760371
 10
8.3872523170416287
 20
1.7462689082608147
 10
8.2854390062430809
 20
2.1732251190628045
 10
8.1626245740319945
 20
2.5916240006041882
 10
8.0194015823902447
 20
3.0008729915075101
 10
7.8563625932995791
 20
3.4003795303950746
 10
7.6741001687418162
 20
3.7895510558893797
 10
7.4732068706987889
 20
4.167795006612776
 10
7.2542752611522872
 20
4.5345188211875875
 10
7.0178979020841012
 20
4.8891299382364082
 10
6.7646673554760639
 20
5.2310357963814429
 10
6.4951761833099653
 20
5.5596438342452217
 10
6.2100169475676381
 20
5.8743614904501129
 10
5.9097822102308584
 20
6.1745962036185347
 10
5.5950645332814446
 20
6.4597554123728642
 10
5.2664564787012154
 20
6.7292465553354646
 10
4.9245506084719324
 20
6.9824770711288764
 10
4.5699394845754568
 20
7.2188543983753419
 10
4.2032156689935718
 20
7.4377859756973379
 10
3.8249717237080958
 20
7.6386792417172913
 10
3.4358002107008048
 20
7.8209416350575651
 10
3.0362936919535457
 20
7.9839805943405295
 10
2.6270447294480661
 20
8.1272035581887252
 10
2.2086458851662414
 20
8.2500179652244157
 10
1.7816897210898546
 20
8.3518312540699924
 10
1.3467687992006887
 20
8.4320508633479818
 10
0.9044756814805623
 20
8.4900842316807115
 10
0.4554029299113225
 20
8.5253387976905799
 10
0.0001431064746882
 20
8.5372219999999999
 10
-0.4550912495388815
 20
8.5253387976905941
 10
-0.9041418727472106
 20
8.4900842316806546
 10
-1.3464160313857505
 20
8.4320508633480102
 10
-1.781320993689782
 20
8.3518312540700066
 10
-2.2082640278947494
 20
8.2500179652244157
 10
-2.6266524022359903
 20
8.1272035581886684
 10
-3.0358933849489063
 20
7.9839805943405651
 10
-3.4353942442688137
 20
7.8209416350575651
 10
-3.8245622484311568
 20
7.6386792417173268
 10
-4.2028046656712519
 20
7.4377859756973947
 10
-4.5695287642245077
 20
7.2188543983753419
 10
-4.9241418123262974
 20
6.9824770711288835
 10
-5.2660510782119729
 20
6.7292465553355072
 10
-5.5946638301168861
 20
6.4597554123728429
 10
-5.9093873362764811
 20
6.1745962036185489
 10
-6.2096288649260742
 20
5.8743614904501413
 10
-6.4947956843010601
 20
5.5596438342452181
 10
-6.7642950626367835
 20
5.2310357963814731
 10
-7.0175342681686601
 20
4.8891299382363655
  0
LWPOLYLINE
  5
46
  8
outer_shell
 62
256
370
-1
  6
ByLayer
100
AcDbEntity
100
AcDbPolyline
 90
1894
 70
0
 10
19.6903012261085308
 20
-14.374661866090598
 10
19.6999041585377768
 20
-14.3886138696487507
 10
19.7097654824947028
 20
-14.4029436897286161
 10
19.7198625757778814
 20
-14.4176184724482539
 10
19.7301728161860552
 20
-14.4326053639254539
 10
19.7406735815178962
 20
-14.4478715102784179
 10
19.7513422495720192
 20
-14.4633840576249355
 10
19.7621561981470819
 20
-14.4791101520830381
 10
19.773092805041756
 20
-14.4950169397705366
 10
19.784129448054756
 20
-14.5110715668056116
 10
19.7952435049846969
 20
-14.5272411793059746
 10
19.8064123536302645
 20
-14.5434929233898131
 10
19.8176133717901024
 20
-14.559793945174917
 10
19.8288239372629107
 20
-14.576111390779225
 10
19.8400214278472902
 20
-14.5924124063208183
 10
19.8511832213419979
 20
-14.608664137917664
 10
19.8622866955456061
 20
-14.6248337316875805
 10
19.8733092282568293
 20
-14.640888333748606
 10
19.8842281972743251
 20
-14.6567950902186936
 10
19.895020980396751
 20
-14.6725211472157966
 10
19.9056649554227647
 20
-14.6880336508578182
 10
19.9161375001510379
 20
-14.7032997472627756
 10
19.9264159923802282
 20
-14.7182865825485862
 10
19.9364778099090358
 20
-14.732961302833246
 10
19.9463003305360331
 20
-14.7472910542346511
 10
19.9558609320599913
 20
-14.7612429828708542
 10
19.9651369922795396
 20
-14.7747842348596308
 10
19.974105888993293
 20
-14.7878819563192252
 10
19.98274499999998
 20
-14.8005032933672922
 10
20.327337999999969
 20
-15.3025772933672854
 10
20.3354764993789843
 20
-15.3151523362326003
 10
20.3429604237520891
 20
-15.328112766362473
 10
20.3497924447316052
 20
-15.3414281167031845
 10
20.3559752339296836
 20
-15.3550679202008666
 10
20.3615114629586031
 20
-15.3690017098018004
 10
20.3664038034305293
 20
-15.3831990184520038
 10
20.3706549269577692
 20
-15.3976293790979568
 10
20.3742675051525168
 20
-15.4122623246854999
 10
20.3772442096270652
 20
-15.427067388161035
 10
20.3795877119935369
 20
-15.4420141024707149
 10
20.3813006838642252
 20
-15.4570720005607711
 10
20.3823857968513664
 20
-15.4722106153772927
 10
20.3828457225671968
 20
-15.4873994798665819
 10
20.3826831326239386
 20
-15.5026081269747564
 10
20.3819006986337854
 20
-15.517806089648019
 10
20.3805010922090446
 20
-15.5329629008326577
 10
20.3784869849618673
 20
-15.5480480934747121
 10
20.3758610485045324
 20
-15.5630312005204843
 10
20.3726259544492905
 20
-15.5778817549161488
 10
20.3687843744083636
 20
-15.5925692896076669
 10
20.3643389799939172
 20
-15.6070633375417316
 10
20.3592924428182727
 20
-15.6213334316640768
 10
20.3536474344936238
 20
-15.6353491049211328
 10
20.3474066266321785
 20
-15.6490798902590527
 10
20.3405726908461872
 20
-15.6624953206239894
 10
20.3331482987479291
 20
-15.6755649289619043
 10
20.3251361219495408
 20
-15.6882582482194834
 10
20.3165388320633298
 20
-15.7005448113425459
 10
20.3073591007015324
 20
-15.7123941512773513
 10
20.2975995994763139
 20
-15.7237758009702588
 10
20.2872629999999674
 20
-15.734659293367308
 10
19.8568739999999764
 20
-16.1647662933673359
 10
19.4578119999999899
 20
-16.5638282933673651
 10
18.2101069999999936
 20
-17.8112502933673014
 10
17.8110449999999787
 20
-18.2103122933673518
 10
16.5644689999999741
 20
-19.4568882933672711
 10
16.1654069999999734
 20
-19.8559502933673144
 10
15.7347359999999838
 20
-20.2863392933672912
 10
15.7238780686784594
 20
-20.2966503253232133
 10
15.7125186347554262
 20
-20.3063875531773448
 10
15.7006883350675821
 20
-20.3155480781345119
 10
15.688417806451568
 20
-20.3241290013998821
 10
15.6757376857440107
 20
-20.3321274241786156
 10
15.6626786097814517
 20
-20.3395404476756312
 10
15.6492712154006313
 20
-20.3463651730960677
 10
15.6355461394380484
 20
-20.3525987016449719
 10
15.6215340187304861
 20
-20.3582381345273333
 10
15.6072654901144574
 20
-20.3632805729483835
 10
15.5927711904266459
 20
-20.3677231181130196
 10
15.5780817565035932
 20
-20.3715628712263666
 10
15.5632278251820679
 20
-20.3747969334934709
 10
15.5482400332985975
 20
-20.3774224061194928
 10
15.5331490176898939
 20
-20.3794363903093085
 10
15.5179854151924843
 20
-20.3808359872680995
 10
15.502779862643024
 20
-20.3816182982010048
 10
15.4875629968782107
 20
-20.3817804243128933
 10
15.4723654547346001
 20
-20.3813194668089395
 10
15.4572178730488901
 20
-20.3802325268941829
 10
15.4421508886576362
 20
-20.3785167057737198
 10
15.427195138397451
 20
-20.3761691046526039
 10
15.4123812591050751
 20
-20.3731868247358179
 10
15.3977398876170639
 20
-20.3695669672285362
 10
15.3833016607700159
 20
-20.365306633335706
 10
15.3690972154006289
 20
-20.3604029242625231
 10
15.3551571883454443
 20
-20.3548529412139629
 10
15.3415122164411883
 20
-20.3486537853950793
 10
15.3281929365244451
 20
-20.3418025580109969
 10
15.3152299854318414
 20
-20.3342963602666629
 10
15.3026539999999898
 20
-20.3261322933672659
 10
14.8011449999999769
 20
-19.9821032933672598
 10
14.7885235598334788
 20
-19.973437781870544
 10
14.7754256847033503
 20
-19.9644443023297384
 10
14.76188417169611
 20
-19.9551455339433446
 10
14.7479318178980066
 20
-19.9455641559096648
 10
14.7336014203954448
 20
-19.935722847427229
 10
14.7189257762746593
 20
-19.9256442876944533
 10
14.7039376826222536
 20
-19.9153511559096614
 10
14.688669936524434
 20
-19.9048661312713762
 10
14.6731553350676194
 20
-19.8942118929778786
 10
14.6574266753381863
 20
-19.8834111202277199
 10
14.6415167544224687
 20
-19.8724864922192594
 10
14.625458369406843
 20
-19.8614606881509559
 10
14.6092843173777283
 20
-19.8503563872211259
 10
14.5930273954214158
 20
-19.8391962686282568
 10
14.5767204006243105
 20
-19.8280030115707859
 10
14.5603961300728173
 20
-19.8167992952470371
 10
14.5440873808532416
 20
-19.8056077988555472
 10
14.5278269500520025
 20
-19.7944512015946401
 10
14.5116476347554482
 20
-19.7833521826627248
 10
14.4955822320499266
 20
-19.7723334212582813
 10
14.4796635390218142
 20
-19.761417596579669
 10
14.4639243527575161
 20
-19.7506273878253751
 10
14.4483974703433518
 20
-19.7399854741937162
 10
14.4331156888657546
 20
-19.7295145348831724
 10
14.4181118054110158
 20
-19.7192372490922025
 10
14.4034186170655261
 20
-19.7091762960191161
 10
14.3890689209156761
 20
-19.6993543548624075
 10
14.3750955140478709
 20
-19.6897941048204075
 10
14.3615311935483732
 20
-19.6805182250916459
 10
14.3484087565036305
 20
-19.6715493948744751
 10
14.3357609999999909
 20
-19.6629102933672755
 10
10.3417519999999712
 20
-16.9219682933672431
 10
10.3291157237756153
 20
-16.9137256066836201
 10
10.3159739088314808
 20
-16.9059862400627026
 10
10.3023602047933736
 20
-16.8987513304255685
 10
10.2883082612869359
 20
-16.8920220146925431
 10
10.2738517279379593
 20
-16.8857994297842424
 10
10.2590242543720791
 20
-16.8800847126212901
 10
10.2438594902151507
 20
-16.874879000124352
 10
10.2283910850927882
 20
-16.8701834292138102
 10
10.2126526886307758
 20
-16.8659991368097906
 10
10.1966779504548271
 20
-16.8623272598334353
 10
10.1805005201906482
 20
-16.8591689352052967
 10
10.1641540474639953
 20
-16.8565252998456572
 10
10.1476721819005462
 20
-16.8543974906753533
 10
10.1310885731260925
 20
-16.8527866446144401
 10
10.1144368707663119
 20
-16.8516938985837896
 10
10.0977507244469891
 20
-16.8511203895037198
 10
10.0810637837937378
 20
-16.8510672542951596
 10
10.0644096984323639
 20
-16.8515356298781995
 10
10.0478221179886518
 20
-16.8525266531739817
 10
10.0313346920881798
 20
-16.8540414611024403
 10
10.014981070356761
 20
-16.8560811905845185
 10
9.9987949024201583
 20
-16.85864697854079
 10
9.9828098379040071
 20
-16.8617399618914021
 10
9.9670595264341131
 20
-16.8653612775570352
 10
9.9515776176361896
 20
-16.8695120624586679
 10
9.9363977611358649
 20
-16.8741934535161846
 10
9.9215536065590015
 20
-16.879406587650621
 10
9.9070788035312347
 20
-16.8851526017826146
 10
9.8930070016783205
 20
-16.8914326328323057
 10
9.8793718506259864
 20
-16.8982478177202751
 10
9.8662069999999602
 20
-16.9055992933673451
 10
9.0370379999999884
 20
-17.3723952933672763
 10
9.0235492398039625
 20
-17.3796059905577494
 10
9.0095441952267237
 20
-17.3870782715151222
 10
8.9950581073813893
 20
-17.3947935493506094
 10
8.9801262173810912
 20
-17.4027332371758234
 10
8.9647837663388046
 20
-17.4108787481019505
 10
8.9490659953676968
 20
-17.4192114952403472
 10
8.933008145580871
 20
-17.4277128917023276
 10
8.9166454580913452
 20
-17.4363643505993764
 10
8.900013174012301
 20
-17.4451472850426228
 10
8.8831465344567206
 20
-17.4540431081435656
 10
8.8660807805377218
 20
-17.4630332330135047
 10
8.8488511533684502
 20
-17.4720990727637613
 10
8.8314928940619524
 20
-17.4812220405056991
 10
8.8140412437313103
 20
-17.4903835493506392
 10
8.7965314434896342
 20
-17.499565012409974
 10
8.7789987344499849
 20
-17.5087478427949605
 10
8.7614783577254656
 20
-17.5179134536169983
 10
8.7440055544291653
 20
-17.5270432579874864
 10
8.7266155656741802
 20
-17.5361186690176396
 10
8.709343632573578
 20
-17.5451210998188643
 10
8.6922249962404621
 20
-17.5540319635025668
 10
8.6752948977879143
 20
-17.5628326731800115
 10
8.6585885783289811
 20
-17.571504641962548
 10
8.6421412789768297
 20
-17.5800292829614264
 10
8.6259882408445421
 20
-17.5883880092882237
 10
8.6101647050451433
 20
-17.5965622340540477
 10
8.5947059126917225
 20
-17.6045333703703761
 10
8.5796471048974325
 20
-17.6122828313485797
 10
8.56502352277532
 20
-17.6197920300998589
 10
8.5508704074384667
 20
-17.6270423797356841
 10
8.5372229999999831
 20
-17.6340152933672698
 10
7.6784209999999788
 20
-18.0737172933672809
 10
7.6649436336141292
 20
-18.0801405983252081
 10
7.6513486703701972
 20
-18.0857609213757513
 10
7.6376612334932901
 20
-18.0905875844618933
 10
7.6239064462085508
 20
-18.0946299095265459
 10
7.6101094317411295
 20
-18.0978972185124576
 10
7.5962953133160767
 20
-18.1003988333626324
 10
7.5824892141586346
 20
-18.1021440760197478
 10
7.568716257493854
 20
-18.1031422684268293
 10
7.5550015665469203
 20
-18.1034027325267743
 10
7.5413702645429908
 20
-18.1029347902623101
 10
7.5278474747070803
 20
-18.1017477635764266
 10
7.5144583202644739
 20
-18.0998509744118934
 10
7.5012279244402507
 20
-18.0972537447116721
 10
7.4881814104594966
 20
-18.0939653964185396
 10
7.4753439015474328
 20
-18.0899952514754574
 10
7.4627405209291027
 20
-18.0853526318252165
 10
7.4503963918297273
 20
-18.0800468594107073
 10
7.4383366374743716
 20
-18.074087256174856
 10
7.426586381088228
 20
-18.0674831440604748
 10
7.4151707458963898
 20
-18.0602438450104117
 10
7.4041148551239928
 20
-18.0523786809675642
 10
7.3934438319961799
 20
-18.0438969738748085
 10
7.3831827997381652
 20
-18.0348080456750353
 10
7.3733568815749351
 20
-18.0251212183110425
 10
7.3639912007317179
 20
-18.014845813725799
 10
7.3551108804336636
 20
-18.0039911538620601
 10
7.3467410439058654
 20
-17.9925665606627803
 10
7.3389068143734306
 20
-17.9805813560707861
 10
7.3316333150615804
 20
-17.968044862028961
 10
7.3249456691953796
 20
-17.9549664004801457
 10
7.3188689999999781
 20
-17.9413552933672946
 10
6.9502869999999604
 20
-17.0498152933672742
 10
6.9444095386189986
 20
-17.0356615601256891
 10
6.9383128469335844
 20
-17.0209737541776605
 10
6.9320120442750905
 20
-17.0057887081234043
 10
6.9255222499747831
 20
-16.9901432545636624
 10
6.9188585833640701
 20
-16.9740742260986366
 10
6.9120361637742747
 20
-16.9576184553289693
 10
6.9050701105367267
 20
-16.9408127748550186
 10
6.8979755429827421
 20
-16.9236940172772492
 10
6.8907675804437289
 20
-16.9062990151959696
 10
6.8834613422510103
 20
-16.888664601211886
 10
6.8760719477358379
 20
-16.870827607925392
 10
6.8686145162297194
 20
-16.8528248679368176
 10
6.8611041670638642
 20
-16.8346932138466343
 10
6.8535560195696377
 20
-16.8164694782551862
 10
6.8459851930784268
 20
-16.7981904937633999
 10
6.8384068069215331
 20
-16.7798930929711361
 10
6.830835980430308
 20
-16.7616141084793213
 10
6.8232878329360958
 20
-16.743390372888129
 10
6.8157774837702476
 20
-16.7252587187974768
 10
6.8083200522640936
 20
-16.7072559788089592
 10
6.8009306577489426
 20
-16.689418985522579
 10
6.7936244195562026
 20
-16.6717845715393906
 10
6.7864164570171965
 20
-16.6543895694573223
 10
6.7793218894632261
 20
-16.6372708118795742
 10
6.7723558362256782
 20
-16.620465131405588
 10
6.7655334166358756
 20
-16.6040093606358852
 10
6.7588697500251484
 20
-16.5879403321709873
 10
6.7523799557248694
 20
-16.5722948786111104
 10
6.7460791530663684
 20
-16.557109832556975
 10
6.7399824613809329
 20
-16.5424220266089037
 10
6.7341049999999854
 20
-16.5282682933672476
 10
3.2692629999999809
 20
-8.155017293367294
 10
3.2633855355979478
 20
-8.140889979581253
 10
3.2572888352522043
 20
-8.1262268892184224
 10
3.2509880188983047
 20
-8.1110649116748377
 10
3.2444982064717394
 20
-8.0954409363467263
 10
3.2378345179081123
 20
-8.0793918526301667
 10
3.2310120731428498
 20
-8.0629545499212867
 10
3.224045992111698
 20
-8.0461659176162286
 10
3.2169513947500761
 20
-8.0290628451110919
 10
3.2097434009935952
 20
-8.0116822218020474
 10
3.202437130777767
 20
-7.9940609370851377
 10
3.1950477040381244
 20
-7.97623588035664
 10
3.1875902407102359
 20
-7.9582439410125545
 10
3.180079860729748
 20
-7.9401220084490305
 10
3.1725316840320801
 20
-7.921906972062196
 10
3.164960830552829
 20
-7.9036357212481718
 10
3.1573824202275986
 20
-7.8853451454031216
 10
3.1498115729918297
 20
-7.8670721339231378
 10
3.1422634087811616
 20
-7.8488535762044123
 10
3.1347530475311061
 20
-7.8307263616429665
 10
3.1272956091772457
 20
-7.8127273796349499
 10
3.1199062136551206
 20
-7.7948935195765543
 10
3.1125999809002494
 20
-7.7772616708638367
 10
3.1053920308482219
 20
-7.7598687228929606
 10
3.0982974834345782
 20
-7.7427515650600682
 10
3.0913314585948655
 20
-7.7259470867612592
 10
3.0845090762646521
 20
-7.7094921773926472
 10
3.0778454563794284
 20
-7.6934237263504173
 10
3.0713557188748197
 20
-7.6777786230306191
 10
3.0650549836863235
 20
-7.6625937568293949
 10
3.0589583707495294
 20
-7.6479060171429154
 10
3.0530809999999846
 20
-7.6337522933672943
 10
2.807828999999991
 20
-7.0405212933672985
 10
2.802437388942927
 20
-7.0265265539829187
 10
2.7977816849047912
 20
-7.0123103106544065
 10
2.793852452552791
 20
-6.9979012675541341
 10
2.7906402565539778
 20
-6.9833281288545237
 10
2.7881356615756232
 20
-6.9686195987279547
 10
2.7863292322848991
 20
-6.9538043813468988
 10
2.7852115333489778
 20
-6.9389111808836645
 10
2.7847731294350524
 20
-6.923968701510681
 10
2.7850045852103094
 20
-6.9090056474003845
 10
2.7858964653418852
 20
-6.8940507227251118
 10
2.7874393344970017
 20
-6.8791326316573915
 10
2.7896237573428024
 20
-6.8642800783694469
 10
2.7924402985465093
 20
-6.849521767033842
 10
2.7958795227753157
 20
-6.8348864018228568
 10
2.7999319946963723
 20
-6.8204026869089631
 10
2.8045882789768797
 20
-6.8060993264645262
 10
2.8098389402839672
 20
-6.7920050246619752
 10
2.8156745432848567
 20
-6.7781484856737038
 10
2.8220856526467557
 20
-6.7645584136720842
 10
2.8290628330368222
 20
-6.7512635128295386
 10
2.8365966491222068
 20
-6.7382924873184749
 10
2.8446776655701242
 20
-6.725674041311315
 10
2.8532964470477324
 20
-6.71343687898041
 10
2.8624435582222603
 20
-6.701609704498189
 10
2.8721095637608514
 20
-6.6902212220370103
 10
2.882285028330692
 20
-6.6793001357693385
 10
2.8929605165989685
 20
-6.66887514986756
 10
2.9041265932328244
 20
-6.6589749685040758
 10
2.9157738228995171
 20
-6.6496282958512367
 10
2.927892770266169
 20
-6.6408638360815289
 10
2.9404740000000018
 20
-6.632710293367289
 10
3.4879849999999735
 20
-6.2977122933672689
 10
3.4978741015406953
 20
-6.2916200914942451
 10
3.5079771463528715
 20
-6.2852586325972624
 10
3.5182807769796085
 20
-6.278638830307969
 10
3.528771635963821
 20
-6.2717715982580486
 10
3.5394363658487222
 20
-6.26466785007905
 10
3.5502616091772197
 20
-6.2573384994026782
 10
3.5612340084924696
 20
-6.2497944598605315
 10
3.5723402063374792
 20
-6.242046645084244
 10
3.583566845255298
 20
-6.234105968705471
 10
3.5949005677889474
 20
-6.2259833443557895
 10
3.6063280164814486
 20
-6.2176896856669686
 10
3.6178358338759651
 20
-6.2092359062705142
 10
3.6294106625154967
 20
-6.2006329197980889
 10
3.6410391449430648
 20
-6.1918916398813479
 10
3.6527079237017546
 20
-6.1830229801518826
 10
3.6644036413346015
 20
-6.1740378542413552
 10
3.6761129403846482
 20
-6.1649471757814283
 10
3.6878224633949515
 20
-6.1557618584037286
 10
3.6995188529085681
 20
-6.1464928157398049
 10
3.7111887514685762
 20
-6.1371509614213764
 10
3.7228188016178976
 20
-6.1277472090800842
 10
3.734395645899717
 20
-6.1182924723475409
 10
3.7459059268570911
 20
-6.1087976648553237
 10
3.7573362870329703
 20
-6.0992737002351163
 10
3.7686733689704894
 20
-6.0897314921185597
 10
3.7799038152126556
 20
-6.0801819541373021
 10
3.791014268302483
 20
-6.0706359999229704
 10
3.8019913707830923
 20
-6.0611045431071418
 10
3.8128217651975334
 20
-6.0515984973214927
 10
3.8234920940888131
 20
-6.0421287761976643
 10
3.833988999999967
 20
-6.0327062933672764
 10
4.023046317948328
 20
-5.907332046346383
 10
4.2078205883319839
 20
-5.7761732100199978
 10
4.3881819311200942
 20
-5.6393586414925423
 10
4.564000466281712
 20
-5.4970171978686651
 10
4.7351463137860463
 20
-5.349277736252688
 10
4.9014895936020508
 20
-5.1962691137492669
 10
5.06290042569902
 20
-5.0381201874628232
 10
5.2192489300459712
 20
-4.8749598144978208
 10
5.3704052266120286
 20
-4.7069168519587521
 10
5.5162394353663871
 20
-4.5341201569502232
 10
5.6566216762780499
 20
-4.356698586576627
 10
5.7914220693162335
 20
-4.1747809979424844
 10
5.9205107344499623
 20
-3.9884962481522876
 10
6.0437577916484528
 20
-3.7979731943105364
 10
6.1610333608808006
 20
-3.6033406935217158
 10
6.2722075621160727
 20
-3.4047276028903042
 10
6.3771505153234145
 20
-3.2022627795208081
 10
6.4757323404719145
 20
-2.9960750805177696
 10
6.5678231575308033
 20
-2.7862933629856457
 10
6.6532930864690698
 20
-2.5730464840288718
 10
6.7320122472558737
 20
-2.3564633007520825
 10
6.8038507598603459
 20
-2.1366726702596424
 10
6.8686787442516177
 20
-1.9138034496561076
 10
6.9263663203987491
 20
-1.6879844960459565
 10
6.9767836082709422
 20
-1.4593446665336884
 10
7.0198007278372572
 20
-1.2280128182237746
 10
7.0552877990668392
 20
-0.9941178082207784
 10
7.0831149419287485
 20
-0.7577884936290928
 10
7.1031522763922155
 20
-0.5191537315533168
 10
7.1152699224262577
 20
-0.2783423790978645
 10
7.119337999999992
 20
-0.0354832933672853
 10
7.1094696979960119
 20
0.3426189410995306
 10
7.0801928368298874
 20
0.7155808633243126
 10
7.0319994837702566
 20
1.082910462834235
 10
6.9653817060857435
 20
1.4441157291562661
 10
6.8808315710449435
 20
1.7987046518175163
 10
6.778841145916509
 20
2.1461852203449183
 10
6.6599024979692061
 20
2.4860654242655613
 10
6.5245076944714455
 20
2.8178532531064562
 10
6.3731488026920928
 20
3.1410566963947346
 10
6.2063178898996441
 20
3.4551837436573365
 10
6.0245070233627658
 20
3.759742384421294
 10
5.8282082703501104
 20
4.0542406082137177
 10
5.6179136981303017
 20
4.3381864045616254
 10
5.3941153739720207
 20
4.6110877629920282
 10
5.1573053651438343
 20
4.8724526730319511
 10
4.9079757389144376
 20
5.1217891242084761
 10
4.6466185625524545
 20
5.3586051060486426
 10
4.3737259033264948
 20
5.5824086080794615
 10
4.0897898285052108
 20
5.792707619827965
 10
3.7953024053573259
 20
5.989010130821228
 10
3.4907557011513362
 20
6.1708241305862686
 10
3.1766417831559792
 20
6.3376576086501046
 10
2.8534527186398648
 20
6.4890185545397827
 10
2.5216805748715885
 20
6.6244149577824061
 10
2.1818174191198736
 20
6.7433548079049075
 10
1.8343553186533157
 20
6.8453460944344187
 10
1.4797863407404819
 20
6.9298968068979008
 10
1.1186025526501098
 20
6.9965149348224571
 10
0.7512960216508375
 20
7.0447084677350773
 10
0.3783588150112465
 20
7.0739853951628362
 10
0.0002829999999889
 20
7.0838537066327234
 10
-0.3778192375214147
 20
7.0739853951627794
 10
-0.7507811686415735
 20
7.0447084677350205
 10
-1.1181107824846421
 20
6.9965149348224287
 10
-1.479316068174974
 20
6.9298968068979008
 10
-1.8339050148366951
 20
6.8453460944344187
 10
-2.1813856115941448
 20
6.7433548079049359
 10
-2.5212658475714207
 20
6.6244149577824061
 10
-2.8530537118928763
 20
6.4890185545398111
 10
-3.1762571936826376
 20
6.3376576086501331
 10
-3.4903842820650297
 20
6.170824130586297
 10
-3.7949429661642782
 20
5.989010130821228
 10
-4.0894412351045446
 20
5.792707619827965
 10
-4.373387078010154
 20
5.5824086080794899
 10
-4.6462884840052467
 20
5.3586051060486426
 10
-4.907653442214098
 20
5.1217891242084903
 10
-5.1569899417609477
 20
4.8724526730319582
 10
-5.39380597177
 20
4.6110877629920282
 10
-5.6176095213655159
 20
4.3381864045616325
 10
-5.8279085796717141
 20
4.0542406082137319
 10
-6.0242111358128341
 20
3.7597423844213296
 10
-6.2060251789131442
 20
3.4551837436573152
 10
-6.3728586980967634
 20
3.1410566963947275
 10
-6.5242196824880168
 20
2.8178532531064917
 10
-6.6596161212111156
 20
2.4860654242655187
 10
-6.7785560033902925
 20
2.1461852203449112
 10
-6.8805473181497874
 20
1.7987046518175163
 10
-6.9650980546137973
 20
1.4441157291563087
 10
-7.0317162019066188
 20
1.0829104628342847
 10
-7.0799097491524279
 20
0.7155808633243481
 10
-7.1091866854754713
 20
0.3426189410995377
 10
-7.119055000000003
 20
-0.0354832933672782
 10
-7.1149860580041278
 20
-0.2783423790978716
 10
-7.1028658948340251
 20
-0.5191537315533168
 10
-7.0828245047162
 20
-0.7577884936291213
 10
-7.0549918818771005
 20
-0.9941178082207642
 10
-7.0194980205431321
 20
-1.2280128182237746
 10
-6.9764729149407643
 20
-1.4593446665337027
 10
-6.9260465592964309
 20
-1.6879844960459494
 10
-6.8683489478366155
 20
-1.9138034496561005
 10
-6.8035100747876882
 20
-2.1366726702596068
 10
-6.7316599343761254
 20
-2.3564633007520257
 10
-6.652928520828425
 20
-2.5730464840288931
 10
-6.5674458283710138
 20
-2.786293362985603
 10
-6.4753418512302403
 20
-2.9960750805177412
 10
-6.3767465836326664
 20
-3.2022627795208081
 10
-6.2717900198046692
 20
-3.4047276028902971
 10
-6.1606021539726967
 20
-3.6033406935216732
 10
-6.0433129803632397
 20
-3.7979731943105222
 10
-5.9200524932026681
 20
-3.9884962481522876
 10
-5.7909506867174869
 20
-4.1747809979424773
 10
-5.6561375551341087
 20
-4.3566985865766199
 10
-5.5157430926790383
 20
-4.5341201569502303
 10
-5.3698972935786173
 20
-4.7069168519588089
 10
-5.2187301520593863
 20
-4.8749598144978137
 10
-5.0623716623477151
 20
-5.038120187462809
 10
-4.9009518186700873
 20
-5.1962691137492598
 10
-4.734600615252937
 20
-5.349277736252688
 10
-4.5634480463227334
 20
-5.4970171978686508
 10
-4.387624106105882
 20
-5.6393586414925352
 10
-4.2072587888288595
 20
-5.7761732100199339
 10
-4.0224820887180783
 20
-5.9073320463463546
 10
-3.833424000000015
 20
-6.0327062933672693
 10
-3.8229534198919239
 20
-6.0421287761976856
 10
-3.8123077191769497
 20
-6.0515984973214785
 10
-3.8015003121076987
 20
-6.0611045431071062
 10
-3.7905446129368059
 20
-6.070635999922942
 10
-3.7794540359168707
 20
-6.0801819541372737
 10
-3.7682419953006061
 20
-6.0897314921186165
 10
-3.7569219053405334
 20
-6.0992737002351163
 10
-3.7455071802893514
 20
-6.1087976648553166
 10
-3.7340112343996452
 20
-6.1182924723475054
 10
-3.722447481924064
 20
-6.1277472090800558
 10
-3.710829337115257
 20
-6.1371509614213977
 10
-3.6991702142258092
 20
-6.1464928157398191
 10
-3.6874835275083129
 20
-6.1557618584036931
 10
-3.6757826912154954
 20
-6.1649471757814496
 10
-3.6640811195998992
 20
-6.1740378542413765
 10
-3.6523922269141735
 20
-6.183022980151847
 10
-3.6407294274109745
 20
-6.1918916398813195
 10
-3.6291061353429157
 20
-6.2006329197981103
 10
-3.6175357649625965
 20
-6.2092359062705071
 10
-3.606031730522659
 20
-6.2176896856669686
 10
-3.5946074462757451
 20
-6.2259833443558392
 10
-3.5832763264744614
 20
-6.2341059687054923
 10
-3.5720517853714355
 20
-6.242046645084244
 10
-3.5609472372193025
 20
-6.2497944598605244
 10
-3.5499760962707114
 20
-6.2573384994026497
 10
-3.5391517767782261
 20
-6.2646678500790216
 10
-3.5284876929945668
 20
-6.2717715982580131
 10
-3.5179972591722617
 20
-6.2786388303079406
 10
-3.5076938895639742
 20
-6.2852586325972268
 10
-3.4975909984223819
 20
-6.2916200914942095
 10
-3.487702000000013
 20
-6.2977122933672689
 10
-2.9404730000000399
 20
-6.6327102933672819
 10
-2.9278917577792143
 20
-6.6408638360815218
 10
-2.9157727354906413
 20
-6.6496282958512865
 10
-2.9041253122755464
 20
-6.6589749685040687
 10
-2.8929588672754178
 20
-6.6688751498675884
 10
-2.8822827796314598
 20
-6.6793001357693385
 10
-2.8721064284851536
 20
-6.6902212220370387
 10
-2.8624391929777673
 20
-6.7016097044981535
 10
-2.853290452250711
 20
-6.7134368789804029
 10
-2.8446695854452742
 20
-6.7256740413112794
 10
-2.8365859717028528
 20
-6.7382924873184464
 10
-2.8290489901648428
 20
-6.7512635128295386
 10
-2.8220680199724768
 20
-6.7645584136720487
 10
-2.815652440267236
 20
-6.7781484856736682
 10
-2.809811630190346
 20
-6.7920050246619752
 10
-2.8045549688832594
 20
-6.8060993264645191
 10
-2.7998918354872515
 20
-6.8204026869089347
 10
-2.7958316091437254
 20
-6.8348864018228568
 10
-2.7923836689940416
 20
-6.8495217670338349
 10
-2.7895573941794751
 20
-6.8642800783694469
 10
-2.7873621638414434
 20
-6.879132631657356
 10
-2.7858073571213282
 20
-6.8940507227251686
 10
-2.7849023531603976
 20
-6.9090056474003774
 10
-2.7846565311000475
 20
-6.9239687015107023
 10
-2.7850792700815887
 20
-6.9389111808836645
 10
-2.7861799492464385
 20
-6.9538043813468988
 10
-2.7879679477359076
 20
-6.9686195987279547
 10
-2.7904526446913707
 20
-6.9833281288545237
 10
-2.7936434192541597
 20
-6.997901267554127
 10
-2.7975496505656068
 20
-7.0123103106543994
 10
-2.8021807177671079
 20
-7.0265265539829187
 10
-2.8075460000000092
 20
-7.0405212933672914
 10
-3.0530790000000323
 20
-7.6337522933672943
 10
-3.0589300354805644
 20
-7.6479060171429438
 10
-3.0650019539794329
 20
-7.6625937568294518
 10
-3.0712795219697426
 20
-7.6777786230306191
 10
-3.0777475059246484
 20
-7.6934237263504173
 10
-3.0843906723171486
 20
-7.7094921773926757
 10
-3.0911937876204618
 20
-7.7259470867612805
 10
-3.0981416183075581
 20
-7.7427515650600895
 10
-3.1052189308516347
 20
-7.759868722892989
 10
-3.1124104917257185
 20
-7.7772616708638367
 10
-3.1197010674029073
 20
-7.7948935195765188
 10
-3.1270754243563914
 20
-7.8127273796349499
 10
-3.1345183290591336
 20
-7.8307263616429594
 10
-3.1420145479843171
 20
-7.8488535762043767
 10
-3.1495488476050255
 20
-7.8670721339231733
 10
-3.1571059943943069
 20
-7.88534514540315
 10
-3.1646707548253019
 20
-7.9036357212481931
 10
-3.1722278953711083
 20
-7.9219069720621604
 10
-3.1797621825048239
 20
-7.9401220084490163
 10
-3.187258382699504
 20
-7.9582439410125261
 10
-3.1947012624282678
 20
-7.97623588035664
 10
-3.2020755881642415
 20
-7.9940609370851945
 10
-3.2093661263804805
 20
-8.0116822218020474
 10
-3.2165576435500611
 20
-8.0290628451111132
 10
-3.2236349061461809
 20
-8.0461659176162215
 10
-3.2305826806418239
 20
-8.0629545499212867
 10
-3.2373857335101164
 20
-8.0793918526301383
 10
-3.2440288312242345
 20
-8.0954409363467192
 10
-3.2504967402571339
 20
-8.1110649116748306
 10
-3.2567742270819977
 20
-8.1262268892183585
 10
-3.2628460581719381
 20
-8.1408899795812459
 10
-3.2686970000000031
 20
-8.155017293367294
 10
-6.7338220000000035
 20
-16.528268293367276
 10
-6.7396994519150297
 20
-16.5424220266088611
 10
-6.7457960773388237
 20
-16.5571098325570034
 10
-6.752096700144314
 20
-16.5722948786111175
 10
-6.7585861442046635
 20
-16.5879403321709589
 10
-6.7652492333926517
 20
-16.6040093606359065
 10
-6.7720707915814131
 20
-16.620465131405652
 10
-6.779035642643791
 20
-16.63727081187956
 10
-6.7861286104528418
 20
-16.6543895694573933
 10
-6.7933345188815366
 20
-16.6717845715385096
 10
-6.8006381918028822
 20
-16.689418985522579
 10
-6.8080244530898781
 20
-16.7072559788091866
 10
-6.8154781266154387
 20
-16.7252587187978037
 10
-6.8229840362525565
 20
-16.7433903728879301
 10
-6.8305270058742451
 20
-16.7616141084792361
 10
-6.8380918593534972
 20
-16.7798930929711929
 10
-6.8456634205632909
 20
-16.7981904937633573
 10
-6.8532265133765549
 20
-16.816469478255307
 10
-6.8607659616663028
 20
-16.8346932138466201
 10
-6.8682665893055201
 20
-16.8528248679367678
 10
-6.875713220167178
 20
-16.8708276079253636
 10
-6.8830906781243044
 20
-16.8886646012119428
 10
-6.8903837870497995
 20
-16.9062990151960122
 10
-6.8975773708167054
 20
-16.9236940172771568
 10
-6.9046562532979934
 20
-16.9408127748549617
 10
-6.911605258366663
 20
-16.9576184553289266
 10
-6.9184092098956356
 20
-16.9740742260986082
 10
-6.9250529317579463
 20
-16.9901432545636197
 10
-6.9315212478265522
 20
-17.0057887081234043
 10
-6.9377989819744386
 20
-17.0209737541775752
 10
-6.9438709580746121
 20
-17.0356615601256891
 10
-6.9497220000000226
 20
-17.0498152933672742
 10
-7.3185860000000247
 20
-17.9413552933672946
 10
-7.3246626691618957
 20
-17.9549664004801883
 10
-7.33135031479312
 20
-17.9680448620290036
 10
-7.3386238134671657
 20
-17.9805813560708003
 10
-7.3464580417576073
 20
-17.9925665606627732
 10
-7.3548278762378203
 20
-18.0039911538620601
 10
-7.3637081934812798
 20
-18.0148458137258132
 10
-7.3730738700614467
 20
-18.0251212183110994
 10
-7.382899782551803
 20
-18.0348080456750637
 10
-7.3931608075257742
 20
-18.0438969738747943
 10
-7.4038318215568424
 20
-18.0523786809675428
 10
-7.4148877012185181
 20
-18.0602438450104188
 10
-7.4263033230842126
 20
-18.0674831440604606
 10
-7.4380535637273368
 20
-18.0740872561748773
 10
-7.4501132997213872
 20
-18.0800468594107286
 10
-7.4624574076399171
 20
-18.0853526318252165
 10
-7.4750607640562521
 20
-18.0899952514754574
 10
-7.4878982455439669
 20
-18.093965396418568
 10
-7.5009447286764868
 20
-18.0972537447116366
 10
-7.5141750900272157
 20
-18.0998509744118934
 10
-7.5275642061696573
 20
-18.1017477635763981
 10
-7.541086953677322
 20
-18.1029347902623243
 10
-7.5547182091236067
 20
-18.1034027325267601
 10
-7.5684328490819652
 20
-18.103142268426879
 10
-7.5822057501259152
 20
-18.1021440760197692
 10
-7.5960117888288679
 20
-18.1003988333625756
 10
-7.6098258417643052
 20
-18.0978972185124434
 10
-7.6236227855057308
 20
-18.0946299095265459
 10
-7.6373774966265415
 20
-18.0905875844619146
 10
-7.6510648517001769
 20
-18.0857609213757513
 10
-7.6646597273002186
 20
-18.0801405983251726
 10
-7.678137000000028
 20
-18.0737172933672952
 10
-8.5366570000000266
 20
-17.634015293367284
 10
-8.5503308269276701
 20
-17.6270423797356699
 10
-8.5645086580847121
 20
-17.6197920300998732
 10
-8.5791553093552153
 20
-17.6122828313485655
 10
-8.5942355966231929
 20
-17.6045333703703903
 10
-8.6097143357725443
 20
-17.5965622340540477
 10
-8.6255563426874104
 20
-17.588388009288181
 10
-8.6417264332516623
 20
-17.5800292829614335
 10
-8.6581894233493273
 20
-17.571504641962477
 10
-8.6749101288644255
 20
-17.5628326731799547
 10
-8.6918533656809274
 20
-17.5540319635025099
 10
-8.7089839496827892
 20
-17.5451210998188714
 10
-8.726266696754081
 20
-17.5361186690176254
 10
-8.7436664227786949
 20
-17.5270432579874722
 10
-8.7611479436407222
 20
-17.5179134536169983
 10
-8.7786760752240696
 20
-17.5087478427949605
 10
-8.7962156334127855
 20
-17.4995650124099456
 10
-8.8137314340908191
 20
-17.490383549350625
 10
-8.8311882931422616
 20
-17.4812220405056991
 10
-8.848551026450977
 20
-17.4720990727637258
 10
-8.8657844499009713
 20
-17.4630332330134834
 10
-8.8828533793763427
 20
-17.4540431081435798
 10
-8.8997226307609765
 20
-17.445147285042637
 10
-8.9163570199389355
 20
-17.4363643505993267
 10
-8.9327213627941617
 20
-17.4277128917023418
 10
-8.9487804752106541
 20
-17.4192114952403259
 10
-8.9644991730724115
 20
-17.410878748101922
 10
-8.9798422722634612
 20
-17.4027332371758092
 10
-8.9947745886677311
 20
-17.3947935493506378
 10
-9.0092609381692483
 20
-17.3870782715150511
 10
-9.023266136652019
 20
-17.3796059905576925
 10
-9.0367549999999994
 20
-17.3723952933672905
 10
-9.8656420000000296
 20
-16.9055992933672741
 10
-9.878833270048041
 20
-16.8982478177202751
 10
-9.8924931364506534
 20
-16.8914326328322346
 10
-9.906588006176392
 20
-16.8851526017825933
 10
-9.9210842861938531
 20
-16.8794065876507844
 10
-9.9359483834715405
 20
-16.8741934535162912
 10
-9.9511467049780578
 20
-16.8695120624586394
 10
-9.9666456576818661
 20
-16.8653612775570991
 10
-9.9824116485516043
 20
-16.8617399618913311
 10
-9.998411084555741
 20
-16.8586469785406479
 10
-10.0146103726628439
 20
-16.8560811905845327
 10
-10.0309759198415591
 20
-16.8540414611025113
 10
-10.0474741330603266
 20
-16.8525266531739391
 10
-10.0640714192876999
 20
-16.8515356298782848
 10
-10.0807341854922612
 20
-16.8510672542951028
 10
-10.0974288386425428
 20
-16.8511203895037056
 10
-10.1141217857071055
 20
-16.8516938985835623
 10
-10.1307794336544958
 20
-16.852786644614298
 10
-10.1473681894532106
 20
-16.854397490675197
 10
-10.1638544600718745
 20
-16.8565252998457566
 10
-10.180204652478956
 20
-16.8591689352054033
 10
-10.1963851736430655
 20
-16.8623272598336555
 10
-10.2123624305327283
 20
-16.8659991368099185
 10
-10.2281028301165193
 20
-16.870183429213661
 10
-10.2435727793629354
 20
-16.8748790001243805
 10
-10.2587386852405373
 20
-16.8800847126213824
 10
-10.2735669547178645
 20
-16.8857994297842851
 10
-10.2880239947635417
 20
-16.8920220146924933
 10
-10.3020762123460372
 20
-16.8987513304254406
 10
-10.3156900144339119
 20
-16.9059862400625747
 10
-10.3288318079957193
 20
-16.9137256066833643
 10
-10.3414680000000345
 20
-16.9219682933672715
 10
-14.33547700000004
 20
-19.6629102933672897
 10
-14.3480992921352737
 20
-19.6715493948744751
 10
-14.3611996097144115
 20
-19.6805182250916815
 10
-14.3747449854654477
 20
-19.6897941048204217
 10
-14.3887024521164477
 20
-19.6993543548623862
 10
-14.4030390423953634
 20
-19.7091762960190948
 10
-14.4177217890302671
 20
-19.7192372490922168
 10
-14.4327177247490965
 20
-19.7295145348831937
 10
-14.4479938822799028
 20
-19.7399854741936878
 10
-14.4635172943506234
 20
-19.7506273878253324
 10
-14.4792549936893593
 20
-19.7614175965796477
 10
-14.4951740130240907
 20
-19.7723334212582529
 10
-14.5112413850827551
 20
-19.7833521826627035
 10
-14.5274241425934321
 20
-19.7944512015945833
 10
-14.5436893182840592
 20
-19.8056077988555117
 10
-14.5600039448826806
 20
-19.8167992952470726
 10
-14.576335055117319
 20
-19.8280030115707717
 10
-14.5926496817160114
 20
-19.8391962686282568
 10
-14.6089148574066243
 20
-19.8503563872211259
 10
-14.6250976149172942
 20
-19.8614606881509133
 10
-14.6411649869759728
 20
-19.8724864922192594
 10
-14.6570840063106758
 20
-19.8834111202277626
 10
-14.6728217056493975
 20
-19.8942118929778928
 10
-14.6883451177201465
 20
-19.904866131271362
 10
-14.7036212752509741
 20
-19.915351155909633
 10
-14.7186172109698248
 20
-19.9256442876944107
 10
-14.7332999576046575
 20
-19.9357228474272148
 10
-14.7476365478836158
 20
-19.9455641559096506
 10
-14.76159401453463
 20
-19.9551455339432664
 10
-14.7751393902856876
 20
-19.9644443023296816
 10
-14.7882397078648467
 20
-19.9734377818705013
 10
-14.8008620000000377
 20
-19.9821032933672669
 10
-15.302653000000042
 20
-20.326132293367273
 10
-15.3152288948004696
 20
-20.3342963602666984
 10
-15.32819176714451
 20
-20.3418025580109543
 10
-15.3415109795912059
 20
-20.3486537853950864
 10
-15.3551558946997631
 20
-20.3548529412139843
 10
-15.3690958750293944
 20
-20.360402924262516
 10
-15.3833002831392136
 20
-20.3653066333357131
 10
-15.3977384815883909
 20
-20.3695669672285504
 10
-15.4123798329361819
 20
-20.3731868247357966
 10
-15.427193699741558
 20
-20.3761691046525257
 10
-15.4421494445637677
 20
-20.3785167057736629
 10
-15.4572164299621093
 20
-20.3802325268941757
 10
-15.4723640184955542
 20
-20.3813194668088968
 10
-15.4875615727233438
 20
-20.3817804243128791
 10
-15.5027784552046128
 20
-20.3816182982009622
 10
-15.5179840284985957
 20
-20.3808359872680924
 10
-15.5331476551643277
 20
-20.3794363903093299
 10
-15.5482386977611071
 20
-20.377422406119436
 10
-15.5632265188479835
 20
-20.3747969334935348
 10
-15.5780804809842479
 20
-20.3715628712263666
 10
-15.5927699467288932
 20
-20.3677231181130054
 10
-15.607264278641253
 20
-20.363280572948355
 10
-15.6215328392803627
 20
-20.3582381345273475
 10
-15.6355449912054212
 20
-20.3525987016449506
 10
-15.6492700969756129
 20
-20.3463651730960322
 10
-15.6626775191500869
 20
-20.3395404476756028
 10
-15.6757366202880064
 20
-20.3321274241785659
 10
-15.6884167629485773
 20
-20.3241290013998821
 10
-15.7006873096908848
 20
-20.3155480781344764
 10
-15.7125176230740919
 20
-20.3063875531772737
 10
-15.7238770656574118
 20
-20.2966503253232275
 10
-15.7347350000000148
 20
-20.2863392933672699
 10
-16.1648420000000428
 20
-19.8559502933672718
 10
-16.5639040000000293
 20
-19.4568882933672569
 10
-17.8107620000000395
 20
-18.2100302933672609
 10
-18.2098240000000438
 20
-17.8109682933672815
 10
-19.4575280000000426
 20
-16.5638282933672087
 10
-19.856591000000023
 20
-16.1647662933672649
 10
-20.2869790000000094
 20
-15.7346592933672724
 10
-20.2973156836964499
 20
-15.7237758009702731
 10
-20.307075206303967
 20
-15.7123941512773726
 10
-20.3162548396160005
 20
-15.7005448113425246
 10
-20.3248518554261608
 20
-15.688258248219384
 10
-20.3328635255278556
 20
-15.6755649289619257
 10
-20.3402871217146348
 20
-15.6624953206238473
 10
-20.3471199157799454
 20
-15.6490798902589248
 10
-20.3533591795173407
 20
-15.635349104921076
 10
-20.3590021847202074
 20
-15.6213334316640697
 10
-20.3640462031821521
 20
-15.6070633375416463
 10
-20.3684885066966608
 20
-15.5925692896077663
 10
-20.3723263670571946
 20
-15.5778817549160919
 10
-20.3755570560572217
 20
-15.5630312005204416
 10
-20.3781778454902955
 20
-15.5480480934746623
 10
-20.3801860071498453
 20
-15.5329629008326222
 10
-20.3815788128294031
 20
-15.5178060896480261
 10
-20.3823535343224869
 20
-15.5026081269747351
 10
-20.3825074434225328
 20
-15.4873994798665748
 10
-20.3820378119230945
 20
-15.4722106153772643
 10
-20.3809419116176258
 20
-15.4570720005607285
 10
-20.3792170142996625
 20
-15.4420141024707078
 10
-20.3768603917626301
 20
-15.427067388160971
 10
-20.3738693158000856
 20
-15.4122623246854573
 10
-20.3702410582055329
 20
-15.3976293790978644
 10
-20.3659728907723903
 20
-15.383199018452018
 10
-20.3610620852942183
 20
-15.3690017098017577
 10
-20.355505913564528
 20
-15.3550679202009022
 10
-20.3493016473767447
 20
-15.3414281167031987
 10
-20.3424465585243937
 20
-15.3281127663624943
 10
-20.3349379188010033
 20
-15.3151523362325719
 10
-20.3267730000000171
 20
-15.3025772933672641
 10
-19.9824620000000372
 20
-14.8005032933672638
 10
-19.97379647598272
 20
-14.7878819563191684
 10
-19.964802921284992
 20
-14.7747842348596521
 10
-19.9555039587124412
 20
-14.7612429828707903
 10
-19.9459222110704779
 20
-14.7472910542346582
 10
-19.9360803011648073
 20
-14.7329613028331963
 10
-19.9260008518009357
 20
-14.7182865825485862
 10
-19.9157064857843231
 20
-14.7032997472627187
 10
-19.9052198259206037
 20
-14.688033650857804
 10
-19.8945634950153298
 20
-14.6725211472157326
 10
-19.883760115873951
 20
-14.6567950902186368
 10
-19.8728323113021013
 20
-14.6408883337485918
 10
-19.8618027041053011
 20
-14.6248337316875876
 10
-19.8506939170890853
 20
-14.6086641379176285
 10
-19.8395285730590167
 20
-14.5924124063208396
 10
-19.8283292948206196
 20
-14.5761113907792179
 10
-19.8171187051794497
 20
-14.5597939451748601
 10
-19.8059194269410597
 20
-14.5434929233897492
 10
-19.7947540829110125
 20
-14.5272411793059817
 10
-19.7836452958947682
 20
-14.5110715668055477
 10
-19.7726156886979645
 20
-14.4950169397705793
 10
-19.7616878841261183
 20
-14.4791101520830168
 10
-19.7508845049847679
 20
-14.4633840576249071
 10
-19.7402281740794621
 20
-14.4478715102784321
 10
-19.7297415142157426
 20
-14.4326053639254823
 10
-19.7194471481991656
 20
-14.4176184724482042
 10
-19.7093676988352335
 20
-14.4029436897285734
 10
-19.6995257889295914
 20
-14.3886138696487293
 10
-19.6899440412876814
 20
-14.3746618660906051
 10
-19.6806450787150702
 20
-14.3611205329362335
 10
-19.6716515240173457
 20
-14.3480227240678033
 10
-19.6629860000000249
 20
-14.3354012933672621
 10
-16.8610840000000195
 20
-10.2527752933672858
 10
-16.8528142379913817
 20
-10.2401241621867669
 10
-16.8449945927965103
 20
-10.2269382751402986
 10
-16.8376276224363295
 20
-10.2132520210031714
 10
-16.8307158849317346
 20
-10.1990997885504129
 10
-16.8242619383035006
 20
-10.1845159665571359
 10
-16.8182683405726792
 20
-10.1695349437986096
 10
-16.8127376497600238
 20
-10.1541911090498829
 10
-16.8076724238864017
 20
-10.1385188510860473
 10
-16.8030752209727439
 20
-10.1225525586822798
 10
-16.7989485990399743
 20
-10.1063266206137214
 10
-16.7952951161089317
 20
-10.0898754256555563
 10
-16.7921173302003837
 20
-10.0732333625827835
 10
-16.7894177993353964
 20
-10.0564348201706864
 10
-16.787199081534709
 20
-10.0395141871942712
 10
-16.7854637348192668
 20
-10.0225058524287434
 10
-16.7842143172098943
 20
-10.0054442046492085
 10
-16.7834533867275439
 20
-9.9883636326308078
 10
-16.7831835013930544
 20
-9.9712985251487041
 10
-16.7834072192272927
 20
-9.9542832709779674
 10
-16.7841270982511404
 20
-9.9373522588937533
 10
-16.7853456964855354
 20
-9.9205398776712741
 10
-16.7870655719512527
 20
-9.9038805160855361
 10
-16.7892892826692872
 20
-9.8874085629117729
 10
-16.7920193866603995
 20
-9.8711584069250335
 10
-16.7952584419455633
 20
-9.8551644369005444
 10
-16.799009006545603
 20
-9.8394610416133617
 10
-16.8032736384814285
 20
-9.8240826098386833
 10
-16.8080548957739353
 20
-9.8090635303516223
 10
-16.8133553364438839
 20
-9.7944381919272132
 10
-16.8191775185123191
 20
-9.7802409833407609
 10
-16.8255240000000015
 20
-9.7665062933672431
 10
-18.7299590000000187
 20
-5.0085212933672736
 10
-18.7348250855292022
 20
-4.9941978787118302
 10
-18.7403933221107302
 20
-4.9799200448022418
 10
-18.7466381313483978
 20
-4.9657104712397953
 10
-18.7535339348461392
 20
-4.9515918376255925
 10
-18.7610551542076678
 20
-4.937586823560963
 10
-18.7691762110368892
 20
-4.9237181086470514
 10
-18.7778715269376768
 20
-4.9100083724850947
 10
-18.7871155235138616
 20
-4.8964802946764223
 10
-18.7968826223691678
 20
-4.8831565548220155
 10
-18.8071472451075969
 20
-4.8700598325233457
 10
-18.8178838133329123
 20
-4.8572128073815577
 10
-18.829066748648934
 20
-4.8446381589978103
 10
-18.8406704726595251
 20
-4.8323585669733902
 10
-18.8526694069685803
 20
-4.8203967109094918
 10
-18.8650379731798594
 20
-4.808775270407331
 10
-18.877750592897204
 20
-4.7975169250681162
 10
-18.8907816877245232
 20
-4.7866443544931343
 10
-18.9041056792655695
 20
-4.7761802382835086
 10
-18.9176969891242699
 20
-4.7661472560405542
 10
-18.9315300389043877
 20
-4.7565680873654514
 10
-18.9455792502098213
 20
-4.7474654118594231
 10
-18.9598190446444121
 20
-4.7388619091237132
 10
-18.9742238438119131
 20
-4.7307802587594807
 10
-18.9887680693162793
 20
-4.723243140368055
 10
-19.0034261427612741
 20
-4.7162732335505382
 10
-19.0181724857507355
 20
-4.7098932179082098
 10
-19.0329815198885761
 20
-4.7041257730423283
 10
-19.0478276667785771
 20
-4.6989935785540879
 10
-19.0626853480245906
 20
-4.6945193140446406
 10
-19.0775289852304581
 20
-4.6907256591153157
 10
-19.092333000000032
 20
-4.687635293367272
 10
-24.0402530000000176
 20
-3.7670262933672873
 10
-24.0553252346010353
 20
-3.764212575600169
 10
-24.070964512604526
 20
-3.761293369128424
 10
-24.0871317275687851
 20
-3.7582759490351378
 10
-24.1037877730522716
 20
-3.7551675904032891
 10
-24.1208935426135476
 20
-3.7519755683160767
 10
-24.138409929811047
 20
-3.7487071578565576
 10
-24.1562978282031686
 20
-3.7453696341077887
 10
-24.1745181313484068
 20
-3.7419702721527912
 10
-24.193031732805192
 20
-3.7385163470747074
 10
-24.2117995261320367
 20
-3.7350151339566509
 10
-24.2307824048873854
 20
-3.7314739078817212
 10
-24.2499412626296973
 20
-3.7278999439328899
 10
-24.2692369929173495
 20
-3.7243005171932566
 10
-24.288630489308872
 20
-3.7206829027459349
 10
-24.3080826453627381
 20
-3.7170543756740102
 10
-24.3275543546373392
 20
-3.7134222110605251
 10
-24.3470065106911697
 20
-3.7097936839885719
 10
-24.3664000070826816
 20
-3.7061760695412573
 10
-24.38569573737038
 20
-3.7025766428016738
 10
-24.4048545951126314
 20
-3.6990026788527999
 10
-24.423837473867998
 20
-3.6954614527778276
 10
-24.4426052671948106
 20
-3.6919602396597639
 10
-24.461118868651635
 20
-3.688506314581744
 10
-24.4793391717968802
 20
-3.6851069526267963
 10
-24.4972270701890196
 20
-3.6817694288780132
 10
-24.5147434573865048
 20
-3.6785010184184799
 10
-24.5318492269477844
 20
-3.6753089963312817
 10
-24.5485052724312922
 20
-3.6722006376994045
 10
-24.5646724873955478
 20
-3.6691832176061467
 10
-24.5803117653989673
 20
-3.6662640111343947
 10
-24.5953840000000312
 20
-3.6634502933672692
 10
-25.1931310000000295
 20
-3.5522552933672813
 10
-25.2078162064046651
 20
-3.5491464954417324
 10
-25.2223074732973629
 20
-3.5452983813469103
 10
-25.2365853044543869
 20
-3.5407345964117738
 10
-25.250630203652122
 20
-3.5354787859657222
 10
-25.2644226746668537
 20
-3.5295545953376291
 10
-25.2779432212749029
 20
-3.5229856698568085
 10
-25.2911723472525622
 20
-3.5157956548523259
 10
-25.3040905563761385
 20
-3.508008195653197
 10
-25.3166783524218886
 20
-3.499646937588679
 10
-25.3289162391662011
 20
-3.4907355259878656
 10
-25.3407847203853969
 20
-3.4812976061798651
 10
-25.3522642998557117
 20
-3.4713568234938137
 10
-25.3633354813534524
 20
-3.460936823258848
 10
-25.373978768654986
 20
-3.4500612508040902
 10
-25.3841746655366016
 20
-3.4387537514586484
 10
-25.3939036757746095
 20
-3.427037970551666
 10
-25.4031463031452986
 20
-3.4149375534122441
 10
-25.4118830514249154
 20
-3.4024761453695334
 10
-25.4200944243899514
 20
-3.3896773917526843
 10
-25.4277609258165143
 20
-3.3765649378907554
 10
-25.4348630594810992
 20
-3.3631624291129754
 10
-25.4413813291598352
 20
-3.3494935107483741
 10
-25.4472962386291464
 20
-3.3355818281260952
 10
-25.452588291665279
 20
-3.3214510265752892
 10
-25.4572379920446288
 20
-3.3071247514250643
 10
-25.4612258435433674
 20
-3.2926266480045712
 10
-25.4645323499379508
 20
-3.277980361642939
 10
-25.4671380150045294
 20
-3.2632095376692405
 10
-25.4690233425195522
 20
-3.2483378214126475
 10
-25.4701688362592762
 20
-3.2333888582022752
 10
-25.4705550000000187
 20
-3.2183862933672671
 10
-25.4705550000000116
 20
-2.6101972933672428
 10
-25.4705550000000116
 20
-2.0457522933672578
 10
-25.4705550000000258
 20
-0.2824282933672606
 10
-25.4705550000000116
 20
0.2820167066327528
 10
-25.4708370000000102
 20
2.0459047066329461
 10
-25.4708370000000244
 20
2.6103497066326682
 10
-25.4711190000000229
 20
3.2188207066327053
 10
-25.4707328362593373
 20
3.2338479870529255
 10
-25.4695873425195813
 20
3.2488167814201958
 10
-25.467702015004555
 20
3.2637038419756053
 10
-25.4650963499379372
 20
3.2784859209591701
 10
-25.4617898435433574
 20
3.2931397706117522
 10
-25.4578019920446081
 20
3.3076421431739433
 10
-25.453152291665269
 20
3.3219697908862997
 10
-25.4478602386291186
 20
3.3360994659895127
 10
-25.4419453291597932
 20
3.3500079207242379
 10
-25.4354270594810217
 20
3.3636719073309678
 10
-25.4283249258165256
 20
3.3770681780502372
 10
-25.420658424389913
 20
3.3901734851229293
 10
-25.4124470514249339
 20
3.4029645807894227
 10
-25.4037103031452531
 20
3.4154182172902736
 10
-25.3944676757746066
 20
3.4275111468664079
 10
-25.3847386655365881
 20
3.4392201217580478
 10
-25.3745427686549831
 20
3.4505218942062186
 10
-25.3638994813534353
 20
3.4613932164510572
 10
-25.3528282998556591
 20
3.4718108407336601
 10
-25.341348720385362
 20
3.4817515192942636
 10
-25.3294802391662373
 20
3.4911920043736515
 10
-25.3172423524219141
 20
3.5001090482124724
 10
-25.3046545563761285
 20
3.5084794030510409
 10
-25.2917363472525309
 20
3.5162798211303823
 10
-25.2785072212748574
 20
3.5234870546908326
 10
-25.2649866746668224
 20
3.5300778559730972
 10
-25.2511942036521262
 20
3.5360289772177893
 10
-25.2371493044544124
 20
3.5413171706654509
 10
-25.2228714732973387
 20
3.5459191885567591
 10
-25.2083802064046338
 20
3.5498117831323839
 10
-25.1936950000000266
 20
3.5529717066327464
 10
-24.5953840000000312
 20
3.6644497066326593
 10
-24.5803117653989531
 20
3.6672104948237561
 10
-24.5646724873955478
 20
3.6700801911413734
 10
-24.548505272431278
 20
3.6730514061057065
 10
-24.5318492269477915
 20
3.6761167502364813
 10
-24.5147434573864942
 20
3.6792688340537438
 10
-24.4972270701890338
 20
3.6825002680774332
 10
-24.4793391717968305
 20
3.6858036628275883
 10
-24.4611188686516314
 20
3.6891716288239493
 10
-24.4426052671948142
 20
3.6925967765868037
 10
-24.4238374738679482
 20
3.6960717166357355
 10
-24.4048545951126599
 20
3.6995890594909184
 10
-24.3856957373703835
 20
3.703141415672377
 10
-24.3664000070827029
 20
3.7067213956998231
 10
-24.3470065106911377
 20
3.7103216100935512
 10
-24.3275543546373214
 20
3.7139346693731383
 10
-24.3080826453626955
 20
3.7175531840588434
 10
-24.2886304893088933
 20
3.7211697646703712
 10
-24.2692369929173211
 20
3.7247770217279097
 10
-24.249941262629676
 20
3.7283675657512561
 10
-24.230782404887357
 20
3.7319340072604348
 10
-24.2117995261320615
 20
3.7354689567754278
 10
-24.1930317328052027
 20
3.738965024816018
 10
-24.1745181313484068
 20
3.7424148219024147
 10
-24.1562978282031722
 20
3.7458109585545003
 10
-24.1384099298110328
 20
3.7491460452920222
 10
-24.1208935426135653
 20
3.7524126926352537
 10
-24.1037877730522681
 20
3.7556035111038995
 10
-24.0871317275687105
 20
3.7587111112180409
 10
-24.0709645126044549
 20
3.7617281034975605
 10
-24.0553252346010353
 20
3.7646470984624543
 10
-24.0402529999999999
 20
3.7674607066327042
 10
-18.9390860000000174
 20
4.7162917066327594
 10
-18.9242714907522824
 20
4.7194042250778665
 10
-18.9093966731563725
 20
4.7232097917590821
 10
-18.8944875801752161
 20
4.7276860688562365
 10
-18.8795702447719407
 20
4.7328107185490964
 10
-18.8646706999093894
 20
4.7385614030175347
 10
-18.8498149785505618
 20
4.7449157844414529
 10
-18.8350291136585
 20
4.7518515250006814
 10
-18.8203391381960898
 20
4.7593462868750791
 10
-18.8057710851263451
 20
4.7673777322445403
 10
-18.7913509874122795
 20
4.7759235232887889
 10
-18.7771048780168641
 20
4.7849613221877547
 10
-18.7630587899029493
 20
4.7944687911213251
 10
-18.7492387560337121
 20
4.8044235922693304
 10
-18.7356708093719675
 20
4.8148033878115939
 10
-18.7223809828807433
 20
4.8255858399280029
 10
-18.7093953095230461
 20
4.8367486107984092
 10
-18.696739822261776
 20
4.8482693626026219
 10
-18.6844405540599681
 20
4.8601257575205565
 10
-18.6725235378805863
 20
4.8722954577320579
 10
-18.6610148066866017
 20
4.8847561254169278
 10
-18.6499403934410211
 20
4.8974854227550111
 10
-18.6393263311067656
 20
4.9104610119262446
 10
-18.629198652646771
 20
4.9236605551104446
 10
-18.6195833910241433
 20
4.9370617144874274
 10
-18.6105065792017825
 20
4.9506421522371227
 10
-18.6019942501426456
 20
4.9643795305392899
 10
-18.594072436809796
 20
4.9782515115737951
 10
-18.5867671721660983
 20
4.9922357575205893
 10
-18.5801044891745661
 20
5.0063099305594037
 10
-18.5741104207982275
 20
5.0204516928702105
 10
-18.5688110000000179
 20
5.0346387066327125
 10
-16.6511110000000002
 20
9.5075787066327209
 10
-16.6444932362458644
 20
9.5211760531131873
 10
-16.6384036287805657
 20
9.5352346689031791
 10
-16.6328399613642475
 20
9.5497206765900486
 10
-16.6278000177570746
 20
9.5646001987612053
 10
-16.6232815817192972
 20
9.5798393580039587
 10
-16.6192824370112007
 20
9.5954042769056045
 10
-16.6158003673928434
 20
9.611261078053623
 10
-16.6128331566244611
 20
9.6273758840352883
 10
-16.6103785884663111
 20
9.6437148174380454
 10
-16.608434446678551
 20
9.6602440008491257
 10
-16.6069985150213313
 20
9.6769295568559457
 10
-16.6060685772549235
 20
9.6937376080459075
 10
-16.6056424171394283
 20
9.7106342770063563
 10
-16.6057178184351102
 20
9.7275856863245878
 10
-16.6062925649021267
 20
9.7445579585880182
 10
-16.6073644403007847
 20
9.7615172163840143
 10
-16.6089312283911852
 20
9.7784295822998644
 10
-16.6109907129334289
 20
9.7952611789230204
 10
-16.6135406776879435
 20
9.8119781288407779
 10
-16.6165789064146878
 20
9.8285465546405248
 10
-16.6201031828740469
 20
9.8449325789095639
 10
-16.624111290826157
 20
9.8611023242353397
 10
-16.6286010140311262
 20
9.8770219132051835
 10
-16.6335701362492472
 20
9.8926574684064263
 10
-16.6390164412406705
 20
9.9079751124264206
 10
-16.644937712765639
 20
9.9229409678525684
 10
-16.651331734584339
 20
9.9375211572721724
 10
-16.6581962904568854
 20
9.9516818032726562
 10
-16.6655291641435213
 20
9.9653890284413436
 10
-16.6733281394045036
 20
9.9786089553656012
 10
-16.6815910000000258
 20
9.9913077066327176
 10
-19.6627040000000051
 20
14.3352717066327315
 10
-19.6713695114967564
 20
14.3479195662883434
 10
-19.680362991037601
 20
14.3610421572386002
 10
-19.6896617594240304
 20
14.3746067393942809
 10
-19.6992431374576888
 20
14.3885805726660791
 10
-19.7090844459401033
 20
14.4029309169646993
 10
-19.7191630056728506
 20
14.4176250322008421
 10
-19.7294561374576425
 20
14.4326301782852333
 10
-19.7399411620959597
 20
14.4479136151285417
 10
-19.7505954003893471
 20
14.4634426026415603
 10
-19.7613961731395094
 20
14.4791844007350115
 10
-19.7723208011480089
 20
14.4951062693194359
 10
-19.783346605216316
 20
14.511175468305737
 10
-19.7944509061461318
 20
14.527359257604509
 10
-19.8056110247390649
 20
14.5436248971264916
 10
-19.8168042817965251
 20
14.5599396467824462
 10
-19.8280079981202029
 20
14.5762707664830131
 10
-19.8391994945117958
 20
14.5925855161389606
 10
-19.8503560917727206
 20
14.6088511556609504
 10
-19.8614551107045934
 20
14.6250349449597223
 10
-19.8724738721090155
 20
14.6411041439460163
 10
-19.8833896967876456
 20
14.6570260125304799
 10
-19.8941799055419501
 20
14.672767810623867
 10
-19.9048218191735735
 20
14.6882967981368608
 10
-19.9152927584840924
 20
14.7035802349802083
 10
-19.9255700442750943
 20
14.7185853810646208
 10
-19.935630997348202
 20
14.7332794963007316
 10
-19.9454529385049284
 20
14.7476298405993447
 10
-19.9550131885468787
 20
14.761603673871182
 10
-19.9642890682756615
 20
14.7751682560268378
 10
-19.9732578984928324
 20
14.7882908469771337
 10
-19.9818970000000071
 20
14.8009387066327349
 10
-20.3262080000000402
 20
15.3027297066326966
 10
-20.3343464993790377
 20
15.3153048401294143
 10
-20.3418304237521959
 20
15.328265349007907
 10
-20.3486624447316657
 20
15.3415807668186694
 10
-20.3548452339297583
 20
15.3552206271120539
 10
-20.3603814629586353
 20
15.3691544634384769
 10
-20.365273803430572
 20
15.3833518093482873
 10
-20.369524926957812
 20
15.3977821983919725
 10
-20.3731375051525596
 20
15.4124151641198921
 10
-20.3761142096270476
 20
15.4272202400824447
 10
-20.3784577119935797
 20
15.4421669598300397
 10
-20.3801706838642644
 20
15.4572248569129869
 10
-20.381255796851363
 20
15.472363464881898
 10
-20.3817157225672467
 20
15.4875523172869691
 10
-20.3815531326240134
 20
15.5027609476786594
 10
-20.3807706986338495
 20
15.5179588896074456
 10
-20.3793710922090199
 20
15.5331156766236873
 10
-20.3773569849619136
 20
15.5482008422777227
 10
-20.3747310485045965
 20
15.5631839201200037
 10
-20.3714959544493759
 20
15.5780344437009575
 10
-20.3676543744083673
 20
15.5927219465709612
 10
-20.3632089799940026
 20
15.6072159622803888
 10
-20.358162442818351
 20
15.6214860243796778
 10
-20.3525174344936737
 20
15.6355016664192163
 10
-20.3462766266322355
 20
15.6492324219494279
 10
-20.3394426908461909
 20
15.6626478245207039
 10
-20.3320182987479541
 20
15.6757174076833614
 10
-20.3240061219495836
 20
15.6884107049879233
 10
-20.3154088320633619
 20
15.7006972499847457
 10
-20.3062291007015752
 20
15.71254657622422
 10
-20.2964695994763815
 20
15.7239282172567343
 10
-20.2861329999999995
 20
15.7348117066327333
 10
-19.8560260000000284
 20
16.1649187066327187
 10
-19.456963999999985
 20
16.5639807066327052
 10
-18.2098240000000402
 20
17.8111207066327033
 10
-17.8107619999999969
 20
18.2101827066327218
 10
-16.5639040000000293
 20
19.4573227066327235
 10
-16.1648420000000215
 20
19.8566677066327095
 10
-15.7344530000000162
 20
20.2867737066327365
 10
-15.7235950656574346
 20
20.297111251730211
 10
-15.7122356230741218
 20
20.3068732828134415
 10
-15.7004053096908223
 20
20.3160569580844985
 10
-15.6881347629485433
 20
20.3246594357455201
 10
-15.6754546202880007
 20
20.3326778739987226
 10
-15.6623955191501167
 20
20.3401094310461126
 10
-15.6489880969755859
 20
20.3469512650899986
 10
-15.6352629912054226
 20
20.3532005343323696
 10
-15.6212508392803073
 20
20.3588543969754738
 10
-15.6069822786411692
 20
20.363910011221364
 10
-15.5924879467288662
 20
20.3683645352722671
 10
-15.5777984809841286
 20
20.3722151273302643
 10
-15.5629445188479423
 20
20.3754589455975221
 10
-15.5479566977611015
 20
20.3780931482761645
 10
-15.5328656551643149
 20
20.3801148935683756
 10
-15.5177020284984835
 20
20.3815213396762793
 10
-15.5024964552046285
 20
20.3823096448019676
 10
-15.4872795727233381
 20
20.3824769671476389
 10
-15.4720820184955343
 20
20.3820204649154171
 10
-15.4569344299620823
 20
20.3809372963074651
 10
-15.4418674445637691
 20
20.3792246195258926
 10
-15.4269116997415026
 20
20.3768795927728377
 10
-15.4120978329361193
 20
20.3738993742504597
 10
-15.3974564815884136
 20
20.3702811221609075
 10
-15.3830182831392221
 20
20.3660219947063119
 10
-15.368813875029403
 20
20.3611191500888147
 10
-15.3548738946997645
 20
20.3555697465105396
 10
-15.3412289795911505
 20
20.349370942173671
 10
-15.3279097671444333
 20
20.3425198952803186
 10
-15.3149468948004568
 20
20.3350137640326096
 10
-15.3023709999999866
 20
20.3268497066327321
 10
-14.8005789999999777
 20
19.9825387066327274
 10
-14.7879576534859609
 20
19.9738483888857417
 10
-14.7748598657648529
 20
19.9648349992043102
 10
-14.7613184339229946
 20
19.955520818411447
 10
-14.7473661550468549
 20
19.9459281273302196
 10
-14.733035826222654
 20
19.9360792067837878
 10
-14.7183602445369672
 20
19.9259963375950697
 10
-14.7033722070760007
 20
19.9157018005872857
 10
-14.6881045109260953
 20
19.9052178765833716
 10
-14.6725899531737483
 20
19.8945668464065051
 10
-14.656861330905258
 20
19.8837709908796541
 10
-14.6409514412070791
 20
19.8728525908259286
 10
-14.6248930811654603
 20
19.8618339270684139
 10
-14.6087190478668205
 20
19.8507372804301738
 10
-14.5924621383975222
 20
19.839584931734251
 10
-14.5761551498439275
 20
19.8283991618037447
 10
-14.5598308792923916
 20
19.8172022514616941
 10
-14.5435221238293835
 20
19.8060164815311843
 10
-14.5272616805411374
 20
19.7948641328352615
 10
-14.5110823465140584
 20
19.7837674861970285
 10
-14.495016918834537
 20
19.7727488224395103
 10
-14.4790981945889499
 20
19.7618304223857884
 10
-14.4633589708636592
 20
19.7510345668589622
 10
-14.4478320447450557
 20
19.7403835366820779
 10
-14.4325502133194519
 20
19.7298996126781532
 10
-14.4175462736732385
 20
19.7196050756703443
 10
-14.4028530228927707
 20
19.7095222064816831
 10
-14.3885032580645316
 20
19.6996732859351589
 10
-14.3745297762747057
 20
19.690080594853999
 10
-14.3609653746097479
 20
19.6807664140611216
 10
-14.3478428501560771
 20
19.6717530243796617
 10
-14.3351950000000272
 20
19.6630627066327115
 10
-9.8980970000000141
 20
16.6178847066327222
 10
-9.8854468239065483
 20
16.6095902510253239
 10
-9.8722635329797441
 20
16.6017509160919445
 10
-9.8585814026048126
 20
16.5943689754723067
 10
-9.8444347081668795
 20
16.5874467028060479
 10
-9.8298577250511698
 20
16.5809863717329193
 10
-9.8148847286428733
 20
16.5749902558925299
 10
-9.7995499943271156
 20
16.5694606289246593
 10
-9.7838877974891929
 20
16.5643997644689733
 10
-9.767932413514167
 20
16.5598099361651414
 10
-9.7517181177872203
 20
16.5556934176528472
 10
-9.7352791856936847
 20
16.5520524825717636
 10
-9.718649892618572
 20
16.5488894045616206
 10
-9.7018645139471928
 20
16.5462064572621053
 10
-9.6849573250646159
 20
16.5440059143129048
 10
-9.6679626013561162
 20
16.5422900493536709
 10
-9.650914618206869
 20
16.541061136024144
 10
-9.6338476510019859
 20
16.54032144796399
 10
-9.6167959751267347
 20
16.5400732588128818
 10
-9.5997938659662694
 20
16.5403188422105671
 10
-9.5828755989057299
 20
16.5410604717967153
 10
-9.5660754493303415
 20
16.5423004212109532
 10
-9.5494276926252937
 20
16.5440409640930142
 10
-9.5329666041757761
 20
16.5462843740826173
 10
-9.5167264593669216
 20
16.5490329248194286
 10
-9.5007415335839767
 20
16.5522888899431138
 10
-9.4850461022121024
 20
16.5560545430933956
 10
-9.4696744406364459
 20
16.5603321579099401
 10
-9.4546608242422252
 20
16.5651240080324698
 10
-9.4400395284146157
 20
16.5704323671006506
 10
-9.4258448285388141
 20
16.5762595087541733
 10
-9.4121110000000243
 20
16.5826077066327144
 10
-5.0757660000000016
 20
18.3575027066327294
 10
-5.0614988634486835
 20
18.3625854941188464
 10
-5.0472804372461653
 20
18.3683666152628149
 10
-5.0331330030210708
 20
18.3748202080928849
 10
-5.0190788424021235
 20
18.381920410637278
 10
-5.0051402370178693
 20
18.3896413609243297
 10
-4.991339468497209
 20
18.3979571969821194
 10
-4.9776988184686601
 20
18.4068420568391815
 10
-4.9642405685609745
 20
18.4162700785235671
 10
-4.9509870004028116
 20
18.42621540006364
 10
-4.9379603956228237
 20
18.4366521594876502
 10
-4.925183035849777
 20
18.4475544948237911
 10
-4.912677202712203
 20
18.4588965441004262
 10
-4.9004651778389601
 20
18.470652445345749
 10
-4.888569242858587
 20
18.4827963365880947
 10
-4.8770116793998568
 20
18.4953023558556566
 10
-4.8658147690913367
 20
18.5081446411767132
 10
-4.8550007935618282
 20
18.521297330579543
 10
-4.8445920344399553
 20
18.5347345620924244
 10
-4.8346107733543491
 20
18.5484304737436076
 10
-4.8250792919337968
 20
18.5623592035613427
 10
-4.8160198718069367
 20
18.5764948895738797
 10
-4.8074547946023927
 20
18.5908116698094972
 10
-4.7994063419489166
 20
18.605283682296502
 10
-4.7918967954751537
 20
18.6198850650631158
 10
-4.7849484368097635
 20
18.6345899561376172
 10
-4.7785835475814764
 20
18.6493724935482597
 10
-4.7728244094189591
 20
18.6642068153232543
 10
-4.7676933039508782
 20
18.6790670594909471
 10
-4.763212512805886
 20
18.6939273640796131
 10
-4.7594043176126917
 20
18.7087618671174418
 10
-4.7562910000000116
 20
18.7235447066327225
 10
-3.7671019999999942
 20
24.0400477066327163
 10
-3.76431471118795
 20
24.0551199317678055
 10
-3.7614202867980424
 20
24.0707591435096191
 10
-3.7584261157061221
 20
24.0869261786209137
 10
-3.7553395867879829
 20
24.1035818738644281
 10
-3.7521680889194542
 20
24.1206870660030006
 10
-3.7489190109764792
 20
24.1382025917993737
 10
-3.745599741834809
 20
24.1560892880163607
 10
-3.7422176703702732
 20
24.1743079914167147
 10
-3.7387801854587011
 20
24.1928195387632456
 10
-3.735294675975986
 20
24.211584766818703
 10
-3.7317685307979005
 20
24.2305645123458504
 10
-3.7282091388003025
 20
24.2497196121075262
 10
-3.7246238888590852
 20
24.2690109028664978
 10
-3.7210201698499716
 20
24.2883992213855038
 10
-3.7174053706488905
 20
24.3078454044273649
 10
-3.7137868801315648
 20
24.3273102887548447
 10
-3.7101720871740085
 20
24.3467547111307283
 10
-3.7065683806519019
 20
24.3661395083177723
 10
-3.7029831494411383
 20
24.3854255170788292
 10
-3.6994237824175116
 20
24.4045735741766094
 10
-3.6958976684569222
 20
24.4235445163739122
 10
-3.6924121964351571
 20
24.4422991804335226
 10
-3.6889747552281094
 20
24.4607984031182326
 10
-3.6855927337115375
 20
24.4790030211908203
 10
-3.6822735207612922
 20
24.4968738714140244
 10
-3.6790245052532526
 20
24.5143717905506975
 10
-3.6758530760632482
 20
24.53145761536355
 10
-3.6727666220670727
 20
24.5480921826154059
 10
-3.6697725321405841
 20
24.5642363290690504
 10
-3.6668781951596188
 20
24.5798508914872258
 10
-3.6640910000000204
 20
24.5948967066327278
 10
-3.552330999999981
 20
25.193207706632716
 10
-3.5492230634755586
 20
25.2078664935817898
 10
-3.5453774578564534
 20
25.2223330448892256
 10
-3.5408177148803333
 20
25.2365878075356846
 10
-3.5355673662851359
 20
25.2506112285017394
 10
-3.5296499438085362
 20
25.2643837547680761
 10
-3.5230889791883797
 20
25.277885833315267
 10
-3.5159080041623199
 20
25.2910979111240266
 10
-3.5081305504682732
 20
25.3040004351748671
 10
-3.499780149843879
 20
25.3165738524485739
 10
-3.4908803340270396
 20
25.3287986099256734
 10
-3.4814546347554725
 20
25.3406551545867984
 10
-3.4715265837669307
 20
25.3521239334126136
 10
-3.4611197127991957
 20
25.363185393383759
 10
-3.4502575535900064
 20
25.3738199814808212
 10
-3.4389636378772224
 20
25.3840081446844756
 10
-3.4272614973985611
 20
25.393730329975341
 10
-3.4151746638917899
 20
25.4029669843340429
 10
-3.4027266690947258
 20
25.4116985547411893
 10
-3.3899410447450578
 20
25.4199054881774771
 10
-3.3768413225806242
 20
25.4275682316234786
 10
-3.3634510343392492
 20
25.4346672320598692
 10
-3.3497937117586147
 20
25.441182936467218
 10
-3.3358928865765236
 20
25.4470957918262464
 10
-3.3217720905307004
 20
25.4523862451174949
 10
-3.3074548553590191
 20
25.4570347433216426
 10
-3.2929647127991615
 20
25.4610217334193401
 10
-3.2783251945889731
 20
25.4643276623911703
 10
-3.2635598324661999
 20
25.4669329772178088
 10
-3.2486921581685664
 20
25.46881812487986
 10
-3.2337457034339323
 20
25.4699635523579566
 10
-3.218744000000008
 20
25.4703497066327138
 10
-2.6102730000000136
 20
25.4703497066327138
 10
-2.0458279999999789
 20
25.4703497066327174
 10
-0.2819390000000013
 20
25.4703497066327174
 10
0.2825049999999791
 20
25.4703497066327138
 10
2.0463939999999852
 20
25.4703497066327174
 10
2.6108380000000224
 20
25.4703497066327138
 10
3.2190269999999899
 20
25.4703497066327138
 10
3.2340287064549429
 20
25.469963542858423
 10
3.2489751698499205
 20
25.4688180488836906
 10
3.2638428578429384
 20
25.4669327207309273
 10
3.2786082380920121
 20
25.4643270544222986
 10
3.2932477782551572
 20
25.4610205459801939
 10
3.3077379459903611
 20
25.4570326914267717
 10
3.3220552089557529
 20
25.4523829867844285
 10
3.3361760348091636
 20
25.4470909280754114
 10
3.3500768912087651
 20
25.4411760113220566
 10
3.3637342458125232
 20
25.4346577325466079
 10
3.377124566278404
 20
25.4275555877713195
 10
3.3902243202645295
 20
25.4198890730185525
 10
3.4030099754288088
 20
25.4116776843105328
 10
3.4154579994293428
 20
25.4029409176696248
 10
3.4275448599241329
 20
25.3936982691180333
 10
3.4392470245711664
 20
25.3839692346781014
 10
3.4505409610285014
 20
25.3737733103721013
 10
3.4614031369541109
 20
25.3631299922223121
 10
3.4718100200060391
 20
25.3520587762510701
 10
3.4817380778422873
 20
25.3405791584805975
 10
3.4911637781208427
 20
25.3287106349332021
 10
3.5000635884998772
 20
25.3164727016312128
 10
3.5084139766372218
 20
25.3038848545968698
 10
3.5161914101909773
 20
25.2909665898524842
 10
3.5233723568191593
 20
25.2777374034203461
 10
3.5299332841797693
 20
25.2642167913227382
 10
3.5358506599308086
 20
25.2504242495819398
 10
3.5411009517303711
 20
25.2363792742202548
 10
3.5456606272364084
 20
25.2221013612599592
 10
3.549506154106929
 20
25.2076100067233568
 10
3.55261399999997
 20
25.1929247066327235
 10
3.6640920000000037
 20
24.5948967066327242
 10
3.6669047562350912
 20
24.5798508914871974
 10
3.6698213089859095
 20
24.5642363290690042
 10
3.6728344391594518
 20
24.5480921826153811
 10
3.6759369276627112
 20
24.5314576153635215
 10
3.6791215554026238
 20
24.5143717905506975
 10
3.6823811032862395
 20
24.4968738714140244
 10
3.6857083522204661
 20
24.4790030211908203
 10
3.6890960831123394
 20
24.4607984031182326
 10
3.6925370768688666
 20
24.442299180433551
 10
3.6960241143969839
 20
24.4235445163739229
 10
3.6995499766036275
 20
24.4045735741766094
 10
3.7031074443959611
 20
24.3854255170788434
 10
3.7066892986807787
 20
24.3661395083178043
 10
3.7102883203652013
 20
24.3467547111307283
 10
3.7138972903561367
 20
24.3273102887548447
 10
3.7175089895606064
 20
24.3078454044273684
 10
3.7211161988855466
 20
24.2883992213854896
 10
3.7247116992380072
 20
24.2690109028664835
 10
3.7282882715249528
 20
24.249719612107512
 10
3.7318386966533694
 20
24.2305645123458646
 10
3.7353557555302004
 20
24.2115847668186603
 10
3.7388322290624458
 20
24.1928195387632279
 10
3.7422608981571344
 20
24.174307991416697
 10
3.7456345437212448
 20
24.1560892880163465
 10
3.7489459466617276
 20
24.1382025917993843
 10
3.7521878878856185
 20
24.1206870660030184
 10
3.7553531482998252
 20
24.1035818738644281
 10
3.7584345088113693
 20
24.0869261786209137
 10
3.7614247503272864
 20
24.0707591435096333
 10
3.7643166537544843
 20
24.0551199317678339
 10
3.7671029999999988
 20
24.0400477066327198
 10
4.7565739999999934
 20
18.7235447066327225
 10
4.7596873176126948
 20
18.708761867117417
 10
4.763495512805882
 20
18.6939273640795847
 10
4.7679763039508813
 20
18.6790670594909471
 10
4.7731074094189339
 20
18.6642068153232543
 10
4.7788665475814511
 20
18.6493724935482277
 10
4.7852314368098021
 20
18.6345899561375603
 10
4.7921797954751426
 20
18.6198850650631442
 10
4.799689341948941
 20
18.605283682296502
 10
4.8077377946024242
 20
18.590811669809522
 10
4.8163028718069185
 20
18.5764948895739046
 10
4.8253622919338213
 20
18.5623592035613285
 10
4.8348937733543309
 20
18.5484304737435792
 10
4.8448750344399301
 20
18.5347345620924244
 10
4.855283793561803
 20
18.521297330579543
 10
4.8660977690913185
 20
18.5081446411767132
 10
4.8772946793998457
 20
18.4953023558556566
 10
4.888852242858583
 20
18.4827963365880947
 10
4.9007481778389419
 20
18.470652445345749
 10
4.9129602027122061
 20
18.4588965441004262
 10
4.9254660358497446
 20
18.4475544948237911
 10
4.9382433956227985
 20
18.4366521594875934
 10
4.9512700004027934
 20
18.4262154000636116
 10
4.9645235685609563
 20
18.4162700785235671
 10
4.9779818184686562
 20
18.4068420568391531
 10
4.9916224684971908
 20
18.3979571969821762
 10
5.0054232370178724
 20
18.3896413609243012
 10
5.0193618424020698
 20
18.381920410637278
 10
5.0334160030210384
 20
18.3748202080929133
 10
5.0475634372461329
 20
18.3683666152628717
 10
5.0617818634486795
 20
18.3625854941188749
 10
5.0760489999999763
 20
18.3575027066327294
 10
9.412393999999999
 20
16.5826077066327002
 10
9.4261279192037577
 20
16.5762595087541484
 10
9.4403226980631345
 20
16.5704323671006222
 10
9.4549440619985532
 20
16.5651240080324733
 10
9.4699577364304517
 20
16.5603321579099401
 10
9.4853294467792111
 20
16.5560545430933956
 10
9.5010249184652835
 20
16.5522888899431138
 10
9.5170098769091496
 20
16.5490329248194001
 10
9.5332500475311193
 20
16.5462843740826173
 10
9.5497111557517158
 20
16.5440409640930142
 10
9.5663589269914269
 20
16.5423004212109674
 10
9.5831590866704843
 20
16.5410604717966692
 10
9.6000773602094611
 20
16.5403188422105814
 10
9.6170794730287597
 20
16.540073258812896
 10
9.6341311505488179
 20
16.54032144796399
 10
9.6511981181900737
 20
16.5410611360241226
 10
9.6682461013729082
 20
16.5422900493536531
 10
9.6852408255177735
 20
16.5440059143128906
 10
9.7021480160451219
 20
16.5462064572620875
 10
9.7189333983753201
 20
16.5488894045616206
 10
9.7355626979289056
 20
16.5520524825717672
 10
9.7520016401262168
 20
16.5556934176527903
 10
9.768215950387706
 20
16.5598099361651201
 10
9.7841713541337967
 20
16.5643997644689733
 10
9.7998335767849412
 20
16.5694606289246735
 10
9.8151683437615489
 20
16.5749902558925584
 10
9.8301413804840436
 20
16.5809863717329193
 10
9.8447184123728775
 20
16.5874467028060479
 10
9.8588651648484742
 20
16.5943689754723067
 10
9.8725473633312291
 20
16.6017509160919445
 10
9.88573073324158
 20
16.6095902510253239
 10
9.8983810000000219
 20
16.617884706632708
 10
14.3354779999999948
 20
19.6630627066327115
 10
14.348125850189632
 20
19.6717530243796652
 10
14.3612483748783006
 20
19.6807664140611251
 10
14.3748127771810346
 20
19.690080594853967
 10
14.3887862602127825
 20
19.6996732859351589
 10
14.4031360270887205
 20
19.7095222064816795
 10
14.4178292809237689
 20
19.7196050756703407
 10
14.43283322483299
 20
19.7298996126781674
 10
14.448115061931432
 20
19.7403835366820779
 10
14.4636419953341715
 20
19.7510345668589871
 10
14.4793812281561998
 20
19.7618304223857848
 10
14.4952999635124797
 20
19.7727488224395138
 10
14.511365404518159
 20
19.7837674861970036
 10
14.5275447542882148
 20
19.7948641328352259
 10
14.5438052159377378
 20
19.806016481531131
 10
14.5601139925816483
 20
19.8172022514616977
 10
14.5764382873351082
 20
19.8283991618037589
 10
14.5927453033130519
 20
19.8395849317342474
 10
14.6090022436306413
 20
19.8507372804301809
 10
14.625176311402754
 20
19.8618339270684174
 10
14.6412347097445377
 20
19.872852590825925
 10
14.6571446417710263
 20
19.8837709908796114
 10
14.6728733105971401
 20
19.8945668464064731
 10
14.6883879193380835
 20
19.9052178765833929
 10
14.7036556711087485
 20
19.9157018005872501
 10
14.7186437690242258
 20
19.9259963375950768
 10
14.7333194161995351
 20
19.9360792067837878
 10
14.7476498157496962
 20
19.945928127330248
 10
14.761602170789871
 20
19.9555208184114257
 10
14.7751436844349229
 20
19.9648349992042959
 10
14.7882415597999568
 20
19.9738483888857381
 10
14.8008629999999926
 20
19.9825387066327238
 10
15.3026540000000182
 20
20.3268497066327321
 10
15.315229985431813
 20
20.3350137640326096
 10
15.3281929365244309
 20
20.3425198952802937
 10
15.3415122164412026
 20
20.3493709421736781
 10
15.3551571883454585
 20
20.3555697465105396
 10
15.3690972154006431
 20
20.3611191500887934
 10
15.3833016607700017
 20
20.3660219947062835
 10
15.3977398876170639
 20
20.3702811221609075
 10
15.4123812591051035
 20
20.3738993742504668
 10
15.4271951383975079
 20
20.3768795927728483
 10
15.4421508886576788
 20
20.3792246195259104
 10
15.4572178730489043
 20
20.3809372963074651
 10
15.4723654547346428
 20
20.3820204649154277
 10
15.4875629968782533
 20
20.3824769671476353
 10
15.5027798626430808
 20
20.3823096448019925
 10
15.5179854151925269
 20
20.3815213396762402
 10
15.5331490176898797
 20
20.3801148935683756
 10
15.5482400332986259
 20
20.3780931482761503
 10
15.5632278251820821
 20
20.3754589455975008
 10
15.57808175650365
 20
20.3722151273302217
 10
15.5927711904266459
 20
20.3683645352722493
 10
15.6072654901144574
 20
20.363910011221332
 10
15.6215340187305003
 20
20.3588543969754454
 10
15.6355461394380768
 20
20.3532005343323732
 10
15.6492712154006171
 20
20.3469512650899702
 10
15.6626786097814801
 20
20.3401094310461339
 10
15.6757376857440534
 20
20.3326778739987049
 10
15.6884178064515822
 20
20.324659435745545
 10
15.7006883350676674
 20
20.3160569580844879
 10
15.712518634755483
 20
20.3068732828134664
 10
15.7238780686784594
 20
20.297111251730243
 10
15.7347359999999981
 20
20.2867737066327294
 10
16.1651250000000033
 20
19.8566677066327024
 10
16.564187000000004
 20
19.457322706632695
 10
17.8113270000000057
 20
18.209900706632709
 10
18.2103889999999922
 20
17.8108387066326941
 10
19.4572469999999953
 20
16.5639807066326945
 10
19.8563089999999818
 20
16.1649187066327151
 10
20.2864160000000027
 20
15.7348117066326978
 10
20.2967535450974879
 20
15.7239282172567734
 10
20.3065155761806864
 20
15.7125465762241383
 10
20.3156992514517754
 20
15.700697249984735
 10
20.3243017291128183
 20
15.6884107049879091
 10
20.3323201673659639
 20
15.6757174076834005
 10
20.3397517244134178
 20
15.6626478245206435
 10
20.3465935584572435
 20
15.649232421949435
 10
20.3528428276996181
 20
15.6355016664192306
 10
20.3584966903427187
 20
15.6214860243797133
 10
20.3635523045886657
 20
15.6072159622804065
 10
20.3680068286395226
 20
15.5927219465709896
 10
20.3718574206975234
 20
15.5780344437009575
 10
20.3751012389648167
 20
15.5631839201199824
 10
20.3777354416434946
 20
15.5482008422776943
 10
20.3797571869356489
 20
15.5331156766236376
 10
20.3811636330435704
 20
15.5179588896074101
 10
20.3819519381692373
 20
15.5027609476786381
 10
20.3821192605149122
 20
15.4875523172869549
 10
20.3816627582826868
 20
15.4723634648818447
 10
20.38057958967471
 20
15.4572248569130153
 10
20.3788669128931588
 20
15.4421669598299509
 10
20.3765218861400967
 20
15.4272202400824057
 10
20.3735416676177294
 20
15.4124151641198779
 10
20.3699234155281488
 20
15.3977821983919654
 10
20.3656642880735888
 20
15.383351809348305
 10
20.3607614434561128
 20
15.3691544634384485
 10
20.3552120398777845
 20
15.3552206271120468
 10
20.349013235540923
 20
15.341580766818673
 10
20.3421621886475634
 20
15.3282653490079568
 10
20.3346560573998829
 20
15.3153048401294001
 10
20.3264919999999734
 20
15.3027297066327215
 10
19.9821809999999971
 20
14.8009387066327065
 10
19.9735418954381885
 20
14.788290846977123
 10
19.9645730563257473
 20
14.7751682560267881
 10
19.9552971622637472
 20
14.7616036738711429
 10
19.9457368928535175
 20
14.7476298405993163
 10
19.9359149276963024
 20
14.733279496300753
 10
19.9258539463931754
 20
14.7185853810645746
 10
19.9155766285455513
 20
14.703580234980187
 10
19.9051056537544753
 20
14.6882967981368751
 10
19.8944637016213335
 20
14.672767810623828
 10
19.8836734517471996
 20
14.6570260125304941
 10
19.8727575837333461
 20
14.6411041439459702
 10
19.8617387771810172
 20
14.6250349449597081
 10
19.8506397116914286
 20
14.6088511556609291
 10
19.8394830668658244
 20
14.5925855161389606
 10
19.8282915223053919
 20
14.5762707664829954
 10
19.8170877576113753
 20
14.5599396467824107
 10
19.8058944523849334
 20
14.5436248971264774
 10
19.7947342862273672
 20
14.527359257604477
 10
19.783629938739864
 20
14.5111754683057086
 10
19.7726040895236679
 20
14.4951062693194714
 10
19.7616794181799946
 20
14.4791844007349262
 10
19.7508786043100031
 20
14.4634426026415781
 10
19.7402243275149942
 20
14.4479136151285772
 10
19.7297392673961838
 20
14.4326301782852191
 10
19.719446103554759
 20
14.4176250322008244
 10
19.7093675155919641
 20
14.4029309169646922
 10
19.6995261831089863
 20
14.3885805726660436
 10
19.6899447857070697
 20
14.3746067393942809
 10
19.680646002987487
 20
14.361042157238618
 10
19.6716525145513685
 20
14.3479195662883114
 10
19.6629869999999869
 20
14.3352717066327244
 10
16.6818739999999934
 20
9.9913077066327247
 10
16.6736120914369792
 20
9.9786089553655586
 10
16.6658157034003409
 20
9.9653890284413222
 10
16.6584869391427048
 20
9.9516818032726491
 10
16.6516279019166973
 20
9.9375211572721796
 10
16.6452406949750014
 20
9.9229409678525684
 10
16.6393274215702434
 20
9.9079751124264348
 10
16.6338901849552201
 20
9.8926574684063979
 10
16.6289310883823873
 20
9.8770219132051835
 10
16.6244522351045703
 20
9.8611023242353752
 10
16.6204557283743668
 20
9.8449325789096207
 10
16.6169436714444032
 20
9.8285465546404964
 10
16.613918167567391
 20
9.8119781288408063
 10
16.6113813199959566
 20
9.7952611789230133
 10
16.6093352319828398
 20
9.7784295822998359
 10
16.6077820067806101
 20
9.7615172163839929
 10
16.6067237476419223
 20
9.7445579585880324
 10
16.6061625578194594
 20
9.7275856863245878
 10
16.6061005405659614
 20
9.7106342770063065
 10
16.6065397991339694
 20
9.6937376080459075
 10
16.6074824367761948
 20
9.6769295568559741
 10
16.6089305567453209
 20
9.660244000849076
 10
16.6108862622939739
 20
9.6437148174380098
 10
16.6133516566748085
 20
9.6273758840352741
 10
16.6163288431405363
 20
9.6112610780536016
 10
16.6198199249438119
 20
9.5954042769055761
 10
16.6238270053372048
 20
9.5798393580039232
 10
16.6283521875733982
 20
9.5646001987611839
 10
16.6333975749051888
 20
9.5497206765900771
 10
16.6389652705850608
 20
9.5352346689032075
 10
16.6450573778657827
 20
9.5211760531131802
 10
16.6516759999999806
 20
9.5075787066327138
 10
18.5690939999999785
 20
5.0346387066327125
 10
18.5743934207982022
 20
5.0204516928701111
 10
18.5803874891745693
 20
5.0063099305593965
 10
18.587050172166073
 20
4.9922357575205467
 10
18.5943554368097352
 20
4.9782515115737596
 10
18.602277250142663
 20
4.9643795305392615
 10
18.6107895792017644
 20
4.9506421522370729
 10
18.619866391024118
 20
4.9370617144874487
 10
18.6294816526467741
 20
4.9236605551104091
 10
18.6396093311066977
 20
4.9104610119262873
 10
18.6502233934409958
 20
4.897485422755075
 10
18.6612978066865765
 20
4.8847561254168852
 10
18.6728065378805752
 20
4.8722954577320223
 10
18.6847235540599286
 20
4.8601257575205992
 10
18.6970228222617436
 20
4.8482693626026503
 10
18.7096783095230137
 20
4.8367486107984163
 10
18.7226639828807322
 20
4.8255858399280243
 10
18.7359538093719209
 20
4.8148033878116365
 10
18.7495217560336869
 20
4.8044235922693161
 10
18.7633417899029666
 20
4.7944687911213109
 10
18.7773878780168388
 20
4.7849613221877476
 10
18.7916339874122968
 20
4.7759235232887178
 10
18.8060540851263625
 20
4.7673777322444622
 10
18.8206221381960574
 20
4.7593462868750578
 10
18.8353121136584605
 20
4.7518515250006885
 10
18.8500979785505649
 20
4.74491578444146
 10
18.8649536999093641
 20
4.7385614030175702
 10
18.8798532447718799
 20
4.7328107185490467
 10
18.8947705801751908
 20
4.7276860688561797
 10
18.9096796731563188
 20
4.7232097917590963
 10
18.9245544907522287
 20
4.7194042250778949
 10
18.9393689999999992
 20
4.7162917066327097
 10
24.0405359999999746
 20
3.7674607066326828
 10
24.0556082346010101
 20
3.7646470984624756
 10
24.0712475126044581
 20
3.7617281034974965
 10
24.0874147275686994
 20
3.7587111112179414
 10
24.1040707730522286
 20
3.7556035111038852
 10
24.1211765426135401
 20
3.7524126926351968
 10
24.1386929298109862
 20
3.7491460452920435
 10
24.1565808282031469
 20
3.7458109585544648
 10
24.1748011313483744
 20
3.742414821902436
 10
24.19331473280522
 20
3.7389650248160891
 10
24.2120825261320647
 20
3.7354689567753709
 10
24.2310654048873744
 20
3.7319340072603495
 10
24.2502242626296436
 20
3.7283675657512632
 10
24.26951999291731
 20
3.7247770217278386
 10
24.2889134893088396
 20
3.7211697646704209
 10
24.3083656453626702
 20
3.7175531840587297
 10
24.3278373546372961
 20
3.7139346693731312
 10
24.3472895106911267
 20
3.7103216100934588
 10
24.3666830070826563
 20
3.7067213956998231
 10
24.3859787373703227
 20
3.7031414156723699
 10
24.4051375951126204
 20
3.6995890594909469
 10
24.4241204738679301
 20
3.6960717166356858
 10
24.4428882671947747
 20
3.6925967765867185
 10
24.4614018686515919
 20
3.689171628823928
 10
24.4796221717968479
 20
3.6858036628275315
 10
24.4975100701889801
 20
3.6825002680774404
 10
24.5150264573864547
 20
3.6792688340537651
 10
24.5321322269477093
 20
3.6761167502364884
 10
24.5487882724312669
 20
3.6730514061056923
 10
24.5649554873955367
 20
3.6700801911414516
 10
24.5805947653989563
 20
3.6672104948237561
 10
24.5956669999999917
 20
3.6644497066327375
 10
25.1939780000000155
 20
3.5529717066326967
 10
25.208663300090592
 20
3.5498117831323199
 10
25.2231546546272227
 20
3.5459191885567094
 10
25.2374325675875184
 20
3.5413171706654154
 10
25.2514775429492033
 20
3.5360289772177751
 10
25.2652700846899734
 20
3.5300778559731754
 10
25.2787906967875813
 20
3.5234870546909391
 10
25.2920198832197514
 20
3.516279821130361
 10
25.3049381479641511
 20
3.5084794030510622
 10
25.3175259949985048
 20
3.5001090482123374
 10
25.3297639283005083
 20
3.4911920043736089
 10
25.3416324518478291
 20
3.4817515192942281
 10
25.3531120696183336
 20
3.4718108407336032
 10
25.3641832855895757
 20
3.461393216451107
 10
25.3748266037393932
 20
3.4505218942061262
 10
25.3850225280453685
 20
3.4392201217579697
 10
25.3947515624852826
 20
3.4275111468663297
 10
25.4039942110368884
 20
3.4154182172901955
 10
25.4127309776777963
 20
3.4029645807892948
 10
25.4209423663857876
 20
3.3901734851229435
 10
25.4286088811385866
 20
3.3770681780502514
 10
25.4357110259138324
 20
3.363671907330847
 10
25.442229304689306
 20
3.3500079207241953
 10
25.4481442214427034
 20
3.3360994659896335
 10
25.4534362801517204
 20
3.3219697908863921
 10
25.458085984794053
 20
3.3076421431740073
 10
25.4620738393474539
 20
3.2931397706118233
 10
25.4653803477895906
 20
3.2784859209591843
 10
25.4679860140982157
 20
3.2637038419755626
 10
25.4698713422510252
 20
3.2488167814203379
 10
25.471016836225715
 20
3.233847987052954
 10
25.4714029999999809
 20
3.2188207066327053
 10
25.4711209999999824
 20
2.6103497066326611
 10
25.4711209999999824
 20
2.0459047066326335
 10
25.4711209999999824
 20
0.2820167066327599
 10
25.4711209999999824
 20
-0.2824282933672961
 10
25.4711209999999824
 20
-2.0457522933672578
 10
25.4711209999999824
 20
-2.6101972933672641
 10
25.4711209999999824
 20
-3.2183862933673026
 10
25.4707339718035257
 20
-3.2333888582023107
 10
25.4695859606927968
 20
-3.2483378214127256
 10
25.4676965768856149
 20
-3.2632095376692831
 10
25.4650854305998138
 20
-3.2779803616429461
 10
25.4617721320533121
 20
-3.2926266480045854
 10
25.4577762914638157
 20
-3.3071247514251567
 10
25.4531175190493428
 20
-3.3214510265752892
 10
25.447815425027656
 20
-3.3355818281260809
 10
25.4418896196166457
 20
-3.3494935107483883
 10
25.4353597130341456
 20
-3.3631624291129896
 10
25.4282453154979748
 20
-3.376564937890798
 10
25.4205660372259672
 20
-3.3896773917526843
 10
25.4123414884361125
 20
-3.402476145369576
 10
25.4035912793461307
 20
-3.4149375534122726
 10
25.3943350201738411
 20
-3.4270379705517016
 10
25.3845923211372479
 20
-3.4387537514586484
 10
25.3743827924540994
 20
-3.4500612508040902
 10
25.3637260443422292
 20
-3.4609368232589119
 10
25.3526416870195419
 20
-3.4713568234938421
 10
25.3411493307038853
 20
-3.4812976061798793
 10
25.3292685856130788
 20
-3.4907355259878869
 10
25.3170190619649986
 20
-3.4996469375887429
 10
25.3044203699774926
 20
-3.5080081956532254
 10
25.2914921198684084
 20
-3.5157956548523046
 10
25.2782539218555797
 20
-3.5229856698568369
 10
25.2647253861568686
 20
-3.5295545953376717
 10
25.2509261229901369
 20
-3.5354787859657293
 10
25.236875742573261
 20
-3.5407345964118377
 10
25.2225938551240461
 20
-3.5452983813468606
 10
25.2081000708602971
 20
-3.5491464954417253
 10
25.19341399999999
 20
-3.5522552933672813
 10
24.5953849999999932
 20
-3.6634502933673332
 10
24.5803127653989151
 20
-3.6662640111344373
 10
24.5646734873955097
 20
-3.669183217606232
 10
24.5485062724312684
 20
-3.6722006376994969
 10
24.5318502269477108
 20
-3.675308996331303
 10
24.5147444573864277
 20
-3.6785010184185012
 10
24.4972280701889531
 20
-3.6817694288780913
 10
24.4793401717968493
 20
-3.6851069526268603
 10
24.4611198686515934
 20
-3.6885063145817725
 10
24.4426062671947761
 20
-3.691960239659771
 10
24.4238384738679315
 20
-3.6954614527778631
 10
24.4048555951125934
 20
-3.6990026788528283
 10
24.3856967373703242
 20
-3.7025766428016951
 10
24.3664010070826862
 20
-3.7061760695413071
 10
24.3470075106910997
 20
-3.7097936839885861
 10
24.3275553546372834
 20
-3.7134222110605535
 10
24.3080836453626716
 20
-3.7170543756740173
 10
24.2886314893088269
 20
-3.7206829027459705
 10
24.2692379929173114
 20
-3.7243005171932921
 10
24.249942262629645
 20
-3.7278999439329326
 10
24.2307834048873758
 20
-3.7314739078817283
 10
24.2118005261320235
 20
-3.7350151339567432
 10
24.1930327328051789
 20
-3.7385163470748211
 10
24.1745191313483758
 20
-3.7419702721528694
 10
24.1562988282031199
 20
-3.7453696341078029
 10
24.1384109298110161
 20
-3.7487071578565434
 10
24.1208945426135415
 20
-3.7519755683161193
 10
24.10378877305223
 20
-3.7551675904033175
 10
24.0871327275687008
 20
-3.7582759490351023
 10
24.0709655126044595
 20
-3.7612933691284027
 10
24.0553262346010541
 20
-3.7642125756001832
 10
24.040253999999976
 20
-3.7670262933672944
 10
19.0926159999999925
 20
-4.6876352933672933
 10
19.0778119852639918
 20
-4.6907256591153796
 10
19.062968348293083
 20
-4.6945193140446833
 10
19.0481106676848384
 20
-4.6989935785540808
 10
19.033264522036859
 20
-4.7041257730423638
 10
19.0184554899466036
 20
-4.7098932179082595
 10
19.0037091500117157
 20
-4.7162732335505879
 10
18.9890510808297677
 20
-4.7232431403680692
 10
18.974506860998261
 20
-4.7307802587594878
 10
18.9601020691148392
 20
-4.7388619091237132
 10
18.9458622837769894
 20
-4.7474654118594231
 10
18.9318130835822842
 20
-4.7565680873654372
 10
18.9179800471283386
 20
-4.7661472560405684
 10
18.9043887530126256
 20
-4.7761802382835441
 10
18.8910647798328171
 20
-4.786644354493113
 10
18.8780337061864003
 20
-4.7975169250681446
 10
18.8653211106710046
 20
-4.8087752704073097
 10
18.8529525718840887
 20
-4.8203967109094989
 10
18.8409536684233387
 20
-4.8323585669734257
 10
18.8293499788862277
 20
-4.8446381589978245
 10
18.8181670818703708
 20
-4.8572128073815648
 10
18.8074305559732551
 20
-4.8700598325234239
 10
18.7971659797925383
 20
-4.8831565548221079
 10
18.7873989319257078
 20
-4.8964802946763939
 10
18.7781549909704211
 20
-4.9100083724851658
 10
18.769459735524137
 20
-4.9237181086470869
 10
18.7613387441844708
 20
-4.9375868235609701
 10
18.7538175955489805
 20
-4.951591837625628
 10
18.7469218682152245
 20
-4.9657104712397881
 10
18.7406771407807611
 20
-4.9799200448023058
 10
18.7351089918431626
 20
-4.9941978787118444
 10
18.7302429999999873
 20
-5.0085212933673091
 10
16.8258069999999833
 20
-9.7665062933672786
 10
16.8194605279782081
 20
-9.780240983340768
 10
16.8136384121714144
 20
-9.7944381919272701
 10
16.8083381513544197
 20
-9.8090635303516294
 10
16.8035572443019134
 20
-9.8240826098387117
 10
16.7992931897888553
 20
-9.8394610416133759
 10
16.7955434865898781
 20
-9.85516443690058
 10
16.7923056334799128
 20
-9.871158406925062
 10
16.7895771292336633
 20
-9.8874085629118014
 10
16.7873554726259613
 20
-9.903880516085529
 10
16.78563816243161
 20
-9.9205398776712741
 10
16.7844226974253843
 20
-9.9373522588937817
 10
16.7837065763821158
 20
-9.9542832709779958
 10
16.7834872980765653
 20
-9.9712985251486899
 10
16.7837623612836069
 20
-9.9883636326308221
 10
16.7845292647779303
 20
-10.0054442046492156
 10
16.785785507334424
 20
-10.0225058524287221
 10
16.7875285877278202
 20
-10.0395141871942855
 10
16.7897560047329648
 20
-10.0564348201707006
 10
16.7924652571246185
 20
-10.0732333625828403
 10
16.7956538436776128
 20
-10.0898754256555776
 10
16.7993192631667085
 20
-10.1063266206138209
 10
16.8034590143667373
 20
-10.1225525586823579
 10
16.8080705960524881
 20
-10.13851885108609
 10
16.8131515069987501
 20
-10.1541911090499113
 10
16.8186992459803122
 20
-10.1695349437986593
 10
16.824711311771992
 20
-10.1845159665571856
 10
16.8311852031485643
 20
-10.1990997885504271
 10
16.8381184188849033
 20
-10.213252021003143
 10
16.8455084577556988
 20
-10.2269382751402844
 10
16.8533528185357682
 20
-10.2401241621867527
 10
16.8616489999999715
 20
-10.2527752933673071
 10
19.6632689999999712
 20
-14.3354012933673118
 10
19.6719610246382643
 20
-14.348022724067846
 10
19.6809793074082364
 20
-14.3611205329362548
 10
19.6903012261085308
 20
-14.374661866090598
  0
ENDSEC
  0
SECTION
  2
OBJECTS
  0
DICTIONARY
  5
C
100
AcDbDictionary
280
0
281
1
  3
ACAD_GROUP
350
D
  3
ACAD_LAYOUT
350
1A
  3
ACAD_MLINESTYLE
350
17
  3
ACAD_PLOTSETTINGS
350
19
  3
ACAD_PLOTSTYLENAME
350
E
  3
AcDbVariableDictionary
350
47
  0
DICTIONARY
  5
D
100
AcDbDictionary
280
0
281
1
  0
ACDBDICTIONARYWDFLT
  5
E
100
AcDbDictionary
281
1
  3
Normal
350
F
100
AcDbDictionaryWithDefault
340
F
  0
ACDBPLACEHOLDER
  5
F
  0
DICTIONARY
  5
17
100
AcDbDictionary
280
0
281
1
  3
Standard
350
18
  0
MLINESTYLE
  5
18
100
AcDbMlineStyle
  2
STANDARD
 70
0
  3

 62
256
 51
90.0
 52
90.0
 71
2
 49
0.5
 62
256
  6
BYLAYER
 49
-0.5
 62
256
  6
BYLAYER
  0
DICTIONARY
  5
19
100
AcDbDictionary
280
0
281
1
  0
DICTIONARY
  5
1A
100
AcDbDictionary
281
1
  3
Layout1
350
1E
  3
Layout2
350
26
  3
Model
350
22
  0
LAYOUT
  5
1E
100
AcDbPlotSettings
  1

  2
C:\Program Files\AutoCAD 2002\plotters\DWF ePlot (optimized for plotting).pc3
  4

  6

 40
0.0
 41
0.0
 42
0.0
 43
0.0
 44
0.0
 45
0.0
 46
0.0
 47
0.0
 48
0.0
 49
0.0
140
0.0
141
0.0
142
1.0
143
1.0
 70
688
 72
0
 73
0
 74
5
  7

 75
16
147
1.0
148
0.0
149
0.0
100
AcDbLayout
  1
Layout1
 70
1
 71
1
 10
0.0
 20
0.0
 11
420.0
 21
297.0
 12
0.0
 22
0.0
 32
0.0
 14
100000000000000000000.0
 24
100000000000000000000.0
 34
100000000000000000000.0
 15
-100000000000000000000.0
 25
-100000000000000000000.0
 35
-100000000000000000000.0
146
0.0
 13
0.0
 23
0.0
 33
0.0
 16
1.0
 26
0.0
 36
0.0
 17
0.0
 27
1.0
 37
0.0
 76
0
330
1B
  0
LAYOUT
  5
22
100
AcDbPlotSettings
  1

  2
C:\Program Files\AutoCAD 2002\plotters\DWF ePlot (optimized for plotting).pc3
  4

  6

 40
0.0
 41
0.0
 42
0.0
 43
0.0
 44
0.0
 45
0.0
 46
0.0
 47
0.0
 48
0.0
 49
0.0
140
0.0
141
0.0
142
1.0
143
1.0
 70
1712
 72
0
 73
0
 74
0
  7

 75
0
147
1.0
148
0.0
149
0.0
100
AcDbLayout
  1
Model
 70
1
 71
0
 10
0.0
 20
0.0
 11
12.0
 21
9.0
 12
0.0
 22
0.0
 32
0.0
 14
0.0
 24
0.0
 34
0.0
 15
0.0
 25
0.0
 35
0.0
146
0.0
 13
0.0
 23
0.0
 33
0.0
 16
1.0
 26
0.0
 36
0.0
 17
0.0
 27
1.0
 37
0.0
 76
0
330
1F
  0
LAYOUT
  5
26
100
AcDbPlotSettings
  1

  2
C:\Program Files\AutoCAD 2002\plotters\DWF ePlot (optimized for plotting).pc3
  4

  6

 40
0.0
 41
0.0
 42
0.0
 43
0.0
 44
0.0
 45
0.0
 46
0.0
 47
0.0
 48
0.0
 49
0.0
140
0.0
141
0.0
142
1.0
143
1.0
 70
688
 72
0
 73
0
 74
5
  7

 75
16
147
1.0
148
0.0
149
0.0
100
AcDbLayout
  1
Layout2
 70
1
 71
2
 10
0.0
 20
0.0
 11
12.0
 21
9.0
 12
0.0
 22
0.0
 32
0.0
 14
0.0
 24
0.0
 34
0.0
 15
0.0
 25
0.0
 35
0.0
146
0.0
 13
0.0
 23
0.0
 33
0.0
 16
1.0
 26
0.0
 36
0.0
 17
0.0
 27
1.0
 37
0.0
 76
0
330
23
  0
DICTIONARY
  5
47
100
AcDbDictionary
281
1
  3
DIMASSOC
350
49
  3
HIDETEXT
350
48
  0
DICTIONARYVAR
  5
48
100
DictionaryVariables
280
0
  1
2
  0
DICTIONARYVAR
  5
49
100
DictionaryVariables
280
0
  1
1
  0
ENDSEC
  0
EOF
