  0
SECTION
  2
HEADER
  9
$ACADVER
  1
AC1015
  0
ENDSEC
  0
SECTION
  2
BLOCKS
  0
ENDSEC
  0
SECTION
  2
ENTITIES
  0
LWPOLYLINE
  8
0
  90
69
  70
1
 10
-90.000000
 20
-11.934000
 10
-90.000000
 20
11.934000
 10
-68.096000
 20
15.081000
 10
-67.615000
 20
18.117000
 10
-62.370000
 20
31.779000
 10
-58.734000
 20
37.379000
 10
-72.078000
 20
55.201000
 10
-55.201000
 20
72.078000
 10
-37.379000
 20
58.734000
 10
-31.779000
 20
62.370000
 10
-18.117000
 20
67.615000
 10
-15.081000
 20
68.096000
 10
-11.934000
 20
90.000000
 10
11.934000
 20
90.000000
 10
15.090000
 20
68.029000
 10
25.085000
 20
65.351000
 10
37.660000
 20
58.944000
 10
55.201000
 20
72.078000
 10
72.078000
 20
55.201000
 10
58.944000
 20
37.660000
 10
65.351000
 20
25.085000
 10
68.029000
 20
15.090000
 10
90.000000
 20
11.934000
 10
90.000000
 20
-11.934000
 10
68.096000
 20
-15.081000
 10
67.615000
 20
-18.117000
 10
62.370000
 20
-31.779000
 10
58.734000
 20
-37.379000
 10
72.078000
 20
-55.201000
 10
55.201000
 20
-72.078000
 10
37.379000
 20
-58.734000
 10
31.779000
 20
-62.370000
 10
29.493000
 20
-63.248000
 10
10.533000
 20
-22.588000
 10
11.350000
 20
-22.275000
 10
15.733000
 20
-19.428000
 10
19.428000
 20
-15.733000
 10
22.275000
 20
-11.350000
 10
24.148000
 20
-6.471000
 10
24.966000
 20
-1.309000
 10
24.692000
 20
3.910000
 10
23.339000
 20
8.960000
 10
20.967000
 20
13.616000
 10
17.678000
 20
17.678000
 10
13.616000
 20
20.967000
 10
8.960000
 20
23.339000
 10
3.910000
 20
24.692000
 10
-1.309000
 20
24.966000
 10
-6.471000
 20
24.148000
 10
-11.350000
 20
22.275000
 10
-15.733000
 20
19.428000
 10
-19.428000
 20
15.733000
 10
-22.275000
 20
11.350000
 10
-24.148000
 20
6.471000
 10
-24.966000
 20
1.309000
 10
-24.692000
 20
-3.910000
 10
-23.339000
 20
-8.960000
 10
-20.967000
 20
-13.616000
 10
-17.678000
 20
-17.678000
 10
-13.616000
 20
-20.967000
 10
-10.514000
 20
-22.548000
 10
-29.439000
 20
-63.133000
 10
-37.660000
 20
-58.944000
 10
-55.201000
 20
-72.078000
 10
-72.078000
 20
-55.201000
 10
-58.944000
 20
-37.660000
 10
-65.351000
 20
-25.085000
 10
-68.029000
 20
-15.090000
 10
-90.000000
 20
-11.934000
  0
LWPOLYLINE
  8
0
  90
184
  70
1
 10
-86.000000
 20
-8.509000
 10
-86.000000
 20
8.509000
 10
-68.096000
 20
11.081000
 10
-68.082000
 20
11.167000
 10
-66.565000
 20
11.385000
 10
-66.454000
 20
12.083000
 10
-65.268000
 20
12.253000
 10
-65.078000
 20
13.453000
 10
-64.400000
 20
13.550000
 10
-64.159000
 20
15.072000
 10
-64.096000
 20
15.081000
 10
-63.814000
 20
16.858000
 10
-58.674000
 20
30.248000
 10
-55.038000
 20
35.848000
 10
-55.408000
 20
36.342000
 10
-54.734000
 20
37.379000
 10
-55.429000
 20
38.307000
 10
-55.038000
 20
38.910000
 10
-55.954000
 20
40.133000
 10
-55.906000
 20
40.207000
 10
-66.828000
 20
54.795000
 10
-54.795000
 20
66.828000
 10
-40.207000
 20
55.906000
 10
-40.133000
 20
55.954000
 10
-38.910000
 20
55.038000
 10
-38.307000
 20
55.429000
 10
-37.379000
 20
54.734000
 10
-36.342000
 20
55.408000
 10
-35.848000
 20
55.038000
 10
-30.248000
 20
58.674000
 10
-16.858000
 20
63.814000
 10
-15.081000
 20
64.096000
 10
-15.072000
 20
64.159000
 10
-13.550000
 20
64.400000
 10
-13.453000
 20
65.078000
 10
-12.253000
 20
65.268000
 10
-12.083000
 20
66.454000
 10
-11.385000
 20
66.565000
 10
-11.167000
 20
68.082000
 10
-11.081000
 20
68.096000
 10
-8.509000
 20
86.000000
 10
8.509000
 20
86.000000
 10
11.090000
 20
68.029000
 10
11.177000
 20
68.006000
 10
11.394000
 20
66.498000
 10
12.103000
 20
66.308000
 10
12.262000
 20
65.201000
 10
13.481000
 20
64.874000
 10
13.559000
 20
64.333000
 10
23.554000
 20
61.655000
 10
36.129000
 20
55.248000
 10
36.507000
 20
55.531000
 10
37.660000
 20
54.944000
 10
38.522000
 20
55.589000
 10
39.191000
 20
55.248000
 10
40.406000
 20
56.158000
 10
40.488000
 20
56.116000
 10
54.795000
 20
66.828000
 10
66.828000
 20
54.795000
 10
56.116000
 20
40.488000
 10
56.158000
 20
40.406000
 10
55.248000
 20
39.191000
 10
55.589000
 20
38.522000
 10
54.944000
 20
37.660000
 10
55.531000
 20
36.507000
 10
55.248000
 20
36.129000
 10
61.655000
 20
23.554000
 10
64.333000
 20
13.559000
 10
64.874000
 20
13.481000
 10
65.201000
 20
12.262000
 10
66.308000
 20
12.103000
 10
66.498000
 20
11.394000
 10
68.006000
 20
11.177000
 10
68.029000
 20
11.090000
 10
86.000000
 20
8.509000
 10
86.000000
 20
-8.509000
 10
68.096000
 20
-11.081000
 10
68.082000
 20
-11.167000
 10
66.565000
 20
-11.385000
 10
66.454000
 20
-12.083000
 10
65.268000
 20
-12.253000
 10
65.078000
 20
-13.453000
 10
64.400000
 20
-13.550000
 10
64.159000
 20
-15.072000
 10
64.096000
 20
-15.081000
 10
63.814000
 20
-16.858000
 10
58.674000
 20
-30.248000
 10
55.038000
 20
-35.848000
 10
55.408000
 20
-36.342000
 10
54.734000
 20
-37.379000
 10
55.429000
 20
-38.307000
 10
55.038000
 20
-38.910000
 10
55.954000
 20
-40.133000
 10
55.906000
 20
-40.207000
 10
66.828000
 20
-54.795000
 10
54.795000
 20
-66.828000
 10
40.207000
 20
-55.906000
 10
40.133000
 20
-55.954000
 10
38.910000
 20
-55.038000
 10
38.307000
 20
-55.429000
 10
37.379000
 20
-54.734000
 10
36.342000
 20
-55.408000
 10
35.848000
 20
-55.038000
 10
31.416000
 20
-57.915000
 10
15.674000
 20
-24.157000
 10
17.264000
 20
-23.124000
 10
17.337000
 20
-23.051000
 10
18.561000
 20
-22.256000
 10
22.256000
 20
-18.561000
 10
23.051000
 20
-17.337000
 10
23.124000
 20
-17.264000
 10
25.971000
 20
-12.881000
 10
27.844000
 20
-8.002000
 10
28.043000
 20
-6.743000
 10
28.148000
 20
-6.471000
 10
28.966000
 20
-1.309000
 10
28.692000
 20
3.910000
 10
28.414000
 20
4.948000
 10
28.388000
 20
5.441000
 10
27.035000
 20
10.491000
 10
24.663000
 20
15.147000
 10
24.104000
 20
15.837000
 10
23.795000
 20
16.444000
 10
20.506000
 20
20.506000
 10
16.444000
 20
23.795000
 10
15.837000
 20
24.104000
 10
15.147000
 20
24.663000
 10
10.491000
 20
27.035000
 10
5.441000
 20
28.388000
 10
4.948000
 20
28.414000
 10
3.910000
 20
28.692000
 10
-1.309000
 20
28.966000
 10
-6.471000
 20
28.148000
 10
-6.743000
 20
28.043000
 10
-8.002000
 20
27.844000
 10
-12.881000
 20
25.971000
 10
-17.264000
 20
23.124000
 10
-17.337000
 20
23.051000
 10
-18.561000
 20
22.256000
 10
-22.256000
 20
18.561000
 10
-23.051000
 20
17.337000
 10
-23.124000
 20
17.264000
 10
-25.971000
 20
12.881000
 10
-27.844000
 20
8.002000
 10
-28.043000
 20
6.743000
 10
-28.148000
 20
6.471000
 10
-28.966000
 20
1.309000
 10
-28.692000
 20
-3.910000
 10
-28.414000
 20
-4.948000
 10
-28.388000
 20
-5.441000
 10
-27.035000
 20
-10.491000
 10
-24.663000
 20
-15.147000
 10
-24.104000
 20
-15.837000
 10
-23.795000
 20
-16.444000
 10
-20.506000
 20
-20.506000
 10
-16.444000
 20
-23.795000
 10
-15.837000
 20
-24.104000
 10
-15.701000
 20
-24.214000
 10
-31.316000
 20
-57.701000
 10
-36.129000
 20
-55.248000
 10
-36.507000
 20
-55.531000
 10
-37.660000
 20
-54.944000
 10
-38.522000
 20
-55.589000
 10
-39.191000
 20
-55.248000
 10
-40.406000
 20
-56.158000
 10
-40.488000
 20
-56.116000
 10
-54.795000
 20
-66.828000
 10
-66.828000
 20
-54.795000
 10
-56.116000
 20
-40.488000
 10
-56.158000
 20
-40.406000
 10
-55.248000
 20
-39.191000
 10
-55.589000
 20
-38.522000
 10
-54.944000
 20
-37.660000
 10
-55.531000
 20
-36.507000
 10
-55.248000
 20
-36.129000
 10
-61.655000
 20
-23.554000
 10
-64.333000
 20
-13.559000
 10
-64.874000
 20
-13.481000
 10
-65.201000
 20
-12.262000
 10
-66.308000
 20
-12.103000
 10
-66.498000
 20
-11.394000
 10
-68.006000
 20
-11.177000
 10
-68.029000
 20
-11.090000
 10
-86.000000
 20
-8.509000
  0
ENDSEC
  0
SECTION
  2
OBJECTS
  0
DICTIONARY
  0
ENDSEC
  0
EOF
