  0
SECTION
  2
HEADER
  9
$ACADVER
  1
AC1015
  0
ENDSEC
  0
SECTION
  2
BLOCKS
  0
ENDSEC
  0
SECTION
  2
ENTITIES
  0
LWPOLYLINE
  8
0
  90
69
  70
1
 10
-90.000000
 20
-11.934000
 10
-90.000000
 20
11.934000
 10
-68.096000
 20
15.081000
 10
-67.615000
 20
18.117000
 10
-62.370000
 20
31.779000
 10
-58.734000
 20
37.379000
 10
-72.078000
 20
55.201000
 10
-55.201000
 20
72.078000
 10
-37.379000
 20
58.734000
 10
-31.779000
 20
62.370000
 10
-18.117000
 20
67.615000
 10
-15.081000
 20
68.096000
 10
-11.934000
 20
90.000000
 10
11.934000
 20
90.000000
 10
15.090000
 20
68.029000
 10
25.085000
 20
65.351000
 10
37.660000
 20
58.944000
 10
55.201000
 20
72.078000
 10
72.078000
 20
55.201000
 10
58.944000
 20
37.660000
 10
65.351000
 20
25.085000
 10
68.029000
 20
15.090000
 10
90.000000
 20
11.934000
 10
90.000000
 20
-11.934000
 10
68.096000
 20
-15.081000
 10
67.615000
 20
-18.117000
 10
62.370000
 20
-31.779000
 10
58.734000
 20
-37.379000
 10
72.078000
 20
-55.201000
 10
55.201000
 20
-72.078000
 10
37.379000
 20
-58.734000
 10
31.779000
 20
-62.370000
 10
29.493000
 20
-63.248000
 10
10.533000
 20
-22.588000
 10
11.350000
 20
-22.275000
 10
15.733000
 20
-19.428000
 10
19.428000
 20
-15.733000
 10
22.275000
 20
-11.350000
 10
24.148000
 20
-6.471000
 10
24.966000
 20
-1.309000
 10
24.692000
 20
3.910000
 10
23.339000
 20
8.960000
 10
20.967000
 20
13.616000
 10
17.678000
 20
17.678000
 10
13.616000
 20
20.967000
 10
8.960000
 20
23.339000
 10
3.910000
 20
24.692000
 10
-1.309000
 20
24.966000
 10
-6.471000
 20
24.148000
 10
-11.350000
 20
22.275000
 10
-15.733000
 20
19.428000
 10
-19.428000
 20
15.733000
 10
-22.275000
 20
11.350000
 10
-24.148000
 20
6.471000
 10
-24.966000
 20
1.309000
 10
-24.692000
 20
-3.910000
 10
-23.339000
 20
-8.960000
 10
-20.967000
 20
-13.616000
 10
-17.678000
 20
-17.678000
 10
-13.616000
 20
-20.967000
 10
-10.514000
 20
-22.548000
 10
-29.439000
 20
-63.133000
 10
-37.660000
 20
-58.944000
 10
-55.201000
 20
-72.078000
 10
-72.078000
 20
-55.201000
 10
-58.944000
 20
-37.660000
 10
-65.351000
 20
-25.085000
 10
-68.029000
 20
-15.090000
 10
-90.000000
 20
-11.934000
  0
ENDSEC
  0
SECTION
  2
OBJECTS
  0
DICTIONARY
  0
ENDSEC
  0
EOF
